<?xml version="1.0" encoding="UTF-8"?>
<svg id="_图层_1" data-name="图层_1" xmlns="http://www.w3.org/2000/svg" version="1.1" xmlns:xlink="http://www.w3.org/1999/xlink" viewBox="0 0 915 495">
<rect width="100%" height="100%" fill="white" />
  <!-- Generator: Adobe Illustrator 29.0.0, SVG Export Plug-In . SVG Version: 2.1.0 Build 186)  -->
  <defs>
    <style>
      .st0 {
        clip-path: url(#clippath-76);
      }

      .st1 {
        clip-path: url(#clippath-51);
      }

      .st2 {
        clip-path: url(#clippath-34);
      }

      .st3 {
        clip-path: url(#clippath-107);
      }

      .st4 {
        clip-path: url(#clippath-133);
      }

      .st5 {
        clip-path: url(#clippath-38);
      }

      .st6 {
        clip-path: url(#clippath-21);
      }

      .st7 {
        clip-path: url(#clippath-28);
      }

      .st7, .st8, .st9, .st10, .st11, .st12, .st13, .st14, .st15, .st16, .st17, .st18, .st19, .st20, .st21, .st22, .st23, .st24, .st25, .st26 {
        fill: none;
      }

      .st7, .st8, .st10, .st12, .st14, .st16, .st18, .st19, .st20, .st21, .st25, .st26 {
        clip-rule: evenodd;
      }

      .st8 {
        clip-path: url(#clippath-147);
      }

      .st27 {
        clip-path: url(#clippath-6);
      }

      .st28 {
        clip-path: url(#clippath-7);
      }

      .st29 {
        clip-path: url(#clippath-17);
      }

      .st30, .st31 {
        fill: #4e79a7;
      }

      .st32 {
        clip-path: url(#clippath-80);
      }

      .st33 {
        clip-path: url(#clippath-31);
      }

      .st34 {
        clip-path: url(#clippath-79);
      }

      .st35 {
        clip-path: url(#clippath-138);
      }

      .st36 {
        clip-path: url(#clippath-75);
      }

      .st37 {
        clip-path: url(#clippath-15);
      }

      .st38 {
        clip-path: url(#clippath-33);
      }

      .st39 {
        clip-path: url(#clippath-61);
      }

      .st40 {
        clip-path: url(#clippath-116);
      }

      .st41 {
        clip-path: url(#clippath-100);
      }

      .st42 {
        clip-path: url(#clippath-18);
      }

      .st43 {
        clip-path: url(#clippath-47);
      }

      .st44 {
        clip-path: url(#clippath-4);
      }

      .st45 {
        clip-path: url(#clippath-71);
      }

      .st46 {
        clip-path: url(#clippath-126);
      }

      .st47 {
        clip-path: url(#clippath-120);
      }

      .st48 {
        clip-path: url(#clippath-22);
      }

      .st49 {
        fill: red;
      }

      .st49, .st50, .st51, .st52, .st31, .st53, .st54 {
        fill-rule: evenodd;
      }

      .st55 {
        clip-path: url(#clippath-103);
      }

      .st56 {
        clip-path: url(#clippath-23);
      }

      .st57 {
        clip-path: url(#clippath-140);
      }

      .st58 {
        clip-path: url(#clippath-82);
      }

      .st59 {
        clip-path: url(#clippath-54);
      }

      .st60 {
        clip-path: url(#clippath-66);
      }

      .st50, .st61 {
        fill: #7f7f7f;
      }

      .st9, .st13, .st15 {
        stroke-width: 2.25px;
      }

      .st9, .st13, .st15, .st17, .st22, .st23, .st24 {
        stroke-miterlimit: 8;
      }

      .st9, .st24 {
        stroke: #ff5b5b;
      }

      .st62 {
        clip-path: url(#clippath-114);
      }

      .st63 {
        clip-path: url(#clippath-149);
      }

      .st51 {
        fill: #bfbfbf;
      }

      .st64 {
        clip-path: url(#clippath-128);
      }

      .st65 {
        clip-path: url(#clippath-9);
      }

      .st66 {
        clip-path: url(#clippath-142);
      }

      .st67 {
        clip-path: url(#clippath-121);
      }

      .st68 {
        clip-path: url(#clippath-102);
      }

      .st69 {
        clip-path: url(#clippath-70);
      }

      .st70 {
        clip-path: url(#clippath-10);
      }

      .st71 {
        clip-path: url(#clippath-42);
      }

      .st72 {
        clip-path: url(#clippath-132);
      }

      .st73 {
        clip-path: url(#clippath-59);
      }

      .st74 {
        clip-path: url(#clippath-148);
      }

      .st75 {
        clip-path: url(#clippath-43);
      }

      .st76 {
        clip-path: url(#clippath-64);
      }

      .st10 {
        clip-path: url(#clippath-151);
      }

      .st77 {
        clip-path: url(#clippath-101);
      }

      .st78 {
        clip-path: url(#clippath-25);
      }

      .st79 {
        clip-path: url(#clippath-27);
      }

      .st80 {
        clip-path: url(#clippath-109);
      }

      .st81, .st54 {
        fill: #e15759;
      }

      .st82 {
        clip-path: url(#clippath-130);
      }

      .st83 {
        clip-path: url(#clippath-60);
      }

      .st84 {
        clip-path: url(#clippath-113);
      }

      .st85 {
        clip-path: url(#clippath-93);
      }

      .st86 {
        clip-path: url(#clippath-11);
      }

      .st87 {
        clip-path: url(#clippath-57);
      }

      .st88 {
        clip-path: url(#clippath-88);
      }

      .st89 {
        fill: #fff;
      }

      .st89, .st90, .st91, .st92, .st93 {
        font-weight: 700;
      }

      .st89, .st90, .st91, .st93 {
        font-family: TimesNewRomanPS-BoldMT, 'Times New Roman';
      }

      .st89, .st90, .st92, .st94, .st95, .st93 {
        font-size: 18px;
      }

      .st96 {
        clip-path: url(#clippath-85);
      }

      .st97 {
        clip-path: url(#clippath-111);
      }

      .st98 {
        clip-path: url(#clippath-105);
      }

      .st99 {
        clip-path: url(#clippath-92);
      }

      .st100 {
        clip-path: url(#clippath-35);
      }

      .st101 {
        clip-path: url(#clippath-98);
      }

      .st102 {
        clip-path: url(#clippath-48);
      }

      .st103 {
        clip-path: url(#clippath-104);
      }

      .st104 {
        clip-path: url(#clippath-118);
      }

      .st12 {
        clip-path: url(#clippath-139);
      }

      .st13 {
        stroke: #7c7c7c;
      }

      .st105 {
        clip-path: url(#clippath-1);
      }

      .st106 {
        clip-path: url(#clippath-56);
      }

      .st107 {
        clip-path: url(#clippath-108);
      }

      .st108 {
        clip-path: url(#clippath-141);
      }

      .st109 {
        clip-path: url(#clippath-90);
      }

      .st110 {
        clip-path: url(#clippath-45);
      }

      .st111 {
        clip-path: url(#clippath-110);
      }

      .st112 {
        clip-path: url(#clippath-99);
      }

      .st113 {
        clip-path: url(#clippath-89);
      }

      .st114 {
        clip-path: url(#clippath-46);
      }

      .st115 {
        clip-path: url(#clippath-96);
      }

      .st116 {
        clip-path: url(#clippath-5);
      }

      .st117 {
        clip-path: url(#clippath-20);
      }

      .st14 {
        clip-path: url(#clippath-135);
      }

      .st118 {
        clip-path: url(#clippath-95);
      }

      .st119 {
        clip-path: url(#clippath-8);
      }

      .st120 {
        clip-path: url(#clippath-52);
      }

      .st121 {
        clip-path: url(#clippath-41);
      }

      .st122 {
        clip-path: url(#clippath-67);
      }

      .st123 {
        clip-path: url(#clippath-74);
      }

      .st52, .st93 {
        fill: #ff5b5b;
      }

      .st124 {
        clip-path: url(#clippath-3);
      }

      .st125 {
        clip-path: url(#clippath-146);
      }

      .st126 {
        clip-path: url(#clippath-26);
      }

      .st15 {
        stroke: #bfbfbf;
      }

      .st127 {
        clip-path: url(#clippath-91);
      }

      .st91 {
        font-size: 15.96px;
      }

      .st128 {
        clip-path: url(#clippath-137);
      }

      .st129 {
        clip-path: url(#clippath-12);
      }

      .st130 {
        clip-path: url(#clippath-50);
      }

      .st131 {
        fill: #afabab;
      }

      .st132 {
        clip-path: url(#clippath-153);
      }

      .st16 {
        clip-path: url(#clippath-32);
      }

      .st133 {
        clip-path: url(#clippath-14);
      }

      .st17 {
        stroke: #172c51;
      }

      .st134 {
        clip-path: url(#clippath-97);
      }

      .st135 {
        clip-path: url(#clippath-30);
      }

      .st136 {
        clip-path: url(#clippath-112);
      }

      .st137 {
        clip-path: url(#clippath-77);
      }

      .st138 {
        clip-path: url(#clippath-19);
      }

      .st139 {
        clip-path: url(#clippath-127);
      }

      .st140 {
        clip-path: url(#clippath-117);
      }

      .st19 {
        clip-path: url(#clippath-24);
      }

      .st141 {
        clip-path: url(#clippath-78);
      }

      .st92 {
        font-family: TimesNewRomanPS-BoldItalicMT, 'Times New Roman';
        font-style: italic;
      }

      .st142 {
        clip-path: url(#clippath-72);
      }

      .st143 {
        fill: #59a14f;
      }

      .st144 {
        clip-path: url(#clippath-84);
      }

      .st145 {
        clip-path: url(#clippath-145);
      }

      .st146 {
        clip-path: url(#clippath-55);
      }

      .st94 {
        font-family: TimesNewRomanPSMT, 'Times New Roman';
      }

      .st147 {
        clip-path: url(#clippath-123);
      }

      .st148 {
        clip-path: url(#clippath-129);
      }

      .st20 {
        clip-path: url(#clippath-44);
      }

      .st149 {
        clip-path: url(#clippath-150);
      }

      .st150 {
        clip-path: url(#clippath-73);
      }

      .st151 {
        clip-path: url(#clippath-53);
      }

      .st152 {
        clip-path: url(#clippath-39);
      }

      .st153 {
        clip-path: url(#clippath-122);
      }

      .st154 {
        clip-path: url(#clippath-81);
      }

      .st155 {
        clip-path: url(#clippath-106);
      }

      .st156 {
        clip-path: url(#clippath-125);
      }

      .st157 {
        clip-path: url(#clippath-16);
      }

      .st158 {
        clip-path: url(#clippath-119);
      }

      .st159 {
        clip-path: url(#clippath-2);
      }

      .st160 {
        clip-path: url(#clippath-29);
      }

      .st161 {
        clip-path: url(#clippath-131);
      }

      .st21 {
        clip-path: url(#clippath-143);
      }

      .st162 {
        clip-path: url(#clippath-49);
      }

      .st163 {
        clip-path: url(#clippath-37);
      }

      .st164 {
        clip-path: url(#clippath-58);
      }

      .st165 {
        clip-path: url(#clippath-124);
      }

      .st166 {
        clip-path: url(#clippath-13);
      }

      .st22 {
        stroke: #767171;
        stroke-dasharray: 76200 57150;
        stroke-width: 1.5px;
      }

      .st167 {
        clip-path: url(#clippath-136);
      }

      .st168 {
        clip-path: url(#clippath-86);
      }

      .st23 {
        stroke: #000;
      }

      .st169 {
        clip-path: url(#clippath-144);
      }

      .st170 {
        clip-path: url(#clippath-63);
      }

      .st95 {
        font-family: CambriaMath, 'Cambria Math';
      }

      .st171 {
        clip-path: url(#clippath-94);
      }

      .st172 {
        clip-path: url(#clippath);
      }

      .st25 {
        clip-path: url(#clippath-36);
      }

      .st173 {
        clip-path: url(#clippath-87);
      }

      .st174 {
        clip-path: url(#clippath-68);
      }

      .st175 {
        clip-path: url(#clippath-83);
      }

      .st176 {
        clip-path: url(#clippath-65);
      }

      .st177 {
        clip-path: url(#clippath-134);
      }

      .st26 {
        clip-path: url(#clippath-40);
      }

      .st178 {
        clip-path: url(#clippath-115);
      }

      .st179 {
        clip-path: url(#clippath-62);
      }

      .st180 {
        clip-path: url(#clippath-69);
      }

      .st181 {
        clip-path: url(#clippath-152);
      }
    </style>
    <clipPath id="clippath">
      <polygon class="st18" points="3.9 103.61 909.18 103.61 909.18 4.25 3.9 4.25 3.9 103.61 3.9 103.61"/>
    </clipPath>
    <clipPath id="clippath-1">
      <rect class="st11" x="3.9" y="4.25" width="905.28" height="99.36"/>
    </clipPath>
    <clipPath id="clippath-2">
      <polygon class="st18" points="3.9 103.61 909.18 103.61 909.18 4.25 3.9 4.25 3.9 103.61 3.9 103.61"/>
    </clipPath>
    <clipPath id="clippath-3">
      <polygon class="st18" points="3.9 103.61 909.18 103.61 909.18 4.25 3.9 4.25 3.9 103.61 3.9 103.61"/>
    </clipPath>
    <clipPath id="clippath-4">
      <polygon class="st18" points="3.9 103.61 909.18 103.61 909.18 4.25 3.9 4.25 3.9 103.61 3.9 103.61"/>
    </clipPath>
    <clipPath id="clippath-5">
      <rect class="st11" x="3.9" y="4.25" width="905.28" height="99.36"/>
    </clipPath>
    <clipPath id="clippath-6">
      <polygon class="st18" points="3.9 103.61 909.18 103.61 909.18 4.25 3.9 4.25 3.9 103.61 3.9 103.61"/>
    </clipPath>
    <clipPath id="clippath-7">
      <polygon class="st18" points="3.9 103.61 909.18 103.61 909.18 4.25 3.9 4.25 3.9 103.61 3.9 103.61"/>
    </clipPath>
    <clipPath id="clippath-8">
      <rect class="st11" x="3.9" y="4.25" width="905.28" height="99.36"/>
    </clipPath>
    <clipPath id="clippath-9">
      <polygon class="st18" points="3.9 103.61 909.18 103.61 909.18 4.25 3.9 4.25 3.9 103.61 3.9 103.61"/>
    </clipPath>
    <clipPath id="clippath-10">
      <polygon class="st18" points="3.9 103.61 909.18 103.61 909.18 4.25 3.9 4.25 3.9 103.61 3.9 103.61"/>
    </clipPath>
    <clipPath id="clippath-11">
      <rect class="st11" x="3.9" y="4.25" width="905.28" height="99.36"/>
    </clipPath>
    <clipPath id="clippath-12">
      <polygon class="st18" points="3.9 103.61 909.18 103.61 909.18 4.25 3.9 4.25 3.9 103.61 3.9 103.61"/>
    </clipPath>
    <clipPath id="clippath-13">
      <rect class="st11" x="3.9" y="4.25" width="905.28" height="99.36"/>
    </clipPath>
    <clipPath id="clippath-14">
      <polygon class="st18" points="3.9 103.61 909.18 103.61 909.18 4.25 3.9 4.25 3.9 103.61 3.9 103.61"/>
    </clipPath>
    <clipPath id="clippath-15">
      <rect class="st11" x="3.9" y="4.25" width="905.28" height="99.36"/>
    </clipPath>
    <clipPath id="clippath-16">
      <polygon class="st18" points="3.9 103.61 909.18 103.61 909.18 4.25 3.9 4.25 3.9 103.61 3.9 103.61"/>
    </clipPath>
    <clipPath id="clippath-17">
      <rect class="st11" x="3.9" y="4.25" width="905.28" height="99.36"/>
    </clipPath>
    <clipPath id="clippath-18">
      <polygon class="st18" points="3.9 103.61 909.18 103.61 909.18 4.25 3.9 4.25 3.9 103.61 3.9 103.61"/>
    </clipPath>
    <clipPath id="clippath-19">
      <polygon class="st18" points="3.9 103.61 909.18 103.61 909.18 4.25 3.9 4.25 3.9 103.61 3.9 103.61"/>
    </clipPath>
    <clipPath id="clippath-20">
      <polygon class="st18" points="3.9 103.61 909.18 103.61 909.18 4.25 3.9 4.25 3.9 103.61 3.9 103.61"/>
    </clipPath>
    <clipPath id="clippath-21">
      <polygon class="st18" points="3.9 103.61 909.18 103.61 909.18 4.25 3.9 4.25 3.9 103.61 3.9 103.61"/>
    </clipPath>
    <clipPath id="clippath-22">
      <rect class="st11" x="3.9" y="4.25" width="905.28" height="99.36"/>
    </clipPath>
    <clipPath id="clippath-23">
      <polygon class="st18" points="3.9 103.61 909.18 103.61 909.18 4.25 3.9 4.25 3.9 103.61 3.9 103.61"/>
    </clipPath>
    <clipPath id="clippath-24">
      <polygon class="st18" points="3.9 103.61 909.18 103.61 909.18 4.25 3.9 4.25 3.9 103.61 3.9 103.61"/>
    </clipPath>
    <clipPath id="clippath-25">
      <polygon class="st19" points="791.7 50.81 835.62 50.81 835.62 94.73 791.7 94.73 791.7 50.81 791.7 50.81"/>
    </clipPath>
    <clipPath id="clippath-26">
      <polygon class="st11" points="791.7 94.73 835.62 94.73 835.62 50.81 791.7 50.81 791.7 94.73 791.7 94.73"/>
    </clipPath>
    <clipPath id="clippath-27">
      <polygon class="st18" points="3.9 103.61 909.18 103.61 909.18 4.25 3.9 4.25 3.9 103.61 3.9 103.61"/>
    </clipPath>
    <clipPath id="clippath-28">
      <polygon class="st18" points="3.9 103.61 909.18 103.61 909.18 4.25 3.9 4.25 3.9 103.61 3.9 103.61"/>
    </clipPath>
    <clipPath id="clippath-29">
      <polygon class="st7" points="403.86 51.29 447.9 51.29 447.9 95.21 403.86 95.21 403.86 51.29 403.86 51.29"/>
    </clipPath>
    <clipPath id="clippath-30">
      <polygon class="st11" points="403.86 95.21 447.9 95.21 447.9 51.29 403.86 51.29 403.86 95.21 403.86 95.21"/>
    </clipPath>
    <clipPath id="clippath-31">
      <polygon class="st18" points="3.9 103.61 909.18 103.61 909.18 4.25 3.9 4.25 3.9 103.61 3.9 103.61"/>
    </clipPath>
    <clipPath id="clippath-32">
      <polygon class="st18" points="3.9 103.61 909.18 103.61 909.18 4.25 3.9 4.25 3.9 103.61 3.9 103.61"/>
    </clipPath>
    <clipPath id="clippath-33">
      <polygon class="st16" points="560.46 46.61 614.94 46.61 614.94 101.09 560.46 101.09 560.46 46.61 560.46 46.61"/>
    </clipPath>
    <clipPath id="clippath-34">
      <polygon class="st11" points="560.46 101.09 614.94 101.09 614.94 46.61 560.46 46.61 560.46 101.09 560.46 101.09"/>
    </clipPath>
    <clipPath id="clippath-35">
      <polygon class="st18" points="3.9 103.61 909.18 103.61 909.18 4.25 3.9 4.25 3.9 103.61 3.9 103.61"/>
    </clipPath>
    <clipPath id="clippath-36">
      <polygon class="st18" points="3.9 103.61 909.18 103.61 909.18 4.25 3.9 4.25 3.9 103.61 3.9 103.61"/>
    </clipPath>
    <clipPath id="clippath-37">
      <polygon class="st25" points="243.42 49.49 283.86 49.49 283.86 92.33 243.42 92.33 243.42 49.49 243.42 49.49"/>
    </clipPath>
    <clipPath id="clippath-38">
      <polygon class="st11" points="243.42 92.33 283.86 92.33 283.86 49.49 243.42 49.49 243.42 92.33 243.42 92.33"/>
    </clipPath>
    <clipPath id="clippath-39">
      <polygon class="st18" points="3.9 103.61 909.18 103.61 909.18 4.25 3.9 4.25 3.9 103.61 3.9 103.61"/>
    </clipPath>
    <clipPath id="clippath-40">
      <polygon class="st18" points="3.9 103.61 909.18 103.61 909.18 4.25 3.9 4.25 3.9 103.61 3.9 103.61"/>
    </clipPath>
    <clipPath id="clippath-41">
      <polygon class="st26" points="414.9 58.97 437.22 58.97 437.22 80.57 414.9 80.57 414.9 58.97 414.9 58.97"/>
    </clipPath>
    <clipPath id="clippath-42">
      <polygon class="st11" points="414.9 80.57 437.22 80.57 437.22 58.97 414.9 58.97 414.9 80.57 414.9 80.57"/>
    </clipPath>
    <clipPath id="clippath-43">
      <polygon class="st18" points="3.9 103.61 909.18 103.61 909.18 4.25 3.9 4.25 3.9 103.61 3.9 103.61"/>
    </clipPath>
    <clipPath id="clippath-44">
      <polygon class="st18" points="3.9 103.61 909.18 103.61 909.18 4.25 3.9 4.25 3.9 103.61 3.9 103.61"/>
    </clipPath>
    <clipPath id="clippath-45">
      <polygon class="st20" points="59.82 45.65 111.06 45.65 111.06 96.89 59.82 96.89 59.82 45.65 59.82 45.65"/>
    </clipPath>
    <clipPath id="clippath-46">
      <polygon class="st11" points="59.82 96.89 111.06 96.89 111.06 45.65 59.82 45.65 59.82 96.89 59.82 96.89"/>
    </clipPath>
    <clipPath id="clippath-47">
      <polygon class="st18" points="3.9 491.34 909.18 491.34 909.18 101.1 3.9 101.1 3.9 491.34 3.9 491.34"/>
    </clipPath>
    <clipPath id="clippath-48">
      <polygon class="st18" points="3.9 491.34 909.18 491.34 909.18 101.1 3.9 101.1 3.9 491.34 3.9 491.34"/>
    </clipPath>
    <clipPath id="clippath-49">
      <polygon class="st18" points="17.89 241.36 875.17 241.36 875.17 143.08 17.89 143.08 17.89 241.36 17.89 241.36"/>
    </clipPath>
    <clipPath id="clippath-50">
      <rect class="st11" x="17.89" y="143.08" width="857.28" height="98.28"/>
    </clipPath>
    <clipPath id="clippath-51">
      <polygon class="st18" points="17.89 241.36 875.17 241.36 875.17 143.08 17.89 143.08 17.89 241.36 17.89 241.36"/>
    </clipPath>
    <clipPath id="clippath-52">
      <polygon class="st18" points="17.89 241.36 875.17 241.36 875.17 143.08 17.89 143.08 17.89 241.36 17.89 241.36"/>
    </clipPath>
    <clipPath id="clippath-53">
      <polygon class="st18" points="17.89 241.36 875.17 241.36 875.17 143.08 17.89 143.08 17.89 241.36 17.89 241.36"/>
    </clipPath>
    <clipPath id="clippath-54">
      <polygon class="st18" points="17.89 241.36 875.17 241.36 875.17 143.08 17.89 143.08 17.89 241.36 17.89 241.36"/>
    </clipPath>
    <clipPath id="clippath-55">
      <rect class="st11" x="17.89" y="143.08" width="857.28" height="98.28"/>
    </clipPath>
    <clipPath id="clippath-56">
      <polygon class="st18" points="17.89 241.36 875.17 241.36 875.17 143.08 17.89 143.08 17.89 241.36 17.89 241.36"/>
    </clipPath>
    <clipPath id="clippath-57">
      <rect class="st11" x="17.89" y="143.08" width="857.28" height="98.28"/>
    </clipPath>
    <clipPath id="clippath-58">
      <polygon class="st18" points="17.89 241.36 875.17 241.36 875.17 143.08 17.89 143.08 17.89 241.36 17.89 241.36"/>
    </clipPath>
    <clipPath id="clippath-59">
      <polygon class="st18" points="17.89 241.36 875.17 241.36 875.17 143.08 17.89 143.08 17.89 241.36 17.89 241.36"/>
    </clipPath>
    <clipPath id="clippath-60">
      <rect class="st11" x="17.89" y="143.08" width="857.28" height="98.28"/>
    </clipPath>
    <clipPath id="clippath-61">
      <polygon class="st18" points="17.89 241.36 875.17 241.36 875.17 143.08 17.89 143.08 17.89 241.36 17.89 241.36"/>
    </clipPath>
    <clipPath id="clippath-62">
      <rect class="st11" x="17.89" y="143.08" width="857.28" height="98.28"/>
    </clipPath>
    <clipPath id="clippath-63">
      <polygon class="st18" points="17.89 241.36 875.17 241.36 875.17 143.08 17.89 143.08 17.89 241.36 17.89 241.36"/>
    </clipPath>
    <clipPath id="clippath-64">
      <rect class="st11" x="17.89" y="143.08" width="857.28" height="98.28"/>
    </clipPath>
    <clipPath id="clippath-65">
      <polygon class="st18" points="17.89 241.36 875.17 241.36 875.17 143.08 17.89 143.08 17.89 241.36 17.89 241.36"/>
    </clipPath>
    <clipPath id="clippath-66">
      <rect class="st11" x="17.89" y="143.08" width="857.28" height="98.28"/>
    </clipPath>
    <clipPath id="clippath-67">
      <polygon class="st18" points="17.89 241.36 875.17 241.36 875.17 143.08 17.89 143.08 17.89 241.36 17.89 241.36"/>
    </clipPath>
    <clipPath id="clippath-68">
      <rect class="st11" x="17.89" y="143.08" width="857.28" height="98.28"/>
    </clipPath>
    <clipPath id="clippath-69">
      <polygon class="st18" points="17.89 241.36 875.17 241.36 875.17 143.08 17.89 143.08 17.89 241.36 17.89 241.36"/>
    </clipPath>
    <clipPath id="clippath-70">
      <rect class="st11" x="17.89" y="143.08" width="857.28" height="98.28"/>
    </clipPath>
    <clipPath id="clippath-71">
      <polygon class="st18" points="17.89 241.36 875.17 241.36 875.17 143.08 17.89 143.08 17.89 241.36 17.89 241.36"/>
    </clipPath>
    <clipPath id="clippath-72">
      <rect class="st11" x="17.89" y="143.08" width="857.28" height="98.28"/>
    </clipPath>
    <clipPath id="clippath-73">
      <polygon class="st18" points="17.89 241.36 875.17 241.36 875.17 143.08 17.89 143.08 17.89 241.36 17.89 241.36"/>
    </clipPath>
    <clipPath id="clippath-74">
      <polygon class="st18" points="16.46 335.49 876.62 335.49 876.62 217.53 16.46 217.53 16.46 335.49 16.46 335.49"/>
    </clipPath>
    <clipPath id="clippath-75">
      <rect class="st11" x="16.46" y="217.53" width="860.16" height="117.96"/>
    </clipPath>
    <clipPath id="clippath-76">
      <polygon class="st18" points="16.46 335.49 876.62 335.49 876.62 217.53 16.46 217.53 16.46 335.49 16.46 335.49"/>
    </clipPath>
    <clipPath id="clippath-77">
      <polygon class="st18" points="16.46 335.49 876.62 335.49 876.62 217.53 16.46 217.53 16.46 335.49 16.46 335.49"/>
    </clipPath>
    <clipPath id="clippath-78">
      <rect class="st11" x="16.46" y="217.53" width="860.16" height="117.96"/>
    </clipPath>
    <clipPath id="clippath-79">
      <polygon class="st18" points="16.46 335.49 876.62 335.49 876.62 217.53 16.46 217.53 16.46 335.49 16.46 335.49"/>
    </clipPath>
    <clipPath id="clippath-80">
      <polygon class="st18" points="16.46 335.49 876.62 335.49 876.62 217.53 16.46 217.53 16.46 335.49 16.46 335.49"/>
    </clipPath>
    <clipPath id="clippath-81">
      <rect class="st11" x="16.46" y="217.53" width="860.16" height="117.96"/>
    </clipPath>
    <clipPath id="clippath-82">
      <polygon class="st18" points="16.46 335.49 876.62 335.49 876.62 217.53 16.46 217.53 16.46 335.49 16.46 335.49"/>
    </clipPath>
    <clipPath id="clippath-83">
      <polygon class="st18" points="16.46 335.49 876.62 335.49 876.62 217.53 16.46 217.53 16.46 335.49 16.46 335.49"/>
    </clipPath>
    <clipPath id="clippath-84">
      <rect class="st11" x="16.46" y="217.53" width="860.16" height="117.96"/>
    </clipPath>
    <clipPath id="clippath-85">
      <polygon class="st18" points="16.46 335.49 876.62 335.49 876.62 217.53 16.46 217.53 16.46 335.49 16.46 335.49"/>
    </clipPath>
    <clipPath id="clippath-86">
      <rect class="st11" x="16.46" y="217.53" width="860.16" height="117.96"/>
    </clipPath>
    <clipPath id="clippath-87">
      <polygon class="st18" points="16.46 335.49 876.62 335.49 876.62 217.53 16.46 217.53 16.46 335.49 16.46 335.49"/>
    </clipPath>
    <clipPath id="clippath-88">
      <polygon class="st18" points="16.46 335.49 876.62 335.49 876.62 217.53 16.46 217.53 16.46 335.49 16.46 335.49"/>
    </clipPath>
    <clipPath id="clippath-89">
      <polygon class="st18" points="16.46 335.49 876.62 335.49 876.62 217.53 16.46 217.53 16.46 335.49 16.46 335.49"/>
    </clipPath>
    <clipPath id="clippath-90">
      <polygon class="st18" points="16.46 335.49 876.62 335.49 876.62 217.53 16.46 217.53 16.46 335.49 16.46 335.49"/>
    </clipPath>
    <clipPath id="clippath-91">
      <polygon class="st18" points="16.46 335.49 876.62 335.49 876.62 217.53 16.46 217.53 16.46 335.49 16.46 335.49"/>
    </clipPath>
    <clipPath id="clippath-92">
      <polygon class="st18" points="16.46 335.49 876.62 335.49 876.62 217.53 16.46 217.53 16.46 335.49 16.46 335.49"/>
    </clipPath>
    <clipPath id="clippath-93">
      <polygon class="st18" points="16.46 335.49 876.62 335.49 876.62 217.53 16.46 217.53 16.46 335.49 16.46 335.49"/>
    </clipPath>
    <clipPath id="clippath-94">
      <polygon class="st18" points="16.46 335.49 876.62 335.49 876.62 217.53 16.46 217.53 16.46 335.49 16.46 335.49"/>
    </clipPath>
    <clipPath id="clippath-95">
      <rect class="st11" x="16.46" y="217.53" width="860.16" height="117.96"/>
    </clipPath>
    <clipPath id="clippath-96">
      <polygon class="st18" points="16.46 335.49 876.62 335.49 876.62 217.53 16.46 217.53 16.46 335.49 16.46 335.49"/>
    </clipPath>
    <clipPath id="clippath-97">
      <polygon class="st18" points="16.46 335.49 876.62 335.49 876.62 217.53 16.46 217.53 16.46 335.49 16.46 335.49"/>
    </clipPath>
    <clipPath id="clippath-98">
      <polygon class="st18" points="16.46 335.49 876.62 335.49 876.62 217.53 16.46 217.53 16.46 335.49 16.46 335.49"/>
    </clipPath>
    <clipPath id="clippath-99">
      <polygon class="st18" points="16.46 335.49 876.62 335.49 876.62 217.53 16.46 217.53 16.46 335.49 16.46 335.49"/>
    </clipPath>
    <clipPath id="clippath-100">
      <polygon class="st18" points="16.46 335.49 876.62 335.49 876.62 217.53 16.46 217.53 16.46 335.49 16.46 335.49"/>
    </clipPath>
    <clipPath id="clippath-101">
      <polygon class="st18" points="16.46 335.49 876.62 335.49 876.62 217.53 16.46 217.53 16.46 335.49 16.46 335.49"/>
    </clipPath>
    <clipPath id="clippath-102">
      <polygon class="st18" points="16.46 335.49 876.62 335.49 876.62 217.53 16.46 217.53 16.46 335.49 16.46 335.49"/>
    </clipPath>
    <clipPath id="clippath-103">
      <rect class="st11" x="16.46" y="217.53" width="860.16" height="117.96"/>
    </clipPath>
    <clipPath id="clippath-104">
      <polygon class="st18" points="16.46 335.49 876.62 335.49 876.62 217.53 16.46 217.53 16.46 335.49 16.46 335.49"/>
    </clipPath>
    <clipPath id="clippath-105">
      <rect class="st11" x="16.46" y="217.53" width="860.16" height="117.96"/>
    </clipPath>
    <clipPath id="clippath-106">
      <polygon class="st18" points="16.46 335.49 876.62 335.49 876.62 217.53 16.46 217.53 16.46 335.49 16.46 335.49"/>
    </clipPath>
    <clipPath id="clippath-107">
      <rect class="st11" x="16.46" y="217.53" width="860.16" height="117.96"/>
    </clipPath>
    <clipPath id="clippath-108">
      <polygon class="st18" points="16.46 335.49 876.62 335.49 876.62 217.53 16.46 217.53 16.46 335.49 16.46 335.49"/>
    </clipPath>
    <clipPath id="clippath-109">
      <rect class="st11" x="16.46" y="217.53" width="860.16" height="117.96"/>
    </clipPath>
    <clipPath id="clippath-110">
      <polygon class="st18" points="16.46 335.49 876.62 335.49 876.62 217.53 16.46 217.53 16.46 335.49 16.46 335.49"/>
    </clipPath>
    <clipPath id="clippath-111">
      <rect class="st11" x="16.46" y="217.53" width="860.16" height="117.96"/>
    </clipPath>
    <clipPath id="clippath-112">
      <rect class="st11" x="654.9" y="212.99" width="113.28" height="59.04"/>
    </clipPath>
    <clipPath id="clippath-113">
      <polygon class="st18" points="654.9 272.03 768.18 272.03 768.18 212.99 654.9 212.99 654.9 272.03 654.9 272.03"/>
    </clipPath>
    <clipPath id="clippath-114">
      <rect class="st11" x="654.9" y="212.99" width="113.28" height="59.04"/>
    </clipPath>
    <clipPath id="clippath-115">
      <polygon class="st18" points="654.9 272.03 768.18 272.03 768.18 212.99 654.9 212.99 654.9 272.03 654.9 272.03"/>
    </clipPath>
    <clipPath id="clippath-116">
      <polygon class="st18" points="654.9 272.03 768.18 272.03 768.18 212.99 654.9 212.99 654.9 272.03 654.9 272.03"/>
    </clipPath>
    <clipPath id="clippath-117">
      <polygon class="st18" points="654.9 272.03 768.18 272.03 768.18 212.99 654.9 212.99 654.9 272.03 654.9 272.03"/>
    </clipPath>
    <clipPath id="clippath-118">
      <polygon class="st18" points="654.9 272.03 768.18 272.03 768.18 212.99 654.9 212.99 654.9 272.03 654.9 272.03"/>
    </clipPath>
    <clipPath id="clippath-119">
      <polygon class="st18" points="17.32 478.87 735.76 478.87 735.76 334.15 17.32 334.15 17.32 478.87 17.32 478.87"/>
    </clipPath>
    <clipPath id="clippath-120">
      <polygon class="st18" points="17.32 478.87 735.76 478.87 735.76 334.15 17.32 334.15 17.32 478.87 17.32 478.87"/>
    </clipPath>
    <clipPath id="clippath-121">
      <rect class="st11" x="17.32" y="334.15" width="718.44" height="144.72"/>
    </clipPath>
    <clipPath id="clippath-122">
      <polygon class="st18" points="17.32 478.87 735.76 478.87 735.76 334.15 17.32 334.15 17.32 478.87 17.32 478.87"/>
    </clipPath>
    <clipPath id="clippath-123">
      <rect class="st11" x="17.32" y="334.15" width="718.44" height="144.72"/>
    </clipPath>
    <clipPath id="clippath-124">
      <polygon class="st18" points="17.32 478.87 735.76 478.87 735.76 334.15 17.32 334.15 17.32 478.87 17.32 478.87"/>
    </clipPath>
    <clipPath id="clippath-125">
      <rect class="st11" x="17.32" y="334.15" width="718.44" height="144.72"/>
    </clipPath>
    <clipPath id="clippath-126">
      <polygon class="st18" points="17.32 478.87 735.76 478.87 735.76 334.15 17.32 334.15 17.32 478.87 17.32 478.87"/>
    </clipPath>
    <clipPath id="clippath-127">
      <polygon class="st18" points="17.32 478.87 735.76 478.87 735.76 334.15 17.32 334.15 17.32 478.87 17.32 478.87"/>
    </clipPath>
    <clipPath id="clippath-128">
      <polygon class="st18" points="17.32 478.87 735.76 478.87 735.76 334.15 17.32 334.15 17.32 478.87 17.32 478.87"/>
    </clipPath>
    <clipPath id="clippath-129">
      <polygon class="st18" points="17.32 478.87 735.76 478.87 735.76 334.15 17.32 334.15 17.32 478.87 17.32 478.87"/>
    </clipPath>
    <clipPath id="clippath-130">
      <polygon class="st18" points="17.32 478.87 735.76 478.87 735.76 334.15 17.32 334.15 17.32 478.87 17.32 478.87"/>
    </clipPath>
    <clipPath id="clippath-131">
      <rect class="st11" x="17.32" y="334.15" width="718.44" height="144.72"/>
    </clipPath>
    <clipPath id="clippath-132">
      <polygon class="st18" points="17.32 478.87 735.76 478.87 735.76 334.15 17.32 334.15 17.32 478.87 17.32 478.87"/>
    </clipPath>
    <clipPath id="clippath-133">
      <rect class="st11" x="17.32" y="334.15" width="718.44" height="144.72"/>
    </clipPath>
    <clipPath id="clippath-134">
      <polygon class="st18" points="17.32 478.87 735.76 478.87 735.76 334.15 17.32 334.15 17.32 478.87 17.32 478.87"/>
    </clipPath>
    <clipPath id="clippath-135">
      <polygon class="st18" points="17.32 478.87 735.76 478.87 735.76 334.15 17.32 334.15 17.32 478.87 17.32 478.87"/>
    </clipPath>
    <clipPath id="clippath-136">
      <polygon class="st14" points="225.28 334.15 294.64 334.15 294.64 402.79 225.28 402.79 225.28 334.15 225.28 334.15"/>
    </clipPath>
    <clipPath id="clippath-137">
      <polygon class="st11" points="225.28 402.79 294.64 402.79 294.64 334.15 225.28 334.15 225.28 402.79 225.28 402.79"/>
    </clipPath>
    <clipPath id="clippath-138">
      <polygon class="st18" points="17.32 478.87 735.76 478.87 735.76 334.15 17.32 334.15 17.32 478.87 17.32 478.87"/>
    </clipPath>
    <clipPath id="clippath-139">
      <polygon class="st18" points="17.32 478.87 735.76 478.87 735.76 334.15 17.32 334.15 17.32 478.87 17.32 478.87"/>
    </clipPath>
    <clipPath id="clippath-140">
      <polygon class="st12" points="225.88 410.35 295.24 410.35 295.24 478.87 225.88 478.87 225.88 410.35 225.88 410.35"/>
    </clipPath>
    <clipPath id="clippath-141">
      <polygon class="st11" points="225.88 478.87 295.24 478.87 295.24 410.35 225.88 410.35 225.88 478.87 225.88 478.87"/>
    </clipPath>
    <clipPath id="clippath-142">
      <polygon class="st18" points="17.32 478.87 735.76 478.87 735.76 334.15 17.32 334.15 17.32 478.87 17.32 478.87"/>
    </clipPath>
    <clipPath id="clippath-143">
      <polygon class="st18" points="17.32 478.87 735.76 478.87 735.76 334.15 17.32 334.15 17.32 478.87 17.32 478.87"/>
    </clipPath>
    <clipPath id="clippath-144">
      <polygon class="st21" points="665.8 371.59 734.68 371.59 734.68 439.75 665.8 439.75 665.8 371.59 665.8 371.59"/>
    </clipPath>
    <clipPath id="clippath-145">
      <polygon class="st11" points="665.8 439.75 734.68 439.75 734.68 371.59 665.8 371.59 665.8 439.75 665.8 439.75"/>
    </clipPath>
    <clipPath id="clippath-146">
      <polygon class="st18" points="17.32 478.87 735.76 478.87 735.76 334.15 17.32 334.15 17.32 478.87 17.32 478.87"/>
    </clipPath>
    <clipPath id="clippath-147">
      <polygon class="st18" points="17.32 478.87 735.76 478.87 735.76 334.15 17.32 334.15 17.32 478.87 17.32 478.87"/>
    </clipPath>
    <clipPath id="clippath-148">
      <polygon class="st8" points="398.68 334.63 467.56 334.63 467.56 402.79 398.68 402.79 398.68 334.63 398.68 334.63"/>
    </clipPath>
    <clipPath id="clippath-149">
      <polygon class="st11" points="398.68 402.79 467.56 402.79 467.56 334.63 398.68 334.63 398.68 402.79 398.68 402.79"/>
    </clipPath>
    <clipPath id="clippath-150">
      <polygon class="st18" points="17.32 478.87 735.76 478.87 735.76 334.15 17.32 334.15 17.32 478.87 17.32 478.87"/>
    </clipPath>
    <clipPath id="clippath-151">
      <polygon class="st18" points="17.32 478.87 735.76 478.87 735.76 334.15 17.32 334.15 17.32 478.87 17.32 478.87"/>
    </clipPath>
    <clipPath id="clippath-152">
      <polygon class="st10" points="397.96 410.35 467.2 410.35 467.2 478.87 397.96 478.87 397.96 410.35 397.96 410.35"/>
    </clipPath>
    <clipPath id="clippath-153">
      <polygon class="st11" points="397.96 478.87 467.2 478.87 467.2 410.35 397.96 410.35 397.96 478.87 397.96 478.87"/>
    </clipPath>
  </defs>
  <g>
    <rect class="st22" x="4.68" y="5.03" width="903.72" height="96" rx="16" ry="16"/>
    <g class="st172">
      <g class="st105">
        <text class="st94" transform="translate(21.62 44.83)"><tspan x="0" y="0">Control Condition </tspan></text>
      </g>
      <g class="st159">
        <path class="st53" d="M165.66,32.7c1,0,1.99.14,2.95.43l-.56,2.57h-1.15c-.02-.52-.07-.91-.16-1.18s-.23-.46-.41-.59-.44-.2-.76-.2c-.49,0-.98.19-1.46.58s-.92.97-1.33,1.75-.74,1.71-.98,2.77-.37,2.03-.37,2.88c0,.49.05.9.14,1.22s.25.57.47.75.54.26.94.26c.61,0,1.11-.15,1.52-.46s.76-.83,1.09-1.57h1.15l-.56,2.59c-.57.16-1.13.28-1.7.36s-1.17.11-1.81.11c-1.25,0-2.21-.34-2.87-1.02s-1-1.67-1-2.95c0-.49.05-1.05.16-1.68.17-1,.45-1.93.84-2.78s.89-1.56,1.48-2.14,1.26-1.01,2-1.29,1.54-.42,2.4-.42h0Z"/>
        <g class="st124">
          <polygon class="st23" points="161.22 49.46 206.16 49.46 206.16 42.17 220.74 56.75 206.16 71.33 206.16 64.04 161.22 64.04 161.22 49.46 161.22 49.46"/>
          <g class="st44">
            <g class="st116">
              <text class="st94" transform="translate(236.17 44.53)"><tspan x="0" y="0">Prompt</tspan></text>
            </g>
            <g class="st27">
              <polygon class="st23" points="301.98 48.47 346.98 48.47 346.98 41.21 361.5 55.73 346.98 70.25 346.98 62.99 301.98 62.99 301.98 48.47 301.98 48.47"/>
              <g class="st28">
                <g class="st119">
                  <text class="st94" transform="translate(372.54 44.53)"><tspan x="0" y="0">Modified Input</tspan></text>
                </g>
                <g class="st65">
                  <polygon class="st23" points="481.26 48.38 526.32 48.38 526.32 41.09 540.9 55.67 526.32 70.25 526.32 62.96 481.26 62.96 481.26 48.38 481.26 48.38"/>
                  <g class="st70">
                    <g class="st86">
                      <text class="st94" transform="translate(747.19 43.77)"><tspan x="0" y="0">Controlled Output</tspan></text>
                    </g>
                    <g class="st129">
                      <g class="st166">
                        <text class="st94" transform="translate(536.32 44.51)"><tspan x="0" y="0">Model</tspan></text>
                      </g>
                      <g class="st133">
                        <g class="st37">
                          <text class="st94" transform="translate(587.8 44.51)"><tspan x="0" y="0">I</tspan></text>
                        </g>
                        <g class="st157">
                          <g class="st29">
                            <text class="st94" transform="translate(593.81 44.51)"><tspan x="0" y="0">nference</tspan></text>
                          </g>
                          <g class="st42">
                            <polygon class="st23" points="657.18 46.07 702.3 46.07 702.3 38.81 716.82 53.33 702.3 67.85 702.3 60.59 657.18 60.59 657.18 46.07 657.18 46.07"/>
                            <g class="st138">
                              <path class="st22" d="M229.5,98.5"/>
                              <path class="st22" d="M229.08,5.75"/>
                              <g class="st117">
                                <line class="st22" x1="731.88" y1="4.71" x2="731.88" y2="100.71"/>
                                <g class="st6">
                                  <g class="st48">
                                    <text class="st94" transform="translate(293.04 30.78)"><tspan x="0" y="0">+ Context</tspan></text>
                                  </g>
                                  <g class="st56">
                                    <g class="st78">
                                      <g class="st126">
                                        <path class="st31" d="M806.01,82.22h14.99c.81,0,1.45.64,1.45,1.42s-.64,1.42-1.45,1.42h-14.99c-.8,0-1.45-.64-1.45-1.42s.65-1.42,1.45-1.42h0ZM806.01,75.11h10.63c.8,0,1.45.64,1.45,1.42s-.65,1.42-1.45,1.42h-10.63c-.8,0-1.45-.64-1.45-1.42s.65-1.42,1.45-1.42h0ZM806.01,68h14.99c.81,0,1.45.64,1.45,1.42s-.64,1.42-1.45,1.42h-14.99c-.8,0-1.45-.64-1.45-1.42s.65-1.42,1.45-1.42h0ZM806.01,60.88h7.72c.81,0,1.45.64,1.45,1.42s-.64,1.42-1.45,1.42h-7.72c-.8,0-1.45-.64-1.45-1.42s.65-1.42,1.45-1.42h0ZM824.14,55.09c-.09,0-.17.03-.23.09l-1.3,1.27c-.66.64-1.75.62-2.39,0l-1.28-1.25c-.06-.06-.14-.09-.22-.09s-.17.03-.23.09l-1.27,1.25c-.66.63-1.75.62-2.38,0l-1.16-1.13c-.12-.12-.33-.12-.45,0l-1.14,1.12c-.66.63-1.75.62-2.38,0l-1.16-1.13c-.13-.12-.32-.12-.45,0l-1.14,1.12c-.66.63-1.75.62-2.39,0l-1.15-1.13c-.06-.06-.14-.09-.22-.09s-.16.03-.23.09l-.89.87v33.27l.89.87c.13.12.33.12.45,0l1.14-1.12c.66-.64,1.75-.62,2.38-.01l1.16,1.13c.12.12.33.12.45,0l1.14-1.12c.66-.64,1.75-.62,2.38-.01l1.15,1.13c.12.12.33.12.45,0l1.14-1.12c.66-.64,1.75-.62,2.38-.01l1.29,1.27c.06.06.15.09.23.09s.16-.03.22-.09l1.28-1.25c.32-.31.74-.49,1.2-.49s.87.17,1.19.48l1.31,1.29c.06.06.14.09.23.09s.16-.03.22-.09l1.04-1.02v-33.27l-1.04-1.02c-.06-.06-.14-.09-.22-.09h0ZM824.12,51.64c.44,0,.88.15,1.21.46l2.35,2.3c.41.4.64.94.64,1.51v33.85c0,.57-.23,1.11-.64,1.51l-2.34,2.3c-.33.32-.75.48-1.2.48s-.89-.18-1.21-.49l-1.52-1.49-1.5,1.47c-.66.64-1.75.62-2.38.01l-1.52-1.49-1.37,1.34c-.66.63-1.75.62-2.38,0l-1.38-1.35-1.37,1.34c-.65.63-1.75.62-2.38,0l-1.38-1.35-1.37,1.34c-.66.63-1.75.62-2.38,0l-2.19-2.15c-.41-.4-.64-.94-.64-1.51v-33.85c0-.57.22-1.11.64-1.51l2.19-2.14c.65-.63,1.75-.62,2.38,0l1.37,1.35,1.37-1.34c.66-.63,1.75-.62,2.38,0l1.38,1.35,1.37-1.34c.65-.63,1.74-.62,2.38,0l1.37,1.35,1.5-1.47c.66-.64,1.75-.62,2.39-.01l1.51,1.49,1.53-1.5c.3-.31.74-.46,1.18-.46h0Z"/>
                                      </g>
                                    </g>
                                    <g class="st79">
                                      <g class="st160">
                                        <g class="st135">
                                          <path class="st50" d="M418.21,82.7h15.03c.81,0,1.46.64,1.46,1.42s-.65,1.42-1.46,1.42h-15.03c-.8,0-1.46-.64-1.46-1.42s.65-1.42,1.46-1.42h0ZM418.21,75.59h10.66c.8,0,1.46.64,1.46,1.42s-.65,1.42-1.46,1.42h-10.66c-.8,0-1.46-.64-1.46-1.42s.65-1.42,1.46-1.42h0ZM418.21,68.48h15.03c.81,0,1.46.64,1.46,1.42s-.65,1.42-1.46,1.42h-15.03c-.8,0-1.46-.64-1.46-1.42s.65-1.42,1.46-1.42h0ZM418.21,61.36h7.74c.81,0,1.46.64,1.46,1.42s-.65,1.42-1.46,1.42h-7.74c-.8,0-1.46-.64-1.46-1.42s.65-1.42,1.46-1.42h0ZM436.39,55.57c-.09,0-.17.03-.23.09l-1.3,1.27c-.66.64-1.76.62-2.4,0l-1.28-1.25c-.06-.06-.14-.09-.22-.09s-.17.03-.23.09l-1.28,1.25c-.66.63-1.75.62-2.39,0l-1.16-1.13c-.12-.12-.33-.12-.45,0l-1.15,1.12c-.66.63-1.75.62-2.39,0l-1.16-1.13c-.13-.12-.32-.12-.45,0l-1.15,1.12c-.66.63-1.75.62-2.4,0l-1.15-1.13c-.06-.06-.14-.09-.22-.09s-.16.03-.23.09l-.89.87v33.27l.89.87c.13.12.33.12.45,0l1.15-1.12c.66-.64,1.75-.62,2.39-.01l1.16,1.13c.12.12.33.12.45,0l1.15-1.12c.66-.64,1.75-.62,2.39-.01l1.15,1.13c.12.12.33.12.45,0l1.15-1.12c.66-.64,1.75-.62,2.39-.01l1.29,1.27c.06.06.15.09.23.09s.16-.03.22-.09l1.28-1.25c.32-.31.74-.49,1.2-.49s.87.17,1.19.48l1.31,1.29c.06.06.14.09.23.09s.16-.03.22-.09l1.05-1.02v-33.27l-1.05-1.02c-.06-.06-.14-.09-.22-.09h0ZM436.37,52.12c.44,0,.89.15,1.21.46l2.35,2.3c.41.4.65.94.65,1.51v33.85c0,.57-.23,1.11-.65,1.51l-2.34,2.3c-.33.32-.75.48-1.2.48s-.9-.18-1.21-.49l-1.52-1.49-1.51,1.47c-.66.64-1.75.62-2.39.01l-1.52-1.49-1.37,1.34c-.66.63-1.75.62-2.39,0l-1.38-1.35-1.38,1.34c-.65.63-1.75.62-2.39,0l-1.38-1.35-1.37,1.34c-.66.63-1.75.62-2.39,0l-2.2-2.15c-.41-.4-.64-.94-.64-1.51v-33.85c0-.57.22-1.11.64-1.51l2.19-2.14c.65-.63,1.75-.62,2.39,0l1.38,1.35,1.38-1.34c.66-.63,1.75-.62,2.39,0l1.38,1.35,1.38-1.34c.65-.63,1.75-.62,2.39,0l1.38,1.35,1.51-1.47c.66-.64,1.75-.62,2.4-.01l1.51,1.49,1.53-1.5c.3-.31.74-.46,1.18-.46h0Z"/>
                                        </g>
                                      </g>
                                      <g class="st33">
                                        <g class="st38">
                                          <g class="st2">
                                            <path class="st61" d="M597.14,87.55h-18.51c-2.32,0-4.21,1.88-4.21,4.21s1.88,4.21,4.21,4.21h18.51c2.32,0,4.21-1.88,4.21-4.21s-1.88-4.21-4.21-4.21h0ZM579.76,93.44c-.93,0-1.68-.75-1.68-1.68s.75-1.68,1.68-1.68,1.68.75,1.68,1.68-.75,1.68-1.68,1.68h0ZM587.89,93.44c-.93,0-1.68-.75-1.68-1.68s.75-1.68,1.68-1.68,1.68.75,1.68,1.68-.75,1.68-1.68,1.68h0ZM596.02,93.44c-.93,0-1.68-.75-1.68-1.68s.75-1.68,1.68-1.68,1.68.75,1.68,1.68-.75,1.68-1.68,1.68h0Z"/>
                                            <path class="st61" d="M591.77,62.87c0,.46-.38.84-.84.84s-.84-.38-.84-.84.38-.84.84-.84.84.38.84.84h0Z"/>
                                            <path class="st61" d="M592.76,57.27h-3.71v-2.55c1.07-.62,1.44-1.99.82-3.06s-1.99-1.44-3.06-.82c-1.07.62-1.44,1.99-.82,3.06.2.34.48.62.82.82v2.55h-3.71c-1.36,0-2.46,1.1-2.46,2.46v6.29c0,1.36,1.1,2.46,2.46,2.46h9.66c1.36,0,2.46-1.1,2.46-2.46v-6.29c0-1.36-1.1-2.46-2.46-2.46h0ZM585.13,64.56c-.93,0-1.68-.75-1.68-1.68s.75-1.68,1.68-1.68,1.68.75,1.68,1.68-.75,1.68-1.68,1.68h0ZM590.74,64.56c-.93,0-1.68-.75-1.68-1.68s.75-1.68,1.68-1.68,1.68.75,1.68,1.68-.75,1.68-1.68,1.68h0Z"/>
                                            <path class="st61" d="M586.16,62.87c0,.46-.38.84-.84.84s-.84-.38-.84-.84.38-.84.84-.84.84.38.84.84h0Z"/>
                                            <path class="st61" d="M602.52,80.16v-4.67c0-1.39-1.13-2.52-2.52-2.52h-3.09v-2.8h-17.95v3.36h-4.21c-.15,0-.27-.12-.27-.27v-4.65c1.93-.57,3.03-2.59,2.46-4.52-.15-.52-.42-.99-.78-1.4l-1.68,1.49c.24.26.37.59.38.94,0,.77-.64,1.4-1.41,1.39-.77,0-1.4-.64-1.39-1.41,0-.33.12-.66.34-.91l-1.68-1.47c-1.32,1.52-1.16,3.82.36,5.14.34.3.74.53,1.17.68v4.71c0,1.39,1.13,2.52,2.52,2.52h4.21v10.09h17.95v-10.66h3.09c.15,0,.27.12.27.27v4.67c-1.92.62-2.97,2.67-2.35,4.59.16.48.41.92.74,1.3l1.68-1.49c-.23-.25-.36-.59-.36-.93,0-.77.63-1.4,1.4-1.4.77,0,1.4.63,1.4,1.4,0,.34-.12.67-.35.92l1.68,1.47c1.33-1.51,1.18-3.81-.33-5.14-.37-.33-.81-.58-1.28-.73h0ZM594.67,78.02h-1.56c-.05,0-.11.03-.15.06l-1.72,1.76-1.31-3.1-2.44,5.05-1.71-6.57-1.32,2.8h-2.7v-1.12h1.99l2.33-4.96,1.73,6.61,2.19-4.49,1.62,3.82.56-.56c.25-.25.58-.4.93-.42h1.56v1.12h0Z"/>
                                          </g>
                                        </g>
                                        <g class="st100">
                                          <g class="st163">
                                            <g class="st5">
                                              <path class="st54" d="M248.74,96.85h29.22c1.57,0,2.83,1.24,2.83,2.77s-1.26,2.77-2.83,2.77h-29.22c-1.56,0-2.83-1.24-2.83-2.77s1.27-2.77,2.83-2.77h0ZM248.73,82.98h20.72c1.56,0,2.83,1.24,2.83,2.77s-1.27,2.77-2.83,2.77h-20.72c-1.56,0-2.83-1.24-2.83-2.77s1.27-2.77,2.83-2.77h0ZM248.74,69.11h29.22c1.57,0,2.83,1.24,2.83,2.77s-1.26,2.77-2.83,2.77h-29.22c-1.56,0-2.83-1.24-2.83-2.77s1.27-2.77,2.83-2.77h0ZM248.74,55.23h15.05c1.57,0,2.83,1.24,2.83,2.77s-1.26,2.77-2.83,2.77h-15.05c-1.56,0-2.83-1.24-2.83-2.77s1.27-2.77,2.83-2.77h0ZM284.07,43.94c-.17,0-.33.06-.45.18l-2.54,2.48c-1.28,1.24-3.42,1.22-4.66,0l-2.5-2.45c-.11-.11-.27-.18-.44-.18s-.33.06-.45.18l-2.48,2.45c-1.28,1.23-3.41,1.22-4.65.01l-2.25-2.2c-.24-.24-.64-.24-.88,0l-2.23,2.18c-1.28,1.23-3.41,1.22-4.65.01l-2.25-2.2c-.24-.24-.63-.24-.87,0l-2.23,2.18c-1.28,1.23-3.41,1.22-4.66.01l-2.24-2.2c-.11-.11-.27-.18-.44-.18s-.32.06-.45.18l-1.73,1.69v64.89l1.73,1.69c.24.24.64.24.88,0l2.23-2.18c1.28-1.24,3.41-1.22,4.65-.02l2.25,2.21c.24.24.64.24.88,0l2.23-2.18c1.28-1.24,3.41-1.22,4.65-.02l2.24,2.21c.24.24.64.24.88,0l2.23-2.18c1.28-1.24,3.41-1.22,4.65-.02l2.51,2.47c.12.11.28.18.45.18s.32-.06.44-.18l2.5-2.45c.61-.61,1.45-.95,2.33-.95s1.69.34,2.32.93l2.55,2.51c.11.11.28.18.45.18s.32-.06.44-.18l2.04-1.99V46.11l-2.04-1.99c-.12-.11-.27-.18-.44-.18h0ZM284.03,37.21c.86,0,1.72.29,2.35.89l4.57,4.49c.81.78,1.25,1.83,1.25,2.95v66.02c0,1.12-.45,2.17-1.25,2.95l-4.56,4.48c-.64.62-1.46.94-2.33.94s-1.74-.35-2.36-.97l-2.96-2.9-2.93,2.87c-1.28,1.24-3.41,1.22-4.65.03l-2.96-2.9-2.66,2.62c-1.28,1.23-3.41,1.22-4.65.01l-2.69-2.63-2.68,2.62c-1.27,1.23-3.41,1.22-4.65.01l-2.69-2.63-2.66,2.62c-1.28,1.23-3.41,1.22-4.65.01l-4.28-4.19c-.81-.78-1.24-1.83-1.24-2.95V45.55c0-1.12.44-2.17,1.24-2.95l4.26-4.18c1.27-1.23,3.41-1.22,4.65-.01l2.68,2.63,2.68-2.62c1.28-1.23,3.41-1.22,4.65-.01l2.69,2.63,2.68-2.62c1.27-1.23,3.39-1.22,4.65-.01l2.68,2.63,2.93-2.87c1.28-1.24,3.41-1.22,4.66-.03l2.94,2.9,2.98-2.92c.59-.6,1.44-.9,2.3-.9h0Z"/>
                                            </g>
                                          </g>
                                          <g class="st152">
                                            <g class="st121">
                                              <g class="st71">
                                                <path class="st54" d="M417.83,82.85h16.12c.87,0,1.56.63,1.56,1.4s-.69,1.4-1.56,1.4h-16.12c-.86,0-1.56-.63-1.56-1.4s.7-1.4,1.56-1.4h0ZM417.83,75.86h11.44c.86,0,1.56.63,1.56,1.4s-.7,1.4-1.56,1.4h-11.44c-.86,0-1.56-.63-1.56-1.4s.7-1.4,1.56-1.4h0ZM417.83,68.86h16.12c.87,0,1.56.63,1.56,1.4s-.69,1.4-1.56,1.4h-16.12c-.86,0-1.56-.63-1.56-1.4s.7-1.4,1.56-1.4h0ZM417.83,61.87h8.31c.87,0,1.56.63,1.56,1.4s-.69,1.4-1.56,1.4h-8.31c-.86,0-1.56-.63-1.56-1.4s.7-1.4,1.56-1.4h0ZM437.33,56.17c-.09,0-.18.03-.25.09l-1.4,1.25c-.71.63-1.89.61-2.57,0l-1.38-1.23c-.06-.06-.15-.09-.24-.09s-.18.03-.25.09l-1.37,1.23c-.71.62-1.88.61-2.57,0l-1.24-1.11c-.13-.12-.35-.12-.49,0l-1.23,1.1c-.71.62-1.88.61-2.57,0l-1.24-1.11c-.13-.12-.35-.12-.48,0l-1.23,1.1c-.71.62-1.88.61-2.57,0l-1.24-1.11c-.06-.06-.15-.09-.24-.09s-.18.03-.25.09l-.95.85v32.72l.95.85c.13.12.35.12.49,0l1.23-1.1c.71-.63,1.88-.61,2.57-.01l1.24,1.11c.13.12.35.12.49,0l1.23-1.1c.71-.63,1.88-.61,2.57-.01l1.24,1.11c.13.12.35.12.49,0l1.23-1.1c.71-.63,1.88-.61,2.57-.01l1.38,1.25c.06.06.16.09.25.09s.18-.03.24-.09l1.38-1.23c.34-.31.8-.48,1.29-.48s.93.17,1.28.47l1.41,1.26c.06.06.16.09.25.09s.18-.03.24-.09l1.12-1.01v-32.72l-1.12-1.01c-.06-.06-.15-.09-.24-.09h0ZM437.31,52.78c.47,0,.95.15,1.3.45l2.52,2.26c.44.39.69.92.69,1.49v33.29c0,.56-.25,1.09-.69,1.49l-2.52,2.26c-.35.31-.81.47-1.29.47s-.96-.18-1.3-.49l-1.63-1.46-1.62,1.45c-.71.63-1.88.61-2.57.01l-1.63-1.46-1.47,1.32c-.71.62-1.88.61-2.57,0l-1.48-1.33-1.48,1.32c-.7.62-1.88.61-2.57,0l-1.48-1.33-1.47,1.32c-.71.62-1.88.61-2.57,0l-2.36-2.11c-.44-.39-.69-.92-.69-1.49v-33.29c0-.56.24-1.09.69-1.49l2.35-2.11c.7-.62,1.88-.61,2.57,0l1.48,1.33,1.48-1.32c.71-.62,1.88-.61,2.57,0l1.48,1.33,1.48-1.32c.7-.62,1.87-.61,2.57,0l1.48,1.33,1.62-1.45c.71-.63,1.88-.61,2.57-.01l1.63,1.46,1.65-1.47c.33-.3.79-.45,1.27-.46h0Z"/>
                                              </g>
                                            </g>
                                            <g class="st75">
                                              <g class="st110">
                                                <g class="st114">
                                                  <path class="st50" d="M81.24,58.69c-.67-.43-1.51-.62-2.35-.44-.84.18-1.53.68-1.97,1.35-.43.67-.62,1.5-.44,2.35.18.84.68,1.54,1.35,1.97.67.43,1.51.61,2.35.43.84-.18,1.54-.68,1.97-1.35.44-.67.62-1.5.44-2.35-.18-.85-.68-1.54-1.35-1.97h0ZM79.72,55.99l-.64-1.56-1.82.39.04,1.67c-.09.04-.17.09-.26.13l-1.34-1.03-1.39,1.25.87,1.42s-.07.1-.11.16c-.02.03-.04.05-.05.08l-1.67-.22-.58,1.77,1.47.79c-.01.1-.02.2-.02.29l-1.56.64.39,1.82,1.67-.04c.04.09.08.17.13.26l-1.03,1.34,1.25,1.38,1.42-.87c.05.03.11.07.16.11.03.02.05.03.08.05l-.22,1.68,1.77.58.8-1.47c.09.01.19.02.29.02l.64,1.56,1.82-.39-.04-1.66c.09-.04.18-.09.26-.13l1.34,1.03,1.38-1.24-.87-1.42c.04-.05.07-.11.11-.16.02-.03.04-.05.05-.08l1.68.22.58-1.77-1.46-.8c0-.09.01-.19.02-.29l1.56-.65-.39-1.82-1.67.04c-.04-.09-.08-.17-.13-.26l1.03-1.34-1.24-1.39-1.42.87c-.05-.04-.1-.08-.16-.11-.03-.02-.06-.04-.08-.05l.22-1.67-1.77-.58-.8,1.47c-.1-.01-.2-.02-.29-.02h0ZM89.92,54.09c-.39-.26-.88-.36-1.38-.26-.49.1-.9.4-1.15.79-.26.39-.36.88-.26,1.38.11.49.4.9.79,1.15.39.26.88.36,1.38.26.49-.11.9-.4,1.15-.79.26-.4.36-.88.26-1.38-.11-.49-.4-.9-.79-1.16h0ZM89.03,52.51l-.38-.92-1.07.23.02.98c-.05.02-.1.05-.15.08l-.78-.6-.81.73.51.84s-.04.06-.07.09c-.01.02-.02.03-.03.05l-.98-.13-.34,1.04.86.47c0,.06-.01.11-.01.17l-.92.37.23,1.07.98-.02s.05.1.08.15l-.6.78.73.81.84-.51s.06.04.09.07c.02.01.03.02.05.03l-.13.98,1.04.34.47-.86c.06,0,.11.01.17.01l.38.92,1.07-.23-.02-.98c.05-.02.1-.05.15-.08l.78.61.81-.73-.51-.84s.04-.06.07-.09c.01-.02.02-.03.03-.05l.98.13.34-1.04-.86-.47c0-.05,0-.11,0-.17l.92-.38-.23-1.07-.98.03c-.02-.05-.05-.1-.08-.15l.61-.79-.73-.81-.83.52s-.06-.04-.09-.07c-.02-.01-.03-.02-.05-.03l.13-.98-1.04-.34-.47.86c-.06,0-.11-.01-.17-.01h0ZM90.03,65.14c-.39-.26-.88-.36-1.38-.26-.5.1-.9.4-1.16.79-.26.39-.36.88-.26,1.38.11.49.4.9.79,1.16.39.26.88.36,1.38.26.49-.1.9-.4,1.15-.79.26-.39.36-.88.26-1.38-.11-.49-.4-.9-.79-1.16h0ZM89.14,63.55l-.38-.91-1.07.22.02.98c-.05.03-.1.05-.15.08l-.78-.61-.81.73.51.84s-.04.07-.06.1c-.01.01-.02.03-.03.04l-.98-.13-.34,1.04.86.47c0,.05,0,.11-.01.17l-.92.38.23,1.07.98-.03s.05.1.08.15l-.61.79.73.81.84-.51s.06.04.09.07c.02.01.03.02.05.03l-.13.98,1.04.34.47-.86c.06,0,.11,0,.17.01l.38.91,1.07-.22-.02-.98c.05-.03.1-.05.15-.08l.78.6.81-.73-.51-.83s.04-.07.06-.09c.01-.02.02-.03.03-.05l.98.13.34-1.04-.86-.47c0-.05,0-.11,0-.17l.92-.38-.23-1.07-.97.03s-.05-.1-.08-.15l.61-.79-.73-.81-.83.51s-.06-.04-.1-.07c-.02-.01-.03-.02-.05-.03l.13-.99-1.04-.34-.47.86c-.06,0-.11,0-.17-.01h0ZM79.79,69.97c-.22-.15-.49-.2-.77-.15-.28.06-.5.23-.65.45-.14.22-.2.49-.14.77.06.28.22.5.44.65.22.14.49.2.77.14.27-.05.5-.22.64-.44.14-.22.2-.49.14-.77-.06-.28-.22-.51-.44-.65h0ZM79.3,69.08l-.21-.51-.59.12v.55s-.04.02-.07.04l-.44-.34-.45.41.28.47s-.02.03-.04.05c0,0-.01.02-.02.03l-.55-.08-.19.58.48.26s0,.06,0,.09l-.51.21.13.6.55-.02s.03.06.04.09l-.34.44.41.45.47-.28s.03.02.05.03c0,0,.02.02.03.02l-.07.55.58.19.26-.48s.07,0,.1,0l.21.51.6-.12v-.54s.04-.03.07-.04l.44.34.45-.41-.29-.47s.02-.03.04-.05c0,0,.01-.02.02-.03l.55.08.19-.58-.48-.26s0-.06,0-.09l.51-.21-.12-.6-.55.02s-.03-.06-.04-.09l.34-.44-.41-.45-.46.28s-.04-.02-.05-.03c-.01,0-.02-.01-.03-.02l.07-.54-.58-.19-.26.48s-.06,0-.1,0h0ZM76.36,93.89c.55-3.74.53-7.68-.47-11.19-15.69-8.83-9.97-28.28,3.23-32.39,6.92-2.76,15.42-2.06,21.58,4.09,4.47,4.47,2.32,5.63,2.32,5.63l-.98.54c.54,2.13,1.5,6.06,1.38,6.6-.17.74-.99,1.48-.99,1.48l2.23,7.5-1.98.84c.44,2.4.69,4.4.46,6.78-.04.42-1.38,1.6-2.47,1.66l-6.71.43.44,8.04h-18.03"/>
                                                </g>
                                              </g>
                                            </g>
                                          </g>
                                        </g>
                                      </g>
                                    </g>
                                  </g>
                                </g>
                              </g>
                            </g>
                          </g>
                        </g>
                      </g>
                    </g>
                  </g>
                </g>
              </g>
            </g>
          </g>
        </g>
      </g>
    </g>
  </g>
  <line class="st22" x1="226.5" y1="5.57" x2="226.5" y2="100.87"/>
  <g>
    <rect class="st22" x="4.68" y="122.52" width="903.72" height="368.04" rx="61.34" ry="61.34"/>
    <g class="st43">
      <line class="st22" x1="226.5" y1="100.5" x2="55.5" y2="122.5"/>
      <g class="st102">
        <line class="st22" x1="731.5" y1="101.5" x2="857.5" y2="123.5"/>
      </g>
    </g>
  </g>
  <g>
    <rect class="st30" x="480.49" y="144.88" width="119.16" height="48.12" rx="8.02" ry="8.02"/>
    <rect class="st17" x="480.49" y="144.88" width="119.16" height="48.12" rx="8.02" ry="8.02"/>
    <g class="st162">
      <g class="st130">
        <text class="st90" transform="translate(514.08 175.58)"><tspan x="0" y="0">MUSE</tspan></text>
      </g>
      <g class="st1">
        <line class="st15" x1="445.87" y1="169.78" x2="476.46" y2="169.78"/>
        <polygon class="st51" points="475.34 166.4 482.09 169.78 475.34 173.15 475.34 166.4 475.34 166.4"/>
        <g class="st120">
          <line class="st15" x1="600.31" y1="169.78" x2="632.94" y2="170.15"/>
          <polygon class="st51" points="631.85 166.76 638.57 170.21 631.78 173.51 631.85 166.76 631.85 166.76"/>
          <g class="st151">
            <polygon class="st23" points="209.65 155.92 445.81 155.92 445.81 183.4 209.65 183.4 209.65 155.92 209.65 155.92"/>
            <g class="st59">
              <g class="st146">
                <text class="st94" transform="translate(230.12 176.27)"><tspan x="0" y="0">The manager </tspan></text>
              </g>
              <g class="st106">
                <g class="st87">
                  <text class="st92" transform="translate(329.12 176.27)"><tspan x="0" y="0">is a complete</tspan></text>
                </g>
                <g class="st164">
                  <polygon class="st23" points="638.53 156.4 874.69 156.4 874.69 183.88 638.53 183.88 638.53 156.4 638.53 156.4"/>
                  <g class="st73">
                    <g class="st83">
                      <text class="st94" transform="translate(668.1 176.7)"><tspan x="0" y="0">The manager </tspan></text>
                    </g>
                    <g class="st39">
                      <g class="st179">
                        <text class="st92" transform="translate(767.1 176.7)"><tspan x="0" y="0">might be a</tspan></text>
                      </g>
                      <g class="st170">
                        <g class="st76">
                          <text class="st91" transform="translate(27.52 163.38)"><tspan x="0" y="0">Context</tspan></text>
                        </g>
                        <g class="st176">
                          <g class="st60">
                            <text class="st91" transform="translate(81.64 163.38)"><tspan x="0" y="0">-</tspan></text>
                          </g>
                          <g class="st122">
                            <g class="st174">
                              <text class="st91" transform="translate(86.92 163.38)"><tspan x="0" y="0">Aware</tspan></text>
                            </g>
                            <g class="st180">
                              <g class="st69">
                                <text class="st91" transform="translate(27.52 182.58)"><tspan x="0" y="0">Optimization</tspan></text>
                              </g>
                              <g class="st45">
                                <g class="st142">
                                  <text class="st91" transform="translate(122.56 182.58)"><tspan x="0" y="0">(CAO)</tspan></text>
                                </g>
                                <g class="st150">
                                  <polyline class="st9" points="756.64 183.94 756.64 209.15 330.67 209.15 330.67 228.73"/>
                                  <polygon class="st52" points="334.04 227.61 330.67 234.36 327.29 227.61 334.04 227.61 334.04 227.61"/>
                                </g>
                              </g>
                            </g>
                          </g>
                        </g>
                      </g>
                    </g>
                  </g>
                </g>
              </g>
            </g>
          </g>
        </g>
      </g>
    </g>
  </g>
  <g>
    <polygon class="st23" points="211.22 235.05 447.26 235.05 447.26 262.53 211.22 262.53 211.22 235.05 211.22 235.05"/>
    <g class="st123">
      <g class="st36">
        <text class="st94" transform="translate(241.67 255.38)"><tspan x="0" y="0">The manager might be a</tspan></text>
      </g>
      <g class="st0">
        <polygon class="st23" points="210.5 296.01 446.54 296.01 446.54 323.49 210.5 323.49 210.5 296.01 210.5 296.01"/>
        <g class="st137">
          <g class="st141">
            <text class="st94" transform="translate(241.01 316.36)"><tspan x="0" y="0">The manager might be a</tspan></text>
          </g>
          <g class="st34">
            <polygon class="st24" points="56.66 296.49 182.54 296.49 182.54 323.97 56.66 323.97 56.66 296.49 56.66 296.49"/>
            <g class="st32">
              <g class="st154">
                <text class="st93" transform="translate(65.45 316.79)"><tspan x="0" y="0">[ toxic prefix ]</tspan></text>
              </g>
              <g class="st58">
                <rect class="st131" x="480.92" y="223.47" width="117.36" height="110.88" rx="18.48" ry="18.48"/>
                <rect class="st13" x="480.92" y="223.47" width="117.36" height="110.88" rx="18.48" ry="18.48"/>
                <g class="st175">
                  <g class="st144">
                    <text class="st89" transform="translate(501.5 274.6)"><tspan x="0" y="0">Language</tspan></text>
                  </g>
                  <g class="st96">
                    <g class="st168">
                      <text class="st89" transform="translate(514.95 296.2)"><tspan x="0" y="0">Model</tspan></text>
                    </g>
                    <g class="st173">
                      <line class="st15" x1="447.68" y1="248.91" x2="475.65" y2="248.91"/>
                      <polygon class="st51" points="474.53 245.54 481.28 248.91 474.53 252.29 474.53 245.54 474.53 245.54"/>
                      <g class="st88">
                        <line class="st15" x1="446.6" y1="309.63" x2="474.57" y2="309.63"/>
                        <polygon class="st51" points="473.45 306.26 480.2 309.63 473.45 313.01 473.45 306.26 473.45 306.26"/>
                        <g class="st113">
                          <line class="st15" x1="182.6" y1="310.23" x2="209.97" y2="310.23"/>
                          <g class="st109">
                            <line class="st15" x1="599.36" y1="257.19" x2="609.9" y2="257.19"/>
                            <polygon class="st51" points="608.78 253.82 615.53 257.19 608.77 260.57 608.78 253.82 608.78 253.82"/>
                            <g class="st127">
                              <line class="st15" x1="600.08" y1="309.67" x2="610.71" y2="309.57"/>
                              <polygon class="st51" points="609.61 312.95 616.33 309.51 609.55 306.2 609.61 312.95 609.61 312.95"/>
                              <g class="st99">
                                <polyline class="st15" points="644 257.19 659.65 257.19 659.65 279.58 669.68 279.58"/>
                                <polygon class="st51" points="668.56 276.21 675.31 279.58 668.56 282.96 668.56 276.21 668.56 276.21"/>
                                <g class="st85">
                                  <polyline class="st15" points="645.2 308.3 659.73 308.3 659.73 279.51 669.52 279.51"/>
                                  <polygon class="st51" points="668.39 282.89 675.14 279.51 668.39 276.14 668.39 282.89 668.39 282.89"/>
                                  <g class="st171">
                                    <g class="st118">
                                      <text class="st95" transform="translate(682.43 285.49)"><tspan x="0" y="0">⊗</tspan></text>
                                    </g>
                                    <g class="st115">
                                      <line class="st15" x1="699.08" y1="281.07" x2="727.05" y2="281.07"/>
                                      <polygon class="st51" points="725.93 277.7 732.68 281.07 725.93 284.45 725.93 277.7 725.93 277.7"/>
                                      <g class="st134">
                                        <line class="st15" x1="773.96" y1="282.51" x2="801.93" y2="282.51"/>
                                        <polygon class="st51" points="800.81 279.14 807.56 282.51 800.81 285.89 800.81 279.14 800.81 279.14"/>
                                        <g class="st101">
                                          <path class="st53" d="M629.28,248.61c-.56,0-1.16.01-1.77.04l-1.86,8.27h1.42c1.1,0,1.99-.11,2.67-.34.68-.23,1.23-.58,1.67-1.06.43-.48.77-1.04,1-1.7.24-.66.35-1.37.35-2.16,0-1.06-.27-1.83-.81-2.32-.54-.49-1.43-.74-2.68-.74h0ZM623.56,247.4h6.02c1.08,0,1.97.08,2.67.25.7.17,1.27.43,1.72.78.45.35.79.79,1.01,1.33.22.54.33,1.16.33,1.87,0,1.37-.32,2.55-.97,3.55-.65,1-1.52,1.74-2.63,2.21-1.11.47-2.43.71-3.98.71-.93,0-1.7-.02-2.32-.05l-.87,4.01c-.08.37-.14.66-.17.86s-.06.42-.08.65c-.02.23-.03.44-.03.62,0,.28.05.5.14.66.09.16.23.28.41.35.18.07.5.13.94.16l-.15.67h-5.61l.15-.67c.35-.05.61-.14.78-.27s.32-.29.44-.51c.12-.22.23-.48.33-.8.1-.31.25-.92.45-1.82l2.32-10.51c.2-.91.3-1.63.3-2.16,0-.45-.1-.76-.31-.93-.21-.17-.55-.27-1.02-.3l.15-.67Z"/>
                                          <g class="st112">
                                            <path class="st53" d="M637.91,262.62c-.37,0-.72.08-1.05.25-.33.17-.62.4-.9.69-.27.29-.52.64-.73,1.04s-.4.83-.55,1.28-.26.94-.34,1.43c-.08.5-.12,1-.12,1.49,0,.76.16,1.33.47,1.69.32.36.8.54,1.44.54.36,0,.7-.09,1.02-.26.32-.18.61-.41.88-.71s.5-.65.71-1.05c.21-.4.39-.83.53-1.29.15-.46.26-.93.33-1.42s.11-.96.11-1.43c0-.74-.15-1.3-.44-1.68s-.75-.57-1.37-.57h0ZM638.1,261.63c.6,0,1.12.1,1.57.29.45.19.82.45,1.12.78.3.33.52.72.67,1.16.15.44.22.92.22,1.42,0,1.01-.15,1.92-.45,2.74s-.71,1.52-1.24,2.11c-.53.59-1.15,1.04-1.86,1.36s-1.49.48-2.33.48c-.55,0-1.05-.08-1.48-.25-.44-.17-.81-.41-1.12-.72-.31-.31-.54-.69-.7-1.13-.16-.44-.24-.94-.24-1.5,0-.94.15-1.82.44-2.64.3-.82.7-1.53,1.23-2.14s1.14-1.09,1.85-1.44c.71-.35,1.48-.53,2.32-.53h0Z"/>
                                            <g class="st41">
                                              <path class="st53" d="M741.4,272.52c-.48,0-.99.01-1.52.04l-1.59,7.1h1.22c.95,0,1.71-.1,2.29-.29s1.06-.5,1.43-.91.66-.9.86-1.46.3-1.18.3-1.85c0-.91-.23-1.57-.69-1.99s-1.23-.63-2.3-.63h0ZM736.49,271.49h5.17c.93,0,1.69.07,2.29.22s1.09.37,1.48.67.68.68.87,1.14.29,1,.29,1.61c0,1.17-.28,2.19-.83,3.05s-1.31,1.49-2.26,1.9-2.09.61-3.42.61c-.8,0-1.46-.02-1.99-.05l-.75,3.45c-.07.32-.12.57-.15.74s-.05.36-.07.56-.03.38-.03.53c0,.24.04.43.12.57s.2.24.35.3.43.11.81.14l-.13.57h-4.82l.13-.57c.3-.05.52-.12.67-.23s.27-.25.38-.44.2-.42.28-.69.21-.79.39-1.56l1.99-9.02c.17-.78.26-1.4.26-1.85,0-.38-.09-.65-.27-.8s-.47-.23-.88-.26l.13-.57Z"/>
                                              <g class="st77">
                                                <path class="st53" d="M762.54,283.68c.41,0,.74.14.98.41.25.28.37.65.37,1.11,0,.25-.02.53-.07.84s-.12.65-.23,1.04c-.22.78-.39,1.47-.51,2.05-.13.59-.19,1.02-.19,1.29,0,.34.07.6.2.77.13.17.35.25.65.25.27,0,.55-.1.86-.3.31-.2.6-.46.88-.77.28-.32.53-.67.75-1.06.22-.39.38-.78.48-1.16l.94-4.29h1.69l-1.32,5.59c-.07.29-.12.55-.15.78-.03.23-.04.42-.04.58,0,.22.04.37.12.47.08.1.21.15.38.15.11,0,.21-.02.32-.06s.21-.1.33-.19c.12-.09.24-.2.38-.33.14-.13.29-.3.46-.48l.59.56c-.29.29-.55.54-.79.75-.24.21-.47.38-.68.51-.22.13-.43.23-.65.29s-.43.09-.66.09c-.41,0-.73-.13-.96-.4-.23-.27-.35-.63-.35-1.09,0-.12,0-.24.03-.36.02-.12.05-.24.09-.35l-.1-.03c-.56.75-1.11,1.31-1.65,1.68-.53.37-1.09.56-1.66.56-.6,0-1.06-.16-1.36-.48s-.46-.78-.46-1.38c0-.15.03-.37.08-.64.05-.27.12-.58.2-.92s.17-.69.26-1.06.18-.72.26-1.06c.08-.34.15-.65.2-.92.05-.28.08-.49.08-.65,0-.42-.17-.62-.51-.62-.11,0-.21.02-.32.06-.1.04-.21.11-.33.19-.12.09-.24.19-.38.33-.14.13-.29.29-.46.46l-.58-.56c.31-.31.58-.57.83-.78.24-.21.47-.38.69-.51.22-.13.43-.22.64-.28.21-.06.44-.09.68-.09h0ZM746.06,283.68c.42,0,.75.14.98.41.23.28.35.64.35,1.09,0,.13,0,.25-.03.37-.02.12-.05.24-.09.35l.1.04c.54-.76,1.08-1.33,1.63-1.7s1.1-.56,1.67-.56c.6,0,1.06.16,1.36.47.3.31.45.77.45,1.37v.15s0,.1-.02.15h.03c.53-.72,1.06-1.26,1.58-1.61.52-.35,1.07-.53,1.64-.53.6,0,1.06.16,1.36.49s.45.78.45,1.37c0,.18-.03.41-.09.71-.06.3-.13.63-.21.99s-.17.73-.27,1.12c-.1.38-.19.75-.27,1.09-.05.22-.09.4-.12.54-.03.14-.06.26-.07.35s-.03.18-.03.24c0,.07,0,.14,0,.22,0,.22.04.37.12.47.08.1.21.15.38.15.1,0,.21-.02.31-.06.1-.04.21-.1.33-.19.12-.09.25-.2.38-.33.14-.13.3-.3.47-.48l.59.56c-.27.29-.53.53-.77.74-.24.21-.46.38-.68.51-.22.13-.44.23-.65.3-.22.07-.44.1-.68.1-.22,0-.41-.04-.59-.12-.18-.08-.33-.19-.45-.33-.12-.14-.22-.31-.29-.5-.07-.19-.1-.4-.1-.63,0-.47.1-1.07.3-1.8.11-.37.21-.73.3-1.07.09-.34.16-.65.23-.94s.11-.54.15-.77.06-.41.06-.56c0-.35-.07-.61-.2-.78-.13-.17-.34-.25-.63-.25-.18,0-.36.05-.56.14-.2.09-.4.22-.6.38-.2.16-.4.35-.59.58-.19.22-.37.46-.54.72-.17.26-.31.53-.44.82-.13.29-.23.57-.3.86l-.85,4.09h-1.67c.08-.36.17-.76.27-1.18.1-.42.2-.84.3-1.27s.2-.85.3-1.27c.09-.42.18-.81.25-1.17.07-.36.13-.69.18-.98.05-.29.07-.52.07-.69,0-.36-.07-.62-.21-.79-.14-.17-.36-.25-.67-.25-.27,0-.57.1-.88.31s-.61.47-.89.81c-.28.33-.53.71-.76,1.13-.22.42-.38.84-.47,1.27l-.87,4.07h-1.68l1.28-5.58c.07-.31.13-.58.16-.8.03-.23.05-.42.05-.56,0-.42-.17-.62-.5-.62-.1,0-.21.02-.31.06-.11.04-.22.11-.33.19-.12.09-.24.19-.38.33-.14.13-.29.29-.46.46l-.59-.56c.28-.29.54-.53.77-.74.24-.21.46-.38.68-.51.22-.13.43-.23.65-.3.21-.07.43-.1.66-.1h0Z"/>
                                                <g class="st68">
                                                  <g class="st55">
                                                    <text class="st90" transform="translate(811.53 288.09)"><tspan x="0" y="0">newbie</tspan></text>
                                                  </g>
                                                  <g class="st103">
                                                    <g class="st98">
                                                      <text class="st91" transform="translate(26.09 237.86)"><tspan x="0" y="0">Multi</tspan></text>
                                                    </g>
                                                    <g class="st155">
                                                      <g class="st3">
                                                        <text class="st91" transform="translate(64.26 237.86)"><tspan x="0" y="0">-</tspan></text>
                                                      </g>
                                                      <g class="st107">
                                                        <g class="st80">
                                                          <text class="st91" transform="translate(69.53 237.86)"><tspan x="0" y="0">prompt Unified </tspan></text>
                                                        </g>
                                                        <g class="st111">
                                                          <g class="st97">
                                                            <text class="st91" transform="translate(26.09 257.06)"><tspan x="0" y="0">Synthesis Engine (MUSE)</tspan></text>
                                                          </g>
                                                        </g>
                                                      </g>
                                                    </g>
                                                  </g>
                                                </g>
                                              </g>
                                            </g>
                                          </g>
                                        </g>
                                      </g>
                                    </g>
                                  </g>
                                </g>
                              </g>
                            </g>
                          </g>
                        </g>
                      </g>
                    </g>
                  </g>
                </g>
              </g>
            </g>
          </g>
        </g>
      </g>
    </g>
  </g>
  <g>
    <path class="st53" d="M628.58,295.58c-.56,0-1.16.01-1.77.04l-1.86,8.27h1.42c1.1,0,1.99-.11,2.67-.34.68-.23,1.23-.58,1.67-1.06.43-.48.77-1.04,1-1.7.24-.66.35-1.37.35-2.16,0-1.06-.27-1.83-.81-2.32-.54-.49-1.43-.74-2.68-.74h0ZM622.86,294.38h6.02c1.08,0,1.97.08,2.67.25.7.17,1.27.43,1.72.78.45.35.79.79,1.01,1.33.22.54.33,1.16.33,1.87,0,1.37-.32,2.55-.97,3.55-.65,1-1.52,1.74-2.63,2.21-1.11.47-2.43.71-3.98.71-.93,0-1.7-.02-2.32-.05l-.87,4.01c-.08.37-.14.66-.17.86-.03.2-.06.42-.08.65-.02.23-.03.44-.03.62,0,.28.05.5.14.66.09.16.23.28.41.35.18.07.5.13.94.16l-.15.67h-5.61l.15-.67c.35-.05.61-.14.78-.27s.32-.29.44-.51.23-.48.33-.8c.1-.31.25-.92.45-1.82l2.32-10.51c.2-.91.3-1.63.3-2.16,0-.45-.1-.76-.31-.93-.21-.17-.55-.27-1.02-.3l.15-.67Z"/>
    <path class="st53" d="M638.56,309.94c-.41,0-.78.12-1.12.36-.34.24-.71.59-1.1,1.04-.18.21-.35.42-.5.63-.15.21-.29.43-.41.67-.12.24-.23.51-.33.81s-.18.64-.25,1.02c-.09.46-.17.84-.22,1.16-.05.31-.08.61-.08.89,0,.54.12.92.37,1.14s.65.33,1.2.33c.39,0,.75-.08,1.08-.25.34-.17.64-.4.91-.69.27-.29.51-.63.73-1.02.21-.39.39-.8.53-1.25.14-.44.25-.89.33-1.36.08-.46.11-.92.11-1.35,0-.71-.1-1.24-.29-1.59-.2-.35-.52-.53-.96-.53h0ZM633.94,308.61c.48,0,.86.16,1.13.48s.4.75.4,1.27c0,.15-.01.3-.03.44-.02.14-.06.28-.12.42l.14.07c.65-.91,1.29-1.58,1.92-2.02s1.29-.66,1.98-.66c.79,0,1.4.29,1.82.86s.63,1.4.63,2.5c0,.96-.15,1.86-.44,2.7-.3.85-.7,1.59-1.2,2.23-.5.64-1.09,1.14-1.76,1.51-.67.37-1.37.55-2.12.55-.52,0-.97-.05-1.35-.15-.38-.1-.7-.23-.95-.37-.06.26-.12.53-.19.81-.07.28-.14.55-.2.81-.06.26-.11.5-.15.72-.04.22-.06.4-.06.53,0,.12.02.22.05.3s.1.15.2.2.22.09.38.12c.16.03.36.05.6.07l-.03.66h-3.51l2.43-10.38c.08-.37.14-.67.17-.92.03-.25.05-.46.05-.66,0-.48-.2-.73-.59-.73-.12,0-.24.02-.36.07s-.25.12-.38.22c-.14.1-.29.23-.45.38-.16.15-.34.33-.54.54l-.69-.65c.33-.33.64-.62.91-.86.28-.24.54-.44.8-.6.26-.16.5-.27.75-.35.24-.08.5-.11.77-.11h0Z"/>
  </g>
  <g>
    <g class="st136">
      <text class="st94" transform="translate(683.96 235.87)"><tspan x="0" y="0">Control</tspan></text>
    </g>
    <g class="st84">
      <g class="st62">
        <text class="st94" transform="translate(669.08 256.99)"><tspan x="0" y="0">against </tspan></text>
      </g>
      <g class="st178">
        <path class="st49" d="M730.99,249.48c-.3,0-.59.1-.88.3s-.61.53-.95.97-.62.88-.81,1.32-.35.93-.46,1.49l-.07.37c-.06.31-.1.55-.11.71s-.02.33-.02.48c0,.46.1.79.29,1s.53.31,1.02.31c.3,0,.57-.06.83-.18s.49-.29.72-.51.43-.49.61-.81.34-.68.49-1.1.25-.85.33-1.29.11-.86.11-1.24c0-.62-.09-1.07-.26-1.38s-.45-.45-.82-.45h0ZM727.29,248.44c.36,0,.65.12.87.36s.32.56.32.96c0,.33-.07.67-.2,1.04l.11.04c1.08-1.59,2.16-2.38,3.23-2.38.64,0,1.14.24,1.49.73s.53,1.17.53,2.06c0,.97-.19,1.92-.58,2.85s-.93,1.68-1.62,2.22-1.46.82-2.32.82c-.78,0-1.43-.17-1.94-.51l-.4,1.92c-.09.42-.13.76-.13,1.03s.07.44.2.55.39.18.77.22l-.07.43h-2.72l2.12-9.33c.12-.54.18-.98.18-1.33,0-.23-.04-.4-.11-.51s-.2-.16-.36-.16c-.18,0-.37.07-.58.22s-.48.42-.83.81l-.5-.49c.53-.55.97-.95,1.34-1.19s.77-.36,1.22-.36h0Z"/>
        <g class="st40">
          <path class="st49" d="M738,252.41h.39c0,.24-.02.45-.02.63,0,.19,0,.37,0,.54,0,.18,0,.35,0,.52v4.9c0,.13,0,.25.01.34,0,.1.02.18.04.24.02.07.05.12.08.17s.07.09.11.12c.05.05.12.09.21.12s.2.05.33.07c.13.02.29.03.48.05s.41.02.67.02v.56h-5.11v-.56c.25,0,.47-.02.64-.03.18-.01.33-.03.45-.05.12-.02.22-.04.3-.06.08-.02.14-.05.2-.09.06-.04.11-.08.15-.13.04-.05.08-.1.1-.17.03-.07.05-.15.06-.25.02-.1.02-.22.02-.37v-4.62c0-.17-.03-.29-.1-.35s-.16-.1-.28-.1c-.13,0-.33.07-.59.21-.26.14-.6.34-1.02.61-.06-.1-.11-.2-.15-.3-.05-.1-.1-.2-.15-.3.53-.29,1.06-.58,1.58-.87s1.05-.58,1.59-.87h0Z"/>
          <g class="st140">
            <path class="st49" d="M742.3,259.22h1.29v1.5h-1.29v-1.5h0ZM742.3,254.9h1.29v1.51h-1.29v-1.51h0Z"/>
            <g class="st104">
              <path class="st49" d="M748.17,251.92h.46l-1.13,5.01h.18c.16,0,.34-.03.53-.1.19-.07.38-.16.56-.27.19-.11.37-.23.54-.37.17-.14.32-.28.45-.42s.24-.27.31-.4c.08-.12.12-.23.12-.32,0-.1-.03-.19-.1-.25-.07-.06-.19-.11-.37-.13l.08-.41h2.32l.16.4c-.27.23-.53.45-.78.64-.25.2-.49.39-.73.57s-.48.36-.72.54c-.24.18-.48.36-.73.55.1.33.21.66.32,1s.21.67.32,1c.05.18.1.33.15.45.05.13.09.23.15.31.05.08.11.14.17.18.06.04.13.06.22.06.06,0,.12-.01.19-.03s.14-.06.22-.12c.08-.06.17-.13.27-.23s.22-.22.34-.36l.44.42c-.2.21-.39.38-.56.53-.17.15-.34.27-.5.37s-.31.17-.45.21c-.15.05-.29.07-.44.07-.27,0-.49-.07-.65-.2s-.31-.33-.42-.58c-.12-.25-.22-.56-.32-.91s-.21-.75-.34-1.19c-.03-.1-.06-.19-.09-.25-.03-.06-.06-.11-.11-.14s-.1-.05-.16-.06-.15-.01-.24-.01h-.41l-.71,3.24h-1.24l1.56-6.92c.05-.23.09-.41.11-.54s.03-.25.03-.35c0-.08-.01-.15-.04-.21s-.07-.11-.14-.15-.15-.06-.26-.08-.24-.03-.4-.03l.1-.44,1.77-.08h0Z"/>
            </g>
          </g>
        </g>
      </g>
    </g>
  </g>
  <g>
    <path class="st53" d="M206.15,365.56c-.56,0-1.16.01-1.77.04l-1.86,8.27h1.42c1.1,0,1.99-.11,2.67-.34.68-.23,1.23-.58,1.67-1.06.43-.48.77-1.04,1-1.7.24-.66.35-1.37.35-2.16,0-1.06-.27-1.83-.81-2.32-.54-.49-1.43-.74-2.68-.74h0ZM200.43,364.35h6.02c1.08,0,1.97.08,2.67.25.7.17,1.27.43,1.72.78.45.35.79.79,1.01,1.33s.33,1.16.33,1.87c0,1.37-.32,2.55-.97,3.55-.65,1-1.52,1.74-2.63,2.21s-2.43.71-3.98.71c-.93,0-1.7-.02-2.32-.05l-.87,4.01c-.08.37-.14.66-.17.86-.03.2-.06.42-.08.65s-.03.44-.03.62c0,.28.05.5.14.66.09.16.23.28.41.35.18.07.5.13.94.16l-.15.67h-5.61l.15-.67c.35-.05.61-.14.78-.27s.32-.29.44-.51.23-.48.33-.8c.1-.31.25-.92.45-1.82l2.32-10.51c.2-.91.3-1.63.3-2.16,0-.45-.1-.76-.31-.93s-.55-.27-1.02-.3l.15-.67Z"/>
    <path class="st53" d="M214.78,379.57c-.37,0-.72.08-1.05.25-.33.17-.62.4-.9.69-.27.29-.52.64-.73,1.04s-.4.83-.55,1.28-.26.94-.34,1.43c-.08.5-.12,1-.12,1.49,0,.76.16,1.33.47,1.69.32.36.8.54,1.44.54.36,0,.7-.09,1.02-.26.32-.18.61-.41.88-.71s.5-.65.71-1.05c.21-.4.39-.83.53-1.29.15-.46.26-.93.33-1.42s.11-.96.11-1.43c0-.74-.15-1.3-.44-1.68s-.75-.57-1.37-.57h0ZM214.97,378.58c.6,0,1.12.1,1.57.29.45.19.82.45,1.12.78.3.33.52.72.67,1.16s.22.92.22,1.42c0,1.01-.15,1.92-.45,2.74-.3.82-.71,1.52-1.24,2.11-.53.59-1.15,1.04-1.86,1.36s-1.49.48-2.33.48c-.55,0-1.05-.08-1.48-.25-.44-.17-.81-.41-1.12-.72-.31-.31-.54-.69-.7-1.13-.16-.44-.24-.94-.24-1.5,0-.94.15-1.82.44-2.64.3-.82.7-1.53,1.23-2.14.52-.61,1.14-1.09,1.85-1.44.71-.35,1.48-.53,2.32-.53h0Z"/>
    <path class="st53" d="M203.45,442.28c-.56,0-1.16.01-1.77.04l-1.86,8.27h1.42c1.1,0,1.99-.11,2.67-.34.68-.23,1.23-.58,1.67-1.06.43-.48.77-1.04,1-1.7.24-.66.35-1.37.35-2.16,0-1.06-.27-1.83-.81-2.32-.54-.49-1.43-.74-2.68-.74h0ZM197.73,441.08h6.02c1.08,0,1.97.08,2.67.25.7.17,1.27.43,1.72.78.45.35.79.79,1.01,1.33s.33,1.16.33,1.87c0,1.37-.32,2.55-.97,3.55-.65,1-1.52,1.74-2.63,2.21s-2.43.71-3.98.71c-.93,0-1.7-.02-2.32-.05l-.87,4.01c-.08.37-.14.66-.17.86-.03.2-.06.42-.08.65s-.03.44-.03.62c0,.28.05.5.14.66.09.16.23.28.41.35.18.07.5.13.94.16l-.15.67h-5.61l.15-.67c.35-.05.61-.14.78-.27s.32-.29.44-.51.23-.48.33-.8c.1-.31.25-.92.45-1.82l2.32-10.51c.2-.91.3-1.63.3-2.16,0-.45-.1-.76-.31-.93s-.55-.27-1.02-.3l.15-.67Z"/>
    <path class="st53" d="M213.43,456.64c-.41,0-.78.12-1.12.36-.34.24-.71.59-1.1,1.04-.18.21-.35.42-.5.63-.15.21-.29.43-.41.67-.12.24-.23.51-.33.81-.1.3-.18.64-.25,1.02-.09.46-.17.84-.22,1.16-.05.31-.08.61-.08.89,0,.54.12.92.37,1.14s.65.33,1.2.33c.39,0,.75-.08,1.08-.25.34-.17.64-.4.91-.69.27-.29.51-.63.73-1.02.21-.39.39-.8.53-1.25.14-.44.25-.89.33-1.36s.11-.92.11-1.35c0-.71-.1-1.24-.29-1.59-.2-.35-.52-.53-.96-.53h0ZM208.81,455.3c.48,0,.86.16,1.13.48s.4.75.4,1.27c0,.15-.01.3-.03.44-.02.14-.06.28-.12.42l.14.07c.65-.91,1.29-1.58,1.92-2.02.63-.44,1.29-.66,1.98-.66.79,0,1.4.29,1.82.86.42.57.63,1.4.63,2.5,0,.96-.15,1.86-.44,2.7-.3.85-.7,1.59-1.2,2.23-.5.64-1.09,1.14-1.76,1.51-.67.37-1.37.55-2.12.55-.52,0-.97-.05-1.35-.15s-.7-.23-.95-.37c-.06.26-.12.53-.19.81-.07.28-.14.55-.2.81-.06.26-.11.5-.15.72-.04.22-.06.4-.06.53,0,.12.02.22.05.3s.1.15.2.2.22.09.38.12.36.05.6.07l-.03.66h-3.51l2.43-10.38c.08-.37.14-.67.17-.92.03-.25.05-.46.05-.66,0-.48-.2-.73-.59-.73-.12,0-.24.02-.36.07-.12.05-.25.12-.38.22-.14.1-.29.23-.45.38-.16.15-.34.33-.54.54l-.69-.65c.33-.33.64-.62.91-.86.28-.24.54-.44.8-.6.26-.16.5-.27.75-.35.24-.08.5-.11.77-.11h0Z"/>
    <line class="st15" x1="315.94" y1="372.25" x2="380.82" y2="372.25"/>
    <polygon class="st51" points="379.7 368.88 386.45 372.25 379.7 375.63 379.7 368.88 379.7 368.88"/>
    <g class="st158">
      <line class="st15" x1="314.5" y1="454.69" x2="379.38" y2="454.69"/>
      <polygon class="st51" points="378.26 451.32 385.01 454.69 378.26 458.07 378.26 451.32 378.26 451.32"/>
      <g class="st47">
        <g class="st67">
          <text class="st91" transform="translate(27.03 381.39)"><tspan x="0" y="0">Sampling </tspan></text>
        </g>
        <g class="st153">
          <g class="st147">
            <text class="st91" transform="translate(96.03 381.39)"><tspan x="0" y="0">Methods</tspan></text>
          </g>
          <g class="st165">
            <g class="st156">
              <text class="st94" transform="translate(319.15 419.81)"><tspan x="0" y="0">Sampling</tspan></text>
            </g>
            <g class="st46">
              <polyline class="st15" points="483.94 454.71 571.83 454.71 571.83 412.69 615.58 412.69"/>
              <polygon class="st51" points="614.46 416.07 621.21 412.69 614.46 409.32 614.46 416.07 614.46 416.07"/>
              <g class="st139">
                <polyline class="st15" points="484.18 372.73 571.49 372.73 571.49 412.74 615.51 412.74"/>
                <polygon class="st51" points="614.38 409.37 621.13 412.74 614.38 416.12 614.38 409.37 614.38 409.37"/>
                <g class="st64">
                  <path class="st53" d="M637.19,388.08c-.48,0-.99.01-1.52.04l-1.59,7.1h1.22c.95,0,1.71-.1,2.29-.29s1.06-.5,1.43-.91.66-.9.86-1.46.3-1.18.3-1.85c0-.91-.23-1.57-.69-1.99s-1.23-.63-2.3-.63h0ZM632.28,387.05h5.17c.93,0,1.69.07,2.29.22s1.09.37,1.48.67.68.68.87,1.14.29,1,.29,1.61c0,1.17-.28,2.19-.83,3.05s-1.31,1.49-2.26,1.9-2.09.61-3.42.61c-.8,0-1.46-.02-1.99-.05l-.75,3.45c-.07.32-.12.57-.15.74s-.05.36-.07.56-.03.38-.03.53c0,.24.04.43.12.57s.2.24.35.3.43.11.81.14l-.13.57h-4.82l.13-.57c.3-.05.52-.12.67-.23s.27-.25.38-.44.2-.42.28-.69.21-.79.39-1.56l1.99-9.02c.17-.78.26-1.4.26-1.85,0-.38-.09-.65-.27-.8s-.47-.23-.88-.26l.13-.57Z"/>
                  <g class="st148">
                    <path class="st53" d="M658.33,399.23c.41,0,.74.14.98.41s.37.65.37,1.11c0,.25-.02.53-.07.84-.05.31-.12.65-.23,1.04-.22.78-.39,1.47-.51,2.05s-.19,1.02-.19,1.29c0,.34.07.6.2.77.13.17.35.25.65.25.27,0,.55-.1.86-.3.31-.2.6-.46.88-.77.28-.32.53-.67.75-1.06.22-.39.38-.78.48-1.16l.94-4.29h1.69l-1.32,5.59c-.07.29-.12.55-.15.78-.03.23-.04.42-.04.58,0,.22.04.37.12.47.08.1.21.15.38.15.11,0,.21-.02.32-.06s.21-.1.33-.19c.12-.09.24-.2.38-.33.14-.13.29-.3.46-.48l.59.56c-.29.29-.55.54-.79.75-.24.21-.47.38-.68.51-.22.13-.43.23-.65.29-.21.06-.43.09-.66.09-.41,0-.73-.13-.96-.4-.23-.27-.35-.63-.35-1.09,0-.12,0-.24.03-.36.02-.12.05-.24.09-.35l-.1-.03c-.56.75-1.11,1.31-1.65,1.68-.53.37-1.09.56-1.66.56-.6,0-1.06-.16-1.36-.48s-.46-.78-.46-1.38c0-.15.03-.37.08-.64.05-.27.12-.58.2-.92.08-.34.17-.69.26-1.06.09-.37.18-.72.26-1.06s.15-.65.2-.92c.05-.28.08-.49.08-.65,0-.42-.17-.62-.51-.62-.11,0-.21.02-.32.06-.1.04-.21.11-.33.19-.12.09-.24.19-.38.33-.14.13-.29.29-.46.46l-.58-.56c.31-.31.58-.57.83-.78.24-.21.47-.38.69-.51s.43-.22.64-.28.44-.09.68-.09h0ZM641.85,399.23c.42,0,.75.14.98.41.23.28.35.64.35,1.09,0,.13,0,.25-.03.37-.02.12-.05.24-.09.35l.1.04c.54-.76,1.08-1.33,1.63-1.7.54-.38,1.1-.56,1.67-.56.6,0,1.06.16,1.36.47.3.31.45.77.45,1.37v.15s0,.1-.02.15h.03c.53-.72,1.06-1.26,1.58-1.61.52-.35,1.07-.53,1.64-.53.6,0,1.06.16,1.36.49s.45.78.45,1.37c0,.18-.03.41-.09.71-.06.3-.13.63-.21.99-.08.36-.17.73-.27,1.12-.1.39-.19.75-.27,1.09-.05.22-.09.4-.12.54-.03.14-.06.26-.07.35-.02.09-.03.18-.03.24,0,.07,0,.14,0,.22,0,.22.04.37.12.47.08.1.21.15.38.15.1,0,.21-.02.31-.06.1-.04.21-.1.33-.19.12-.09.25-.2.38-.33s.3-.3.47-.48l.59.56c-.27.29-.53.53-.77.74-.24.21-.46.38-.68.51-.22.13-.44.23-.65.3-.22.07-.44.1-.68.1-.22,0-.41-.04-.59-.12-.18-.08-.33-.19-.45-.33-.12-.14-.22-.31-.29-.5-.07-.19-.1-.4-.1-.63,0-.47.1-1.07.3-1.81.11-.37.21-.73.3-1.07s.16-.65.23-.94.11-.54.15-.77c.04-.23.06-.41.06-.56,0-.35-.07-.61-.2-.78s-.34-.25-.63-.25c-.18,0-.36.05-.56.14-.2.09-.4.22-.6.38-.2.16-.4.35-.59.58-.19.22-.37.46-.54.72-.17.26-.31.53-.44.82-.13.29-.23.57-.3.86l-.85,4.09h-1.67c.08-.36.17-.76.27-1.18.1-.42.2-.84.3-1.27s.2-.85.3-1.27c.09-.42.18-.81.25-1.17.07-.36.13-.69.18-.98.05-.29.07-.52.07-.69,0-.36-.07-.62-.21-.79-.14-.17-.36-.25-.67-.25-.27,0-.57.1-.88.31s-.61.47-.89.81c-.28.33-.53.71-.76,1.13-.22.42-.38.84-.47,1.27l-.87,4.07h-1.68l1.28-5.58c.07-.31.13-.58.16-.8.03-.23.05-.42.05-.56,0-.42-.17-.62-.5-.62-.1,0-.21.02-.31.06-.11.04-.22.11-.33.19-.12.09-.24.19-.38.33-.14.13-.29.29-.46.46l-.59-.56c.28-.29.54-.53.77-.74s.46-.38.68-.51c.22-.13.43-.23.65-.3.21-.07.43-.1.66-.1h0Z"/>
                    <g class="st82">
                      <g class="st161">
                        <text class="st90" transform="translate(670.65 372.14)"><tspan x="0" y="0">newbie</tspan></text>
                      </g>
                      <g class="st72">
                        <g class="st4">
                          <text class="st94" transform="translate(472.14 419.47)"><tspan x="0" y="0">Combination </tspan></text>
                        </g>
                        <g class="st177">
                          <g class="st167">
                            <g class="st128">
                              <polygon class="st30" points="226.14 402.69 236.48 402.69 236.48 382.34 226.14 382.34 226.14 402.69 226.14 402.69"/>
                              <polygon class="st30" points="240.62 402.69 250.97 402.69 250.97 382.34 240.62 382.34 240.62 402.69 240.62 402.69"/>
                              <polygon class="st30" points="255.1 402.69 265.45 402.69 265.45 348.43 255.1 348.43 255.1 402.69 255.1 402.69"/>
                              <polygon class="st30" points="269.59 402.69 279.93 402.69 279.93 375.56 269.59 375.56 269.59 402.69 269.59 402.69"/>
                              <polygon class="st30" points="284.07 402.69 294.42 402.69 294.42 355.21 284.07 355.21 284.07 402.69 284.07 402.69"/>
                            </g>
                          </g>
                          <g class="st35">
                            <g class="st57">
                              <g class="st108">
                                <polygon class="st81" points="226.74 478.77 237.08 478.77 237.08 465.23 226.74 465.23 226.74 478.77 226.74 478.77"/>
                                <polygon class="st81" points="241.22 478.77 251.57 478.77 251.57 455.07 241.22 455.07 241.22 478.77 241.22 478.77"/>
                                <polygon class="st81" points="255.7 478.77 266.05 478.77 266.05 465.23 255.7 465.23 255.7 478.77 255.7 478.77"/>
                                <polygon class="st81" points="270.19 478.77 280.53 478.77 280.53 458.46 270.19 458.46 270.19 478.77 270.19 478.77"/>
                                <polygon class="st81" points="284.67 478.77 295.02 478.77 295.02 424.6 284.67 424.6 284.67 478.77 284.67 478.77"/>
                              </g>
                            </g>
                            <g class="st66">
                              <g class="st169">
                                <g class="st145">
                                  <polygon class="st143" points="666.65 439.65 676.93 439.65 676.93 436.28 666.65 436.28 666.65 439.65 666.65 439.65"/>
                                  <polygon class="st143" points="681.04 439.65 691.31 439.65 691.31 436.28 681.04 436.28 681.04 439.65 681.04 439.65"/>
                                  <polygon class="st143" points="695.42 439.65 705.69 439.65 705.69 379.03 695.42 379.03 695.42 439.65 695.42 439.65"/>
                                  <polygon class="st143" points="709.8 439.65 720.08 439.65 720.08 405.97 709.8 405.97 709.8 439.65 709.8 439.65"/>
                                  <polygon class="st143" points="724.18 439.65 734.46 439.65 734.46 436.28 724.18 436.28 724.18 439.65 724.18 439.65"/>
                                </g>
                              </g>
                              <g class="st125">
                                <g class="st74">
                                  <g class="st63">
                                    <polygon class="st30" points="399.53 402.69 409.81 402.69 409.81 399.32 399.53 399.32 399.53 402.69 399.53 402.69"/>
                                    <polygon class="st30" points="413.92 402.69 424.19 402.69 424.19 399.32 413.92 399.32 413.92 402.69 413.92 402.69"/>
                                    <polygon class="st30" points="428.3 402.69 438.57 402.69 438.57 342.07 428.3 342.07 428.3 402.69 428.3 402.69"/>
                                    <polygon class="st30" points="442.68 402.69 452.96 402.69 452.96 369.01 442.68 369.01 442.68 402.69 442.68 402.69"/>
                                    <polygon class="st30" points="457.06 402.69 467.34 402.69 467.34 348.81 457.06 348.81 457.06 402.69 457.06 402.69"/>
                                  </g>
                                </g>
                                <g class="st149">
                                  <g class="st181">
                                    <g class="st132">
                                      <polygon class="st81" points="398.82 478.77 409.14 478.77 409.14 475.38 398.82 475.38 398.82 478.77 398.82 478.77"/>
                                      <polygon class="st81" points="413.27 478.77 423.6 478.77 423.6 451.68 413.27 451.68 413.27 478.77 413.27 478.77"/>
                                      <polygon class="st81" points="427.73 478.77 438.06 478.77 438.06 475.38 427.73 475.38 427.73 478.77 427.73 478.77"/>
                                      <polygon class="st81" points="442.19 478.77 452.52 478.77 452.52 475.38 442.19 475.38 442.19 478.77 442.19 478.77"/>
                                      <polygon class="st81" points="456.65 478.77 466.98 478.77 466.98 417.83 456.65 417.83 456.65 478.77 456.65 478.77"/>
                                    </g>
                                  </g>
                                </g>
                              </g>
                            </g>
                          </g>
                        </g>
                      </g>
                    </g>
                  </g>
                </g>
              </g>
            </g>
          </g>
        </g>
      </g>
    </g>
  </g>
  <g>
    <line class="st15" x1="702.5" y1="355.5" x2="839.72" y2="295.31"/>
    <polygon class="st51" points="840.04 298.86 844.88 293.04 837.33 292.66 840.04 298.86 840.04 298.86"/>
  </g>
  <g>
    <path class="st49" d="M113.55,277.66c-.4,0-.79.13-1.18.4s-.81.7-1.27,1.29-.82,1.18-1.08,1.76-.46,1.24-.61,1.99l-.09.49c-.08.41-.13.73-.15.95s-.03.43-.03.64c0,.61.13,1.05.39,1.33s.71.42,1.35.42c.4,0,.77-.08,1.1-.23s.65-.38.96-.68.57-.66.81-1.08.46-.91.65-1.47.34-1.13.43-1.72.15-1.14.15-1.66c0-.82-.12-1.43-.35-1.83s-.6-.6-1.1-.6h0ZM108.61,276.27c.48,0,.87.16,1.15.48s.43.75.43,1.28c0,.44-.09.9-.27,1.38l.14.05c1.45-2.12,2.88-3.18,4.31-3.18.85,0,1.51.32,1.99.97s.71,1.56.71,2.74c0,1.29-.26,2.56-.78,3.8s-1.24,2.23-2.16,2.96-1.95,1.1-3.09,1.1c-1.04,0-1.9-.23-2.59-.68l-.54,2.57c-.12.55-.18,1.01-.18,1.37s.09.59.26.73.52.24,1.03.29l-.09.57h-3.62l2.82-12.43c.16-.72.25-1.31.25-1.77,0-.31-.05-.54-.15-.68s-.26-.21-.48-.21c-.24,0-.5.1-.77.3s-.64.56-1.11,1.08l-.67-.66c.7-.73,1.3-1.26,1.79-1.59s1.03-.49,1.62-.49h0Z"/>
    <path class="st49" d="M122.82,281.58h.52c-.01.31-.02.59-.03.84,0,.25,0,.49-.01.72,0,.23,0,.46,0,.69v6.5c0,.18,0,.33.02.46.01.13.03.24.06.33.03.09.06.16.1.23.04.06.09.12.15.16.07.07.16.12.27.16.11.04.26.07.44.09.18.03.39.05.64.06.25.01.55.02.89.03v.74h-6.78v-.74c.34-.01.62-.02.86-.04.23-.01.43-.03.6-.06.17-.03.3-.05.4-.09s.19-.07.26-.12c.08-.05.15-.11.21-.17.06-.06.1-.14.14-.23s.06-.2.08-.33c.02-.13.03-.29.03-.49v-6.13c0-.22-.04-.38-.13-.47-.09-.09-.21-.14-.37-.14-.18,0-.44.09-.79.27-.35.18-.8.45-1.35.81-.07-.13-.14-.26-.21-.39s-.13-.27-.2-.4c.71-.39,1.41-.77,2.1-1.16.69-.38,1.4-.77,2.11-1.15h0Z"/>
    <path class="st49" d="M128.58,290.61h1.71v1.98h-1.71v-1.98h0ZM128.58,284.87h1.71v2h-1.71v-2h0Z"/>
    <path class="st49" d="M136.42,280.92h.62l-1.51,6.66h.24c.22,0,.45-.05.7-.14.25-.09.5-.21.75-.36.25-.15.49-.31.71-.49.23-.18.43-.37.6-.55.17-.19.31-.36.41-.53.1-.17.15-.31.15-.42,0-.14-.05-.25-.14-.33-.09-.09-.26-.14-.5-.17l.1-.55h3.08l.21.53c-.36.31-.7.59-1.04.86-.33.26-.65.51-.97.76-.32.24-.63.48-.95.71-.32.23-.64.48-.97.73.14.43.28.87.42,1.32.14.45.29.89.43,1.33.07.23.13.43.19.6s.12.31.19.41c.07.11.14.18.22.24.08.05.18.08.29.08.08,0,.16-.01.25-.04.09-.03.18-.08.29-.15.11-.07.23-.18.36-.3.13-.13.29-.29.46-.48l.58.56c-.27.27-.52.51-.75.71-.23.2-.45.36-.66.49s-.41.22-.6.28c-.19.06-.39.09-.59.09-.36,0-.65-.09-.87-.27-.22-.18-.41-.44-.56-.77-.15-.33-.3-.74-.42-1.21-.13-.47-.28-1-.45-1.58-.04-.14-.08-.25-.12-.33-.04-.08-.08-.15-.14-.19-.06-.04-.13-.07-.21-.08-.09-.01-.19-.02-.33-.02h-.55l-.94,4.29h-1.64l2.07-9.19c.07-.3.12-.54.15-.71.03-.17.04-.33.04-.47,0-.11-.02-.2-.06-.28-.04-.08-.1-.14-.18-.19-.09-.05-.2-.08-.34-.11-.14-.02-.32-.04-.53-.04l.13-.58,2.35-.1h0Z"/>
  </g>
</svg>