<?xml version="1.0" encoding="UTF-8"?>
<svg id="_图层_1" data-name="图层_1" xmlns="http://www.w3.org/2000/svg" version="1.1" xmlns:xlink="http://www.w3.org/1999/xlink" viewBox="0 0 911 485">
  <!-- Generator: Adobe Illustrator 29.0.0, SVG Export Plug-In . SVG Version: 2.1.0 Build 186)  -->
  <defs>
    <style>
      .st0 {
        clip-path: url(#clippath-76);
      }

      .st1 {
        clip-path: url(#clippath-51);
      }

      .st2 {
        clip-path: url(#clippath-143);
      }

      .st3 {
        clip-path: url(#clippath-107);
      }

      .st4 {
        clip-path: url(#clippath-21);
      }

      .st5 {
        clip-path: url(#clippath-6);
      }

      .st6 {
        clip-path: url(#clippath-7);
      }

      .st7 {
        clip-path: url(#clippath-17);
      }

      .st8, .st9 {
        fill: #4e79a7;
      }

      .st10 {
        clip-path: url(#clippath-80);
      }

      .st11 {
        clip-path: url(#clippath-31);
      }

      .st12 {
        clip-path: url(#clippath-79);
      }

      .st13 {
        clip-path: url(#clippath-138);
      }

      .st14 {
        clip-path: url(#clippath-75);
      }

      .st15 {
        clip-path: url(#clippath-15);
      }

      .st16 {
        clip-path: url(#clippath-33);
      }

      .st17 {
        clip-path: url(#clippath-61);
      }

      .st18 {
        clip-path: url(#clippath-116);
      }

      .st19 {
        clip-path: url(#clippath-42);
      }

      .st19, .st20, .st21, .st22, .st23, .st24, .st25, .st26, .st27, .st28, .st29, .st30, .st31, .st32, .st33, .st34, .st35, .st36, .st37, .st38 {
        fill: none;
      }

      .st19, .st20, .st22, .st25, .st26, .st28, .st30, .st31, .st32, .st33, .st34, .st35 {
        clip-rule: evenodd;
      }

      .st39 {
        clip-path: url(#clippath-100);
      }

      .st40 {
        clip-path: url(#clippath-18);
      }

      .st41 {
        clip-path: url(#clippath-47);
      }

      .st42 {
        clip-path: url(#clippath-4);
      }

      .st43 {
        clip-path: url(#clippath-71);
      }

      .st44 {
        clip-path: url(#clippath-126);
      }

      .st45 {
        clip-path: url(#clippath-120);
      }

      .st46 {
        fill: red;
      }

      .st46, .st47, .st48, .st49, .st9, .st50, .st51 {
        fill-rule: evenodd;
      }

      .st52 {
        clip-path: url(#clippath-103);
      }

      .st53 {
        clip-path: url(#clippath-23);
      }

      .st20 {
        clip-path: url(#clippath-26);
      }

      .st54 {
        clip-path: url(#clippath-140);
      }

      .st55 {
        clip-path: url(#clippath-82);
      }

      .st56 {
        clip-path: url(#clippath-54);
      }

      .st57 {
        clip-path: url(#clippath-66);
      }

      .st47, .st58 {
        fill: #7f7f7f;
      }

      .st21, .st24, .st27 {
        stroke-width: 2.25px;
      }

      .st21, .st24, .st27, .st29, .st36, .st37, .st38 {
        stroke-miterlimit: 8;
      }

      .st21, .st38 {
        stroke: #ff5b5b;
      }

      .st59 {
        clip-path: url(#clippath-114);
      }

      .st48 {
        fill: #bfbfbf;
      }

      .st60 {
        clip-path: url(#clippath-128);
      }

      .st61 {
        clip-path: url(#clippath-9);
      }

      .st62 {
        clip-path: url(#clippath-142);
      }

      .st63 {
        clip-path: url(#clippath-121);
      }

      .st64 {
        clip-path: url(#clippath-102);
      }

      .st22 {
        clip-path: url(#clippath-38);
      }

      .st65 {
        clip-path: url(#clippath-70);
      }

      .st66 {
        clip-path: url(#clippath-10);
      }

      .st67 {
        clip-path: url(#clippath-132);
      }

      .st68 {
        clip-path: url(#clippath-59);
      }

      .st69 {
        clip-path: url(#clippath-43);
      }

      .st70 {
        clip-path: url(#clippath-64);
      }

      .st71 {
        clip-path: url(#clippath-101);
      }

      .st72 {
        clip-path: url(#clippath-25);
      }

      .st73 {
        clip-path: url(#clippath-27);
      }

      .st74 {
        clip-path: url(#clippath-139);
      }

      .st75 {
        clip-path: url(#clippath-109);
      }

      .st76, .st51 {
        fill: #e15759;
      }

      .st77 {
        clip-path: url(#clippath-130);
      }

      .st78 {
        clip-path: url(#clippath-60);
      }

      .st79 {
        clip-path: url(#clippath-113);
      }

      .st80 {
        clip-path: url(#clippath-93);
      }

      .st81 {
        clip-path: url(#clippath-11);
      }

      .st82 {
        clip-path: url(#clippath-57);
      }

      .st83 {
        clip-path: url(#clippath-88);
      }

      .st84 {
        fill: #fff;
      }

      .st84, .st85, .st86, .st87, .st88 {
        font-weight: 700;
      }

      .st84, .st85, .st86, .st88 {
        font-family: TimesNewRomanPS-BoldMT, 'Times New Roman';
      }

      .st84, .st85, .st87, .st89, .st90, .st88 {
        font-size: 18px;
      }

      .st91 {
        clip-path: url(#clippath-85);
      }

      .st92 {
        clip-path: url(#clippath-111);
      }

      .st93 {
        clip-path: url(#clippath-105);
      }

      .st94 {
        clip-path: url(#clippath-36);
      }

      .st95 {
        clip-path: url(#clippath-92);
      }

      .st96 {
        clip-path: url(#clippath-35);
      }

      .st97 {
        clip-path: url(#clippath-98);
      }

      .st98 {
        clip-path: url(#clippath-48);
      }

      .st99 {
        clip-path: url(#clippath-104);
      }

      .st100 {
        clip-path: url(#clippath-28);
      }

      .st101 {
        clip-path: url(#clippath-118);
      }

      .st24 {
        stroke: #7c7c7c;
      }

      .st102 {
        clip-path: url(#clippath-1);
      }

      .st103 {
        clip-path: url(#clippath-56);
      }

      .st25 {
        clip-path: url(#clippath-129);
      }

      .st104 {
        clip-path: url(#clippath-108);
      }

      .st105 {
        clip-path: url(#clippath-90);
      }

      .st106 {
        clip-path: url(#clippath-45);
      }

      .st107 {
        clip-path: url(#clippath-110);
      }

      .st108 {
        clip-path: url(#clippath-99);
      }

      .st109 {
        clip-path: url(#clippath-89);
      }

      .st110 {
        clip-path: url(#clippath-46);
      }

      .st111 {
        clip-path: url(#clippath-40);
      }

      .st112 {
        clip-path: url(#clippath-96);
      }

      .st113 {
        clip-path: url(#clippath-5);
      }

      .st114 {
        clip-path: url(#clippath-20);
      }

      .st115 {
        clip-path: url(#clippath-95);
      }

      .st116 {
        clip-path: url(#clippath-8);
      }

      .st117 {
        clip-path: url(#clippath-52);
      }

      .st26 {
        clip-path: url(#clippath-137);
      }

      .st118 {
        clip-path: url(#clippath-41);
      }

      .st119 {
        clip-path: url(#clippath-67);
      }

      .st120 {
        clip-path: url(#clippath-74);
      }

      .st49, .st88 {
        fill: #ff5b5b;
      }

      .st121 {
        clip-path: url(#clippath-3);
      }

      .st27 {
        stroke: #bfbfbf;
      }

      .st122 {
        clip-path: url(#clippath-91);
      }

      .st86 {
        font-size: 15.96px;
      }

      .st123 {
        clip-path: url(#clippath-12);
      }

      .st124 {
        clip-path: url(#clippath-135);
      }

      .st125 {
        clip-path: url(#clippath-50);
      }

      .st126 {
        fill: #afabab;
      }

      .st28 {
        clip-path: url(#clippath-22);
      }

      .st127 {
        clip-path: url(#clippath-14);
      }

      .st29 {
        stroke: #172c51;
      }

      .st128 {
        clip-path: url(#clippath-97);
      }

      .st129 {
        clip-path: url(#clippath-112);
      }

      .st130 {
        clip-path: url(#clippath-77);
      }

      .st131 {
        clip-path: url(#clippath-19);
      }

      .st132 {
        clip-path: url(#clippath-127);
      }

      .st133 {
        clip-path: url(#clippath-117);
      }

      .st31 {
        clip-path: url(#clippath-133);
      }

      .st32 {
        clip-path: url(#clippath-30);
      }

      .st134 {
        clip-path: url(#clippath-78);
      }

      .st87 {
        font-family: TimesNewRomanPS-BoldItalicMT, 'Times New Roman';
        font-style: italic;
      }

      .st135 {
        clip-path: url(#clippath-72);
      }

      .st136 {
        fill: #59a14f;
      }

      .st137 {
        clip-path: url(#clippath-84);
      }

      .st138 {
        clip-path: url(#clippath-32);
      }

      .st139 {
        clip-path: url(#clippath-55);
      }

      .st89 {
        font-family: TimesNewRomanPSMT, 'Times New Roman';
      }

      .st140 {
        clip-path: url(#clippath-123);
      }

      .st33 {
        clip-path: url(#clippath-34);
      }

      .st141 {
        clip-path: url(#clippath-73);
      }

      .st142 {
        clip-path: url(#clippath-53);
      }

      .st143 {
        clip-path: url(#clippath-39);
      }

      .st144 {
        clip-path: url(#clippath-122);
      }

      .st145 {
        clip-path: url(#clippath-81);
      }

      .st146 {
        clip-path: url(#clippath-106);
      }

      .st147 {
        clip-path: url(#clippath-16);
      }

      .st148 {
        clip-path: url(#clippath-119);
      }

      .st149 {
        clip-path: url(#clippath-2);
      }

      .st150 {
        clip-path: url(#clippath-29);
      }

      .st151 {
        clip-path: url(#clippath-131);
      }

      .st34 {
        clip-path: url(#clippath-141);
      }

      .st152 {
        clip-path: url(#clippath-49);
      }

      .st35 {
        clip-path: url(#clippath-125);
      }

      .st153 {
        clip-path: url(#clippath-37);
      }

      .st154 {
        clip-path: url(#clippath-58);
      }

      .st155 {
        clip-path: url(#clippath-124);
      }

      .st156 {
        clip-path: url(#clippath-13);
      }

      .st36 {
        stroke: #767171;
        stroke-dasharray: 76200 57150;
        stroke-width: 1.5px;
      }

      .st157 {
        clip-path: url(#clippath-136);
      }

      .st158 {
        clip-path: url(#clippath-86);
      }

      .st37 {
        stroke: #000;
      }

      .st159 {
        clip-path: url(#clippath-63);
      }

      .st160 {
        clip-path: url(#clippath-24);
      }

      .st90 {
        font-family: CambriaMath, 'Cambria Math';
      }

      .st161 {
        clip-path: url(#clippath-94);
      }

      .st162 {
        clip-path: url(#clippath);
      }

      .st163 {
        clip-path: url(#clippath-87);
      }

      .st164 {
        clip-path: url(#clippath-68);
      }

      .st165 {
        clip-path: url(#clippath-83);
      }

      .st166 {
        clip-path: url(#clippath-65);
      }

      .st167 {
        clip-path: url(#clippath-134);
      }

      .st168 {
        clip-path: url(#clippath-44);
      }

      .st169 {
        clip-path: url(#clippath-115);
      }

      .st170 {
        clip-path: url(#clippath-62);
      }

      .st171 {
        clip-path: url(#clippath-69);
      }
    </style>
    <clipPath id="clippath">
      <polygon class="st30" points="2.9 123.02 908.18 123.02 908.18 1.34 2.9 1.34 2.9 123.02 2.9 123.02"/>
    </clipPath>
    <clipPath id="clippath-1">
      <rect class="st23" x="2.9" y="1.34" width="905.28" height="121.68"/>
    </clipPath>
    <clipPath id="clippath-2">
      <polygon class="st30" points="2.9 123.02 908.18 123.02 908.18 1.34 2.9 1.34 2.9 123.02 2.9 123.02"/>
    </clipPath>
    <clipPath id="clippath-3">
      <polygon class="st30" points="2.9 123.02 908.18 123.02 908.18 1.34 2.9 1.34 2.9 123.02 2.9 123.02"/>
    </clipPath>
    <clipPath id="clippath-4">
      <polygon class="st30" points="2.9 123.02 908.18 123.02 908.18 1.34 2.9 1.34 2.9 123.02 2.9 123.02"/>
    </clipPath>
    <clipPath id="clippath-5">
      <rect class="st23" x="2.9" y="1.34" width="905.28" height="121.68"/>
    </clipPath>
    <clipPath id="clippath-6">
      <polygon class="st30" points="2.9 123.02 908.18 123.02 908.18 1.34 2.9 1.34 2.9 123.02 2.9 123.02"/>
    </clipPath>
    <clipPath id="clippath-7">
      <polygon class="st30" points="2.9 123.02 908.18 123.02 908.18 1.34 2.9 1.34 2.9 123.02 2.9 123.02"/>
    </clipPath>
    <clipPath id="clippath-8">
      <rect class="st23" x="2.9" y="1.34" width="905.28" height="121.68"/>
    </clipPath>
    <clipPath id="clippath-9">
      <polygon class="st30" points="2.9 123.02 908.18 123.02 908.18 1.34 2.9 1.34 2.9 123.02 2.9 123.02"/>
    </clipPath>
    <clipPath id="clippath-10">
      <polygon class="st30" points="2.9 123.02 908.18 123.02 908.18 1.34 2.9 1.34 2.9 123.02 2.9 123.02"/>
    </clipPath>
    <clipPath id="clippath-11">
      <rect class="st23" x="2.9" y="1.34" width="905.28" height="121.68"/>
    </clipPath>
    <clipPath id="clippath-12">
      <polygon class="st30" points="2.9 123.02 908.18 123.02 908.18 1.34 2.9 1.34 2.9 123.02 2.9 123.02"/>
    </clipPath>
    <clipPath id="clippath-13">
      <rect class="st23" x="2.9" y="1.34" width="905.28" height="121.68"/>
    </clipPath>
    <clipPath id="clippath-14">
      <polygon class="st30" points="2.9 123.02 908.18 123.02 908.18 1.34 2.9 1.34 2.9 123.02 2.9 123.02"/>
    </clipPath>
    <clipPath id="clippath-15">
      <polygon class="st30" points="2.9 123.02 908.18 123.02 908.18 1.34 2.9 1.34 2.9 123.02 2.9 123.02"/>
    </clipPath>
    <clipPath id="clippath-16">
      <polygon class="st30" points="2.9 123.02 908.18 123.02 908.18 1.34 2.9 1.34 2.9 123.02 2.9 123.02"/>
    </clipPath>
    <clipPath id="clippath-17">
      <polygon class="st30" points="2.9 123.02 908.18 123.02 908.18 1.34 2.9 1.34 2.9 123.02 2.9 123.02"/>
    </clipPath>
    <clipPath id="clippath-18">
      <rect class="st23" x="2.9" y="1.34" width="905.28" height="121.68"/>
    </clipPath>
    <clipPath id="clippath-19">
      <polygon class="st30" points="2.9 123.02 908.18 123.02 908.18 1.34 2.9 1.34 2.9 123.02 2.9 123.02"/>
    </clipPath>
    <clipPath id="clippath-20">
      <polygon class="st30" points="2.9 123.02 908.18 123.02 908.18 1.34 2.9 1.34 2.9 123.02 2.9 123.02"/>
    </clipPath>
    <clipPath id="clippath-21">
      <polygon class="st30" points="2.9 123.02 908.18 123.02 908.18 1.34 2.9 1.34 2.9 123.02 2.9 123.02"/>
    </clipPath>
    <clipPath id="clippath-22">
      <polygon class="st30" points="2.9 123.02 908.18 123.02 908.18 1.34 2.9 1.34 2.9 123.02 2.9 123.02"/>
    </clipPath>
    <clipPath id="clippath-23">
      <polygon class="st28" points="767.54 47.9 811.46 47.9 811.46 91.82 767.54 91.82 767.54 47.9 767.54 47.9"/>
    </clipPath>
    <clipPath id="clippath-24">
      <polygon class="st23" points="767.54 91.82 811.46 91.82 811.46 47.9 767.54 47.9 767.54 91.82 767.54 91.82"/>
    </clipPath>
    <clipPath id="clippath-25">
      <polygon class="st30" points="2.9 123.02 908.18 123.02 908.18 1.34 2.9 1.34 2.9 123.02 2.9 123.02"/>
    </clipPath>
    <clipPath id="clippath-26">
      <polygon class="st30" points="2.9 123.02 908.18 123.02 908.18 1.34 2.9 1.34 2.9 123.02 2.9 123.02"/>
    </clipPath>
    <clipPath id="clippath-27">
      <polygon class="st20" points="432.26 48.38 476.3 48.38 476.3 92.3 432.26 92.3 432.26 48.38 432.26 48.38"/>
    </clipPath>
    <clipPath id="clippath-28">
      <polygon class="st23" points="432.26 92.3 476.3 92.3 476.3 48.38 432.26 48.38 432.26 92.3 432.26 92.3"/>
    </clipPath>
    <clipPath id="clippath-29">
      <polygon class="st30" points="2.9 123.02 908.18 123.02 908.18 1.34 2.9 1.34 2.9 123.02 2.9 123.02"/>
    </clipPath>
    <clipPath id="clippath-30">
      <polygon class="st30" points="2.9 123.02 908.18 123.02 908.18 1.34 2.9 1.34 2.9 123.02 2.9 123.02"/>
    </clipPath>
    <clipPath id="clippath-31">
      <polygon class="st32" points="588.26 43.7 642.74 43.7 642.74 98.18 588.26 98.18 588.26 43.7 588.26 43.7"/>
    </clipPath>
    <clipPath id="clippath-32">
      <polygon class="st23" points="588.26 98.18 642.74 98.18 642.74 43.7 588.26 43.7 588.26 98.18 588.26 98.18"/>
    </clipPath>
    <clipPath id="clippath-33">
      <polygon class="st30" points="2.9 123.02 908.18 123.02 908.18 1.34 2.9 1.34 2.9 123.02 2.9 123.02"/>
    </clipPath>
    <clipPath id="clippath-34">
      <polygon class="st30" points="2.9 123.02 908.18 123.02 908.18 1.34 2.9 1.34 2.9 123.02 2.9 123.02"/>
    </clipPath>
    <clipPath id="clippath-35">
      <polygon class="st33" points="271.82 46.58 312.14 46.58 312.14 89.42 271.82 89.42 271.82 46.58 271.82 46.58"/>
    </clipPath>
    <clipPath id="clippath-36">
      <polygon class="st23" points="271.82 89.42 312.14 89.42 312.14 46.58 271.82 46.58 271.82 89.42 271.82 89.42"/>
    </clipPath>
    <clipPath id="clippath-37">
      <polygon class="st30" points="2.9 123.02 908.18 123.02 908.18 1.34 2.9 1.34 2.9 123.02 2.9 123.02"/>
    </clipPath>
    <clipPath id="clippath-38">
      <polygon class="st30" points="2.9 123.02 908.18 123.02 908.18 1.34 2.9 1.34 2.9 123.02 2.9 123.02"/>
    </clipPath>
    <clipPath id="clippath-39">
      <polygon class="st22" points="443.3 56.06 465.62 56.06 465.62 77.66 443.3 78.66 443.3 56.06 443.3 56.06"/>
    </clipPath>
    <clipPath id="clippath-40">
      <polygon class="st23" points="443.3 77.66 465.62 77.66 465.62 56.06 443.3 56.06 443.3 77.66 443.3 77.66"/>
    </clipPath>
    <clipPath id="clippath-41">
      <polygon class="st30" points="2.9 123.02 908.18 123.02 908.18 1.34 2.9 1.34 2.9 123.02 2.9 123.02"/>
    </clipPath>
    <clipPath id="clippath-42">
      <polygon class="st30" points="2.9 123.02 908.18 123.02 908.18 1.34 2.9 1.34 2.9 123.02 2.9 123.02"/>
    </clipPath>
    <clipPath id="clippath-43">
      <polygon class="st19" points="75.74 42.74 127.1 42.74 127.1 93.98 75.74 93.98 75.74 42.74 75.74 42.74"/>
    </clipPath>
    <clipPath id="clippath-44">
      <polygon class="st23" points="75.74 93.98 127.1 93.98 127.1 42.74 75.74 42.74 75.74 93.98 75.74 93.98"/>
    </clipPath>
    <clipPath id="clippath-45">
      <rect class="st23" x="24.3" y="133.72" width="120.48" height="52.92"/>
    </clipPath>
    <clipPath id="clippath-46">
      <polygon class="st30" points="24.3 186.64 144.78 186.64 144.78 133.72 24.3 133.72 24.3 186.64 24.3 186.64"/>
    </clipPath>
    <clipPath id="clippath-47">
      <rect class="st23" x="24.3" y="133.72" width="120.48" height="52.92"/>
    </clipPath>
    <clipPath id="clippath-48">
      <polygon class="st30" points="24.3 186.64 144.78 186.64 144.78 133.72 24.3 133.72 24.3 186.64 24.3 186.64"/>
    </clipPath>
    <clipPath id="clippath-49">
      <rect class="st23" x="24.3" y="133.72" width="120.48" height="52.92"/>
    </clipPath>
    <clipPath id="clippath-50">
      <polygon class="st30" points="24.3 186.64 144.78 186.64 144.78 133.72 24.3 133.72 24.3 186.64 24.3 186.64"/>
    </clipPath>
    <clipPath id="clippath-51">
      <rect class="st23" x="24.3" y="133.72" width="120.48" height="52.92"/>
    </clipPath>
    <clipPath id="clippath-52">
      <rect class="st23" x="24.22" y="203.32" width="56.64" height="33.72"/>
    </clipPath>
    <clipPath id="clippath-53">
      <polygon class="st30" points="220.04 181.14 457.04 181.14 457.04 143.22 220.04 143.22 220.04 181.14 220.04 181.14"/>
    </clipPath>
    <clipPath id="clippath-54">
      <rect class="st23" x="220.04" y="143.22" width="237" height="37.92"/>
    </clipPath>
    <clipPath id="clippath-55">
      <polygon class="st30" points="220.04 181.14 457.04 181.14 457.04 143.22 220.04 143.22 220.04 181.14 220.04 181.14"/>
    </clipPath>
    <clipPath id="clippath-56">
      <rect class="st23" x="220.04" y="143.22" width="237" height="37.92"/>
    </clipPath>
    <clipPath id="clippath-57">
      <polygon class="st30" points="646.56 180.5 883.56 180.5 883.56 142.58 646.56 142.58 646.56 180.5 646.56 180.5"/>
    </clipPath>
    <clipPath id="clippath-58">
      <rect class="st23" x="646.56" y="142.58" width="237" height="37.92"/>
    </clipPath>
    <clipPath id="clippath-59">
      <polygon class="st30" points="646.56 180.5 883.56 180.5 883.56 142.58 646.56 142.58 646.56 180.5 646.56 180.5"/>
    </clipPath>
    <clipPath id="clippath-60">
      <rect class="st23" x="646.56" y="142.58" width="237" height="37.92"/>
    </clipPath>
    <clipPath id="clippath-61">
      <rect class="st23" x="663.55" y="193.15" width="113.16" height="59.04"/>
    </clipPath>
    <clipPath id="clippath-62">
      <polygon class="st30" points="663.55 252.19 776.71 252.19 776.71 193.15 663.55 193.15 663.55 252.19 663.55 252.19"/>
    </clipPath>
    <clipPath id="clippath-63">
      <rect class="st23" x="663.55" y="193.15" width="113.16" height="59.04"/>
    </clipPath>
    <clipPath id="clippath-64">
      <polygon class="st30" points="663.55 252.19 776.71 252.19 776.71 193.15 663.55 193.15 663.55 252.19 663.55 252.19"/>
    </clipPath>
    <clipPath id="clippath-65">
      <polygon class="st30" points="663.55 252.19 776.71 252.19 776.71 193.15 663.55 193.15 663.55 252.19 663.55 252.19"/>
    </clipPath>
    <clipPath id="clippath-66">
      <polygon class="st30" points="663.55 252.19 776.71 252.19 776.71 193.15 663.55 193.15 663.55 252.19 663.55 252.19"/>
    </clipPath>
    <clipPath id="clippath-67">
      <polygon class="st30" points="663.55 252.19 776.71 252.19 776.71 193.15 663.55 193.15 663.55 252.19 663.55 252.19"/>
    </clipPath>
    <clipPath id="clippath-68">
      <rect class="st23" x="811.15" y="243.71" width="75.96" height="37.92"/>
    </clipPath>
    <clipPath id="clippath-69">
      <rect class="st23" x="23.75" y="329.21" width="86.76" height="52.92"/>
    </clipPath>
    <clipPath id="clippath-70">
      <polygon class="st30" points="23.75 382.13 110.51 382.13 110.51 329.21 23.75 329.21 23.75 382.13 23.75 382.13"/>
    </clipPath>
    <clipPath id="clippath-71">
      <rect class="st23" x="23.75" y="329.21" width="86.76" height="52.92"/>
    </clipPath>
    <clipPath id="clippath-72">
      <polygon class="st30" points="57.83 315.03 886.43 315.03 886.43 122.31 57.83 122.31 57.83 315.03 57.83 315.03"/>
    </clipPath>
    <clipPath id="clippath-73">
      <rect class="st23" x="57.83" y="122.31" width="828.6" height="192.72"/>
    </clipPath>
    <clipPath id="clippath-74">
      <polygon class="st30" points="57.83 315.03 886.43 315.03 886.43 122.31 57.83 122.31 57.83 315.03 57.83 315.03"/>
    </clipPath>
    <clipPath id="clippath-75">
      <polygon class="st30" points="57.83 315.03 886.43 315.03 886.43 122.31 57.83 122.31 57.83 315.03 57.83 315.03"/>
    </clipPath>
    <clipPath id="clippath-76">
      <rect class="st23" x="57.83" y="122.31" width="828.6" height="192.72"/>
    </clipPath>
    <clipPath id="clippath-77">
      <polygon class="st30" points="57.83 315.03 886.43 315.03 886.43 122.31 57.83 122.31 57.83 315.03 57.83 315.03"/>
    </clipPath>
    <clipPath id="clippath-78">
      <polygon class="st30" points="57.83 315.03 886.43 315.03 886.43 122.31 57.83 122.31 57.83 315.03 57.83 315.03"/>
    </clipPath>
    <clipPath id="clippath-79">
      <rect class="st23" x="57.83" y="122.31" width="828.6" height="192.72"/>
    </clipPath>
    <clipPath id="clippath-80">
      <polygon class="st30" points="57.83 315.03 886.43 315.03 886.43 122.31 57.83 122.31 57.83 315.03 57.83 315.03"/>
    </clipPath>
    <clipPath id="clippath-81">
      <polygon class="st30" points="57.83 315.03 886.43 315.03 886.43 122.31 57.83 122.31 57.83 315.03 57.83 315.03"/>
    </clipPath>
    <clipPath id="clippath-82">
      <rect class="st23" x="57.83" y="122.31" width="828.6" height="192.72"/>
    </clipPath>
    <clipPath id="clippath-83">
      <polygon class="st30" points="57.83 315.03 886.43 315.03 886.43 122.31 57.83 122.31 57.83 315.03 57.83 315.03"/>
    </clipPath>
    <clipPath id="clippath-84">
      <rect class="st23" x="57.83" y="122.31" width="828.6" height="192.72"/>
    </clipPath>
    <clipPath id="clippath-85">
      <polygon class="st30" points="57.83 315.03 886.43 315.03 886.43 122.31 57.83 122.31 57.83 315.03 57.83 315.03"/>
    </clipPath>
    <clipPath id="clippath-86">
      <polygon class="st30" points="57.83 315.03 886.43 315.03 886.43 122.31 57.83 122.31 57.83 315.03 57.83 315.03"/>
    </clipPath>
    <clipPath id="clippath-87">
      <polygon class="st30" points="57.83 315.03 886.43 315.03 886.43 122.31 57.83 122.31 57.83 315.03 57.83 315.03"/>
    </clipPath>
    <clipPath id="clippath-88">
      <polygon class="st30" points="57.83 315.03 886.43 315.03 886.43 122.31 57.83 122.31 57.83 315.03 57.83 315.03"/>
    </clipPath>
    <clipPath id="clippath-89">
      <polygon class="st30" points="57.83 315.03 886.43 315.03 886.43 122.31 57.83 122.31 57.83 315.03 57.83 315.03"/>
    </clipPath>
    <clipPath id="clippath-90">
      <polygon class="st30" points="57.83 315.03 886.43 315.03 886.43 122.31 57.83 122.31 57.83 315.03 57.83 315.03"/>
    </clipPath>
    <clipPath id="clippath-91">
      <polygon class="st30" points="57.83 315.03 886.43 315.03 886.43 122.31 57.83 122.31 57.83 315.03 57.83 315.03"/>
    </clipPath>
    <clipPath id="clippath-92">
      <polygon class="st30" points="57.83 315.03 886.43 315.03 886.43 122.31 57.83 122.31 57.83 315.03 57.83 315.03"/>
    </clipPath>
    <clipPath id="clippath-93">
      <rect class="st23" x="57.83" y="122.31" width="828.6" height="192.72"/>
    </clipPath>
    <clipPath id="clippath-94">
      <polygon class="st30" points="57.83 315.03 886.43 315.03 886.43 122.31 57.83 122.31 57.83 315.03 57.83 315.03"/>
    </clipPath>
    <clipPath id="clippath-95">
      <polygon class="st30" points="57.83 315.03 886.43 315.03 886.43 122.31 57.83 122.31 57.83 315.03 57.83 315.03"/>
    </clipPath>
    <clipPath id="clippath-96">
      <polygon class="st30" points="57.83 315.03 886.43 315.03 886.43 122.31 57.83 122.31 57.83 315.03 57.83 315.03"/>
    </clipPath>
    <clipPath id="clippath-97">
      <polygon class="st30" points="57.83 315.03 886.43 315.03 886.43 122.31 57.83 122.31 57.83 315.03 57.83 315.03"/>
    </clipPath>
    <clipPath id="clippath-98">
      <rect class="st23" x="57.83" y="122.31" width="828.6" height="192.72"/>
    </clipPath>
    <clipPath id="clippath-99">
      <polygon class="st30" points="57.83 315.03 886.43 315.03 886.43 122.31 57.83 122.31 57.83 315.03 57.83 315.03"/>
    </clipPath>
    <clipPath id="clippath-100">
      <rect class="st23" x="57.83" y="122.31" width="828.6" height="192.72"/>
    </clipPath>
    <clipPath id="clippath-101">
      <polygon class="st30" points="57.83 315.03 886.43 315.03 886.43 122.31 57.83 122.31 57.83 315.03 57.83 315.03"/>
    </clipPath>
    <clipPath id="clippath-102">
      <rect class="st23" x="57.83" y="122.31" width="828.6" height="192.72"/>
    </clipPath>
    <clipPath id="clippath-103">
      <polygon class="st30" points="57.83 315.03 886.43 315.03 886.43 122.31 57.83 122.31 57.83 315.03 57.83 315.03"/>
    </clipPath>
    <clipPath id="clippath-104">
      <polygon class="st30" points="57.83 315.03 886.43 315.03 886.43 122.31 57.83 122.31 57.83 315.03 57.83 315.03"/>
    </clipPath>
    <clipPath id="clippath-105">
      <polygon class="st30" points="57.83 315.03 886.43 315.03 886.43 122.31 57.83 122.31 57.83 315.03 57.83 315.03"/>
    </clipPath>
    <clipPath id="clippath-106">
      <polygon class="st30" points="57.83 315.03 886.43 315.03 886.43 122.31 57.83 122.31 57.83 315.03 57.83 315.03"/>
    </clipPath>
    <clipPath id="clippath-107">
      <polygon class="st30" points="57.83 315.03 886.43 315.03 886.43 122.31 57.83 122.31 57.83 315.03 57.83 315.03"/>
    </clipPath>
    <clipPath id="clippath-108">
      <polygon class="st30" points="57.83 315.03 886.43 315.03 886.43 122.31 57.83 122.31 57.83 315.03 57.83 315.03"/>
    </clipPath>
    <clipPath id="clippath-109">
      <polygon class="st30" points="219.7 459.58 773.38 459.58 773.38 314.86 219.7 314.86 219.7 459.58 219.7 459.58"/>
    </clipPath>
    <clipPath id="clippath-110">
      <polygon class="st30" points="219.7 459.58 773.38 459.58 773.38 314.86 219.7 314.86 219.7 459.58 219.7 459.58"/>
    </clipPath>
    <clipPath id="clippath-111">
      <rect class="st23" x="219.7" y="314.86" width="553.68" height="144.72"/>
    </clipPath>
    <clipPath id="clippath-112">
      <polygon class="st30" points="219.7 459.58 773.38 459.58 773.38 314.86 219.7 314.86 219.7 459.58 219.7 459.58"/>
    </clipPath>
    <clipPath id="clippath-113">
      <rect class="st23" x="219.7" y="314.86" width="553.68" height="144.72"/>
    </clipPath>
    <clipPath id="clippath-114">
      <polygon class="st30" points="219.7 459.58 773.38 459.58 773.38 314.86 219.7 314.86 219.7 459.58 219.7 459.58"/>
    </clipPath>
    <clipPath id="clippath-115">
      <polygon class="st30" points="219.7 459.58 773.38 459.58 773.38 314.86 219.7 314.86 219.7 459.58 219.7 459.58"/>
    </clipPath>
    <clipPath id="clippath-116">
      <polygon class="st30" points="219.7 459.58 773.38 459.58 773.38 314.86 219.7 314.86 219.7 459.58 219.7 459.58"/>
    </clipPath>
    <clipPath id="clippath-117">
      <polygon class="st30" points="219.7 459.58 773.38 459.58 773.38 314.86 219.7 314.86 219.7 459.58 219.7 459.58"/>
    </clipPath>
    <clipPath id="clippath-118">
      <polygon class="st30" points="219.7 459.58 773.38 459.58 773.38 314.86 219.7 314.86 219.7 459.58 219.7 459.58"/>
    </clipPath>
    <clipPath id="clippath-119">
      <rect class="st23" x="219.7" y="314.86" width="553.68" height="144.72"/>
    </clipPath>
    <clipPath id="clippath-120">
      <polygon class="st30" points="219.7 459.58 773.38 459.58 773.38 314.86 219.7 314.86 219.7 459.58 219.7 459.58"/>
    </clipPath>
    <clipPath id="clippath-121">
      <rect class="st23" x="219.7" y="314.86" width="553.68" height="144.72"/>
    </clipPath>
    <clipPath id="clippath-122">
      <polygon class="st30" points="219.7 459.58 773.38 459.58 773.38 314.86 219.7 314.86 219.7 459.58 219.7 459.58"/>
    </clipPath>
    <clipPath id="clippath-123">
      <rect class="st23" x="219.7" y="314.86" width="553.68" height="144.72"/>
    </clipPath>
    <clipPath id="clippath-124">
      <polygon class="st30" points="219.7 459.58 773.38 459.58 773.38 314.86 219.7 314.86 219.7 459.58 219.7 459.58"/>
    </clipPath>
    <clipPath id="clippath-125">
      <polygon class="st30" points="219.7 459.58 773.38 459.58 773.38 314.86 219.7 314.86 219.7 459.58 219.7 459.58"/>
    </clipPath>
    <clipPath id="clippath-126">
      <polygon class="st35" points="262.9 314.86 332.26 314.86 332.26 383.5 262.9 383.5 262.9 314.86 262.9 314.86"/>
    </clipPath>
    <clipPath id="clippath-127">
      <polygon class="st23" points="262.9 383.5 332.26 383.5 332.26 314.86 262.9 314.86 262.9 383.5 262.9 383.5"/>
    </clipPath>
    <clipPath id="clippath-128">
      <polygon class="st30" points="219.7 459.58 773.38 459.58 773.38 314.86 219.7 314.86 219.7 459.58 219.7 459.58"/>
    </clipPath>
    <clipPath id="clippath-129">
      <polygon class="st30" points="219.7 459.58 773.38 459.58 773.38 314.86 219.7 314.86 219.7 459.58 219.7 459.58"/>
    </clipPath>
    <clipPath id="clippath-130">
      <polygon class="st25" points="263.5 391.06 332.86 391.06 332.86 459.58 263.5 459.58 263.5 391.06 263.5 391.06"/>
    </clipPath>
    <clipPath id="clippath-131">
      <polygon class="st23" points="263.5 459.58 332.86 459.58 332.86 391.06 263.5 391.06 263.5 459.58 263.5 459.58"/>
    </clipPath>
    <clipPath id="clippath-132">
      <polygon class="st30" points="219.7 459.58 773.38 459.58 773.38 314.86 219.7 314.86 219.7 459.58 219.7 459.58"/>
    </clipPath>
    <clipPath id="clippath-133">
      <polygon class="st30" points="219.7 459.58 773.38 459.58 773.38 314.86 219.7 314.86 219.7 459.58 219.7 459.58"/>
    </clipPath>
    <clipPath id="clippath-134">
      <polygon class="st31" points="703.42 352.3 772.3 352.3 772.3 420.46 703.42 420.46 703.42 352.3 703.42 352.3"/>
    </clipPath>
    <clipPath id="clippath-135">
      <polygon class="st23" points="703.42 420.46 772.3 420.46 772.3 352.3 703.42 352.3 703.42 420.46 703.42 420.46"/>
    </clipPath>
    <clipPath id="clippath-136">
      <polygon class="st30" points="219.7 459.58 773.38 459.58 773.38 314.86 219.7 314.86 219.7 459.58 219.7 459.58"/>
    </clipPath>
    <clipPath id="clippath-137">
      <polygon class="st30" points="219.7 459.58 773.38 459.58 773.38 314.86 219.7 314.86 219.7 459.58 219.7 459.58"/>
    </clipPath>
    <clipPath id="clippath-138">
      <polygon class="st26" points="436.3 315.34 505.18 315.34 505.18 383.5 436.3 383.5 436.3 315.34 436.3 315.34"/>
    </clipPath>
    <clipPath id="clippath-139">
      <polygon class="st23" points="436.3 383.5 505.18 383.5 505.18 315.34 436.3 315.34 436.3 383.5 436.3 383.5"/>
    </clipPath>
    <clipPath id="clippath-140">
      <polygon class="st30" points="219.7 459.58 773.38 459.58 773.38 314.86 219.7 314.86 219.7 459.58 219.7 459.58"/>
    </clipPath>
    <clipPath id="clippath-141">
      <polygon class="st30" points="219.7 459.58 773.38 459.58 773.38 314.86 219.7 314.86 219.7 459.58 219.7 459.58"/>
    </clipPath>
    <clipPath id="clippath-142">
      <polygon class="st34" points="435.58 391.06 504.82 391.06 504.82 459.58 435.58 459.58 435.58 391.06 435.58 391.06"/>
    </clipPath>
    <clipPath id="clippath-143">
      <polygon class="st23" points="435.58 459.58 504.82 459.58 504.82 391.06 435.58 391.06 435.58 459.58 435.58 459.58"/>
    </clipPath>
  </defs>
  <g>
    <rect class="st36" x="3.68" y="2.12" width="903.72" height="96" rx="16" ry="16"/>
    <g class="st162">
      <g class="st102">
        <text class="st89" transform="translate(37.59 41.93)"><tspan x="0" y="0">Control Condition </tspan></text>
      </g>
      <g class="st149">
        <path class="st50" d="M181.63,29.79c1,0,1.99.14,2.95.43l-.56,2.57h-1.15c-.02-.52-.07-.91-.16-1.18s-.23-.46-.41-.59-.44-.2-.76-.2c-.49,0-.98.19-1.46.58s-.92.97-1.33,1.75-.74,1.71-.98,2.77-.37,2.03-.37,2.88c0,.49.05.9.14,1.22s.25.57.47.75.54.26.94.26c.61,0,1.11-.15,1.52-.46s.76-.83,1.09-1.57h1.15l-.56,2.59c-.57.16-1.13.28-1.7.36s-1.17.11-1.81.11c-1.25,0-2.21-.34-2.87-1.02s-1-1.67-1-2.95c0-.49.05-1.05.16-1.68.17-1,.45-1.93.84-2.78s.89-1.56,1.48-2.14,1.26-1.01,2-1.29,1.54-.42,2.4-.42h0Z"/>
        <g class="st121">
          <polygon class="st37" points="193.7 46.55 238.64 46.55 238.64 39.26 253.22 53.84 238.64 68.42 238.64 61.13 193.7 61.13 193.7 46.55 193.7 46.55"/>
          <g class="st42">
            <g class="st113">
              <text class="st89" transform="translate(264.55 41.62)"><tspan x="0" y="0">Prompt</tspan></text>
            </g>
            <g class="st5">
              <polygon class="st37" points="330.38 45.56 375.38 45.56 375.38 38.3 389.9 52.82 375.38 67.34 375.38 60.08 330.38 60.08 330.38 45.56 330.38 45.56"/>
              <g class="st6">
                <g class="st116">
                  <text class="st89" transform="translate(400.91 41.62)"><tspan x="0" y="0">Modified Input</tspan></text>
                </g>
                <g class="st61">
                  <polygon class="st37" points="522.5 45.47 567.44 45.47 567.44 38.18 582.02 52.76 567.44 67.34 567.44 60.05 522.5 60.05 522.5 45.47 522.5 45.47"/>
                  <g class="st66">
                    <g class="st81">
                      <text class="st89" transform="translate(722.99 40.85)"><tspan x="0" y="0">Controlled Output</tspan></text>
                    </g>
                    <g class="st123">
                      <g class="st156">
                        <text class="st89" transform="translate(593.38 40.85)"><tspan x="0" y="0">Model</tspan></text>
                      </g>
                      <g class="st127">
                        <polygon class="st37" points="655.34 43.16 700.46 43.16 700.46 35.9 714.98 50.42 700.46 64.94 700.46 57.68 655.34 57.68 655.34 43.16 655.34 43.16"/>
                        <g class="st15">
                          <line class="st36" x1="257.36" y1="1.84" x2="257.5" y2="98.5"/>
                          <g class="st147">
                            <line class="st36" x1="718.52" y1="1.8" x2="718.5" y2="97.5"/>
                            <g class="st7">
                              <g class="st40">
                                <text class="st89" transform="translate(321.41 27.88)"><tspan x="0" y="0">+ Context</tspan></text>
                              </g>
                              <g class="st131">
                                <line class="st36" x1="257.41" y1="98.12" x2="63.5" y2="119.5"/>
                                <g class="st114">
                                  <line class="st36" x1="719.36" y1="98.72" x2="847.5" y2="119.5"/>
                                  <g class="st4">
                                    <g class="st53">
                                      <g class="st160">
                                        <path class="st9" d="M781.85,79.31h14.99c.81,0,1.45.64,1.45,1.42s-.64,1.42-1.45,1.42h-14.99c-.8,0-1.45-.64-1.45-1.42s.65-1.42,1.45-1.42h0ZM781.85,72.2h10.63c.8,0,1.45.64,1.45,1.42s-.65,1.42-1.45,1.42h-10.63c-.8,0-1.45-.64-1.45-1.42s.65-1.42,1.45-1.42h0ZM781.85,65.09h14.99c.81,0,1.45.64,1.45,1.42s-.64,1.42-1.45,1.42h-14.99c-.8,0-1.45-.64-1.45-1.42s.65-1.42,1.45-1.42h0ZM781.85,57.97h7.72c.81,0,1.45.64,1.45,1.42s-.64,1.42-1.45,1.42h-7.72c-.8,0-1.45-.64-1.45-1.42s.65-1.42,1.45-1.42h0ZM799.98,52.18c-.09,0-.17.03-.23.09l-1.3,1.27c-.66.64-1.75.62-2.39,0l-1.28-1.25c-.06-.06-.14-.09-.22-.09s-.17.03-.23.09l-1.27,1.25c-.66.63-1.75.62-2.38,0l-1.16-1.13c-.12-.12-.33-.12-.45,0l-1.14,1.12c-.66.63-1.75.62-2.38,0l-1.16-1.13c-.13-.12-.32-.12-.45,0l-1.14,1.12c-.66.63-1.75.62-2.39,0l-1.15-1.13c-.06-.06-.14-.09-.22-.09s-.16.03-.23.09l-.89.87v33.27l.89.87c.13.12.33.12.45,0l1.14-1.12c.66-.64,1.75-.62,2.38-.01l1.16,1.13c.12.12.33.12.45,0l1.14-1.12c.66-.64,1.75-.62,2.38-.01l1.15,1.13c.12.12.33.12.45,0l1.14-1.12c.66-.64,1.75-.62,2.38-.01l1.29,1.27c.06.06.15.09.23.09s.16-.03.22-.09l1.28-1.25c.32-.31.74-.49,1.2-.49s.87.17,1.19.48l1.31,1.29c.06.06.14.09.23.09s.16-.03.22-.09l1.04-1.02v-33.27l-1.04-1.02c-.06-.06-.14-.09-.22-.09h0ZM799.96,48.73c.44,0,.88.15,1.21.46l2.35,2.3c.41.4.64.94.64,1.51v33.85c0,.57-.23,1.11-.64,1.51l-2.34,2.3c-.33.32-.75.48-1.2.48s-.89-.18-1.21-.49l-1.52-1.49-1.5,1.47c-.66.64-1.75.62-2.38.01l-1.52-1.49-1.37,1.34c-.66.63-1.75.62-2.38,0l-1.38-1.35-1.37,1.34c-.65.63-1.75.62-2.38,0l-1.38-1.35-1.37,1.34c-.66.63-1.75.62-2.38,0l-2.19-2.15c-.41-.4-.64-.94-.64-1.51v-33.85c0-.57.22-1.11.64-1.51l2.19-2.14c.65-.63,1.75-.62,2.38,0l1.37,1.35,1.37-1.34c.66-.63,1.75-.62,2.38,0l1.38,1.35,1.37-1.34c.65-.63,1.74-.62,2.38,0l1.37,1.35,1.5-1.47c.66-.64,1.75-.62,2.39-.01l1.51,1.49,1.53-1.5c.3-.31.74-.46,1.18-.46h0Z"/>
                                      </g>
                                    </g>
                                    <g class="st72">
                                      <g class="st73">
                                        <g class="st100">
                                          <path class="st47" d="M446.61,79.79h15.03c.81,0,1.46.64,1.46,1.42s-.65,1.42-1.46,1.42h-15.03c-.8,0-1.46-.64-1.46-1.42s.65-1.42,1.46-1.42h0ZM446.61,72.68h10.66c.8,0,1.46.64,1.46,1.42s-.65,1.42-1.46,1.42h-10.66c-.8,0-1.46-.64-1.46-1.42s.65-1.42,1.46-1.42h0ZM446.61,65.57h15.03c.81,0,1.46.64,1.46,1.42s-.65,1.42-1.46,1.42h-15.03c-.8,0-1.46-.64-1.46-1.42s.65-1.42,1.46-1.42h0ZM446.61,58.45h7.74c.81,0,1.46.64,1.46,1.42s-.65,1.42-1.46,1.42h-7.74c-.8,0-1.46-.64-1.46-1.42s.65-1.42,1.46-1.42h0ZM464.79,52.66c-.09,0-.17.03-.23.09l-1.3,1.27c-.66.64-1.76.62-2.4,0l-1.28-1.25c-.06-.06-.14-.09-.22-.09s-.17.03-.23.09l-1.28,1.25c-.66.63-1.75.62-2.39,0l-1.16-1.13c-.12-.12-.33-.12-.45,0l-1.15,1.12c-.66.63-1.75.62-2.39,0l-1.16-1.13c-.13-.12-.32-.12-.45,0l-1.15,1.12c-.66.63-1.75.62-2.4,0l-1.15-1.13c-.06-.06-.14-.09-.22-.09s-.16.03-.23.09l-.89.87v33.27l.89.87c.13.12.33.12.45,0l1.15-1.12c.66-.64,1.75-.62,2.39-.01l1.16,1.13c.12.12.33.12.45,0l1.15-1.12c.66-.64,1.75-.62,2.39-.01l1.15,1.13c.12.12.33.12.45,0l1.15-1.12c.66-.64,1.75-.62,2.39-.01l1.29,1.27c.06.06.15.09.23.09s.16-.03.22-.09l1.28-1.25c.32-.31.74-.49,1.2-.49s.87.17,1.19.48l1.31,1.29c.06.06.14.09.23.09s.16-.03.22-.09l1.05-1.02v-33.27l-1.05-1.02c-.06-.06-.14-.09-.22-.09h0ZM464.77,49.21c.44,0,.89.15,1.21.46l2.35,2.3c.41.4.65.94.65,1.51v33.85c0,.57-.23,1.11-.65,1.51l-2.34,2.3c-.33.32-.75.48-1.2.48s-.9-.18-1.21-.49l-1.52-1.49-1.51,1.47c-.66.64-1.75.62-2.39.01l-1.52-1.49-1.37,1.34c-.66.63-1.75.62-2.39,0l-1.38-1.35-1.38,1.34c-.65.63-1.75.62-2.39,0l-1.38-1.35-1.37,1.34c-.66.63-1.75.62-2.39,0l-2.2-2.15c-.41-.4-.64-.94-.64-1.51v-33.85c0-.57.22-1.11.64-1.51l2.19-2.14c.65-.63,1.75-.62,2.39,0l1.38,1.35,1.38-1.34c.66-.63,1.75-.62,2.39,0l1.38,1.35,1.38-1.34c.65-.63,1.75-.62,2.39,0l1.38,1.35,1.51-1.47c.66-.64,1.75-.62,2.4-.01l1.51,1.49,1.53-1.5c.3-.31.74-.46,1.18-.46h0Z"/>
                                        </g>
                                      </g>
                                      <g class="st150">
                                        <g class="st11">
                                          <g class="st138">
                                            <path class="st58" d="M624.94,84.64h-18.51c-2.32,0-4.21,1.88-4.21,4.21s1.88,4.21,4.21,4.21h18.51c2.32,0,4.21-1.88,4.21-4.21s-1.88-4.21-4.21-4.21h0ZM607.56,90.53c-.93,0-1.68-.75-1.68-1.68s.75-1.68,1.68-1.68,1.68.75,1.68,1.68-.75,1.68-1.68,1.68h0ZM615.69,90.53c-.93,0-1.68-.75-1.68-1.68s.75-1.68,1.68-1.68,1.68.75,1.68,1.68-.75,1.68-1.68,1.68h0ZM623.82,90.53c-.93,0-1.68-.75-1.68-1.68s.75-1.68,1.68-1.68,1.68.75,1.68,1.68-.75,1.68-1.68,1.68h0Z"/>
                                            <path class="st58" d="M619.57,59.96c0,.46-.38.84-.84.84s-.84-.38-.84-.84.38-.84.84-.84.84.38.84.84h0Z"/>
                                            <path class="st58" d="M620.56,54.35h-3.71v-2.55c1.07-.62,1.44-1.99.82-3.06s-1.99-1.44-3.06-.82c-1.07.62-1.44,1.99-.82,3.06.2.34.48.62.82.82v2.55h-3.71c-1.36,0-2.46,1.1-2.46,2.46v6.29c0,1.36,1.1,2.46,2.46,2.46h9.66c1.36,0,2.46-1.1,2.46-2.46v-6.29c0-1.36-1.1-2.46-2.46-2.46h0ZM612.93,61.64c-.93,0-1.68-.75-1.68-1.68s.75-1.68,1.68-1.68,1.68.75,1.68,1.68-.75,1.68-1.68,1.68h0ZM618.54,61.64c-.93,0-1.68-.75-1.68-1.68s.75-1.68,1.68-1.68,1.68.75,1.68,1.68-.75,1.68-1.68,1.68h0Z"/>
                                            <path class="st58" d="M613.96,59.96c0,.46-.38.84-.84.84s-.84-.38-.84-.84.38-.84.84-.84.84.38.84.84h0Z"/>
                                            <path class="st58" d="M630.32,77.25v-4.67c0-1.39-1.13-2.52-2.52-2.52h-3.09v-2.8h-17.95v3.36h-4.21c-.15,0-.27-.12-.27-.27v-4.65c1.93-.57,3.03-2.59,2.46-4.52-.15-.52-.42-.99-.78-1.4l-1.68,1.49c.24.26.37.59.38.94,0,.77-.64,1.4-1.41,1.39-.77,0-1.4-.64-1.39-1.41,0-.33.12-.66.34-.91l-1.68-1.47c-1.32,1.52-1.16,3.82.36,5.14.34.3.74.53,1.17.68v4.71c0,1.39,1.13,2.52,2.52,2.52h4.21v10.09h17.95v-10.66h3.09c.15,0,.27.12.27.27v4.67c-1.92.62-2.97,2.67-2.35,4.59.16.48.41.92.74,1.3l1.68-1.49c-.23-.25-.36-.59-.36-.93,0-.77.63-1.4,1.4-1.4.77,0,1.4.63,1.4,1.4,0,.34-.12.67-.35.92l1.68,1.47c1.33-1.51,1.18-3.81-.33-5.14-.37-.33-.81-.58-1.28-.73h0ZM622.47,75.1h-1.56c-.05,0-.11.03-.15.06l-1.72,1.76-1.31-3.1-2.44,5.05-1.71-6.57-1.32,2.8h-2.7v-1.12h1.99l2.33-4.96,1.73,6.61,2.19-4.49,1.62,3.82.56-.56c.25-.25.58-.4.93-.42h1.56v1.12h0Z"/>
                                          </g>
                                        </g>
                                        <g class="st16">
                                          <g class="st96">
                                            <g class="st94">
                                              <path class="st51" d="M277.12,93.94h29.13c1.57,0,2.82,1.24,2.82,2.77s-1.25,2.77-2.82,2.77h-29.13c-1.56,0-2.82-1.24-2.82-2.77s1.26-2.77,2.82-2.77h0ZM277.12,80.07h20.66c1.56,0,2.82,1.24,2.82,2.77s-1.26,2.77-2.82,2.77h-20.66c-1.56,0-2.82-1.24-2.82-2.77s1.26-2.77,2.82-2.77h0ZM277.12,66.2h29.13c1.57,0,2.82,1.24,2.82,2.77s-1.25,2.77-2.82,2.77h-29.13c-1.56,0-2.82-1.24-2.82-2.77s1.26-2.77,2.82-2.77h0ZM277.12,52.32h15.01c1.57,0,2.82,1.24,2.82,2.77s-1.25,2.77-2.82,2.77h-15.01c-1.56,0-2.82-1.24-2.82-2.77s1.26-2.77,2.82-2.77h0ZM312.35,41.03c-.17,0-.33.06-.45.18l-2.53,2.48c-1.28,1.24-3.41,1.22-4.65,0l-2.49-2.45c-.11-.11-.27-.18-.43-.18s-.33.06-.45.18l-2.48,2.45c-1.28,1.23-3.4,1.22-4.64.01l-2.25-2.2c-.24-.24-.64-.24-.88,0l-2.22,2.18c-1.28,1.23-3.4,1.22-4.63.01l-2.25-2.2c-.24-.24-.63-.24-.87,0l-2.22,2.18c-1.28,1.23-3.4,1.22-4.65.01l-2.23-2.2c-.11-.11-.27-.18-.43-.18s-.32.06-.45.18l-1.72,1.69v64.89l1.72,1.69c.24.24.64.24.88,0l2.22-2.18c1.28-1.24,3.4-1.22,4.63-.02l2.25,2.21c.24.24.64.24.88,0l2.22-2.18c1.28-1.24,3.4-1.22,4.63-.02l2.23,2.21c.24.24.64.24.88,0l2.22-2.18c1.28-1.24,3.4-1.22,4.63-.02l2.5,2.47c.12.11.28.18.45.18s.32-.06.43-.18l2.49-2.45c.61-.61,1.44-.95,2.32-.95s1.69.34,2.31.93l2.54,2.51c.11.11.28.18.45.18s.32-.06.43-.18l2.03-1.99V43.2l-2.03-1.99c-.11-.11-.27-.18-.43-.18h0ZM312.31,34.3c.86,0,1.72.29,2.35.89l4.56,4.49c.8.78,1.25,1.83,1.25,2.95v66.02c0,1.12-.45,2.17-1.25,2.95l-4.55,4.48c-.64.62-1.46.94-2.32.94s-1.74-.35-2.35-.97l-2.95-2.9-2.92,2.87c-1.28,1.24-3.4,1.22-4.63.03l-2.95-2.9-2.66,2.62c-1.28,1.23-3.4,1.22-4.63.01l-2.68-2.63-2.67,2.62c-1.26,1.23-3.4,1.22-4.64.01l-2.68-2.63-2.66,2.62c-1.28,1.23-3.4,1.22-4.63.01l-4.26-4.19c-.8-.78-1.24-1.83-1.24-2.95V42.63c0-1.12.43-2.17,1.24-2.95l4.25-4.18c1.26-1.23,3.4-1.22,4.63-.01l2.67,2.63,2.67-2.62c1.28-1.23,3.4-1.22,4.63-.01l2.68,2.63,2.67-2.62c1.26-1.23,3.38-1.22,4.63-.01l2.67,2.63,2.92-2.87c1.28-1.24,3.4-1.22,4.65-.03l2.94,2.9,2.98-2.92c.59-.6,1.43-.9,2.29-.9h0Z"/>
                                            </g>
                                          </g>
                                          <g class="st153">
                                            <g class="st143">
                                              <g class="st111">
                                                <path class="st51" d="M446.23,79.94h16.12c.87,0,1.56.63,1.56,1.4s-.69,1.4-1.56,1.4h-16.12c-.86,0-1.56-.63-1.56-1.4s.7-1.4,1.56-1.4h0ZM446.23,72.95h11.44c.86,0,1.56.63,1.56,1.4s-.7,1.4-1.56,1.4h-11.44c-.86,0-1.56-.63-1.56-1.4s.7-1.4,1.56-1.4h0ZM446.23,65.95h16.12c.87,0,1.56.63,1.56,1.4s-.69,1.4-1.56,1.4h-16.12c-.86,0-1.56-.63-1.56-1.4s.7-1.4,1.56-1.4h0ZM446.23,58.95h8.31c.87,0,1.56.63,1.56,1.4s-.69,1.4-1.56,1.4h-8.31c-.86,0-1.56-.63-1.56-1.4s.7-1.4,1.56-1.4h0ZM465.73,53.26c-.09,0-.18.03-.25.09l-1.4,1.25c-.71.63-1.89.61-2.57,0l-1.38-1.23c-.06-.06-.15-.09-.24-.09s-.18.03-.25.09l-1.37,1.23c-.71.62-1.88.61-2.57,0l-1.24-1.11c-.13-.12-.35-.12-.49,0l-1.23,1.1c-.71.62-1.88.61-2.57,0l-1.24-1.11c-.13-.12-.35-.12-.48,0l-1.23,1.1c-.71.62-1.88.61-2.57,0l-1.24-1.11c-.06-.06-.15-.09-.24-.09s-.18.03-.25.09l-.95.85v32.72l.95.85c.13.12.35.12.49,0l1.23-1.1c.71-.63,1.88-.61,2.57-.01l1.24,1.11c.13.12.35.12.49,0l1.23-1.1c.71-.63,1.88-.61,2.57-.01l1.24,1.11c.13.12.35.12.49,0l1.23-1.1c.71-.63,1.88-.61,2.57-.01l1.38,1.25c.06.06.16.09.25.09s.18-.03.24-.09l1.38-1.23c.34-.31.8-.48,1.29-.48s.93.17,1.28.47l1.41,1.26c.06.06.16.09.25.09s.18-.03.24-.09l1.12-1.01v-32.72l-1.12-1.01c-.06-.06-.15-.09-.24-.09h0ZM465.71,49.87c.47,0,.95.15,1.3.45l2.52,2.26c.44.39.69.92.69,1.49v33.29c0,.56-.25,1.09-.69,1.49l-2.52,2.26c-.35.31-.81.47-1.29.47s-.96-.18-1.3-.49l-1.63-1.46-1.62,1.45c-.71.63-1.88.61-2.57.01l-1.63-1.46-1.47,1.32c-.71.62-1.88.61-2.57,0l-1.48-1.33-1.48,1.32c-.7.62-1.88.61-2.57,0l-1.48-1.33-1.47,1.32c-.71.62-1.88.61-2.57,0l-2.36-2.11c-.44-.39-.69-.92-.69-1.49v-33.29c0-.56.24-1.09.69-1.49l2.35-2.11c.7-.62,1.88-.61,2.57,0l1.48,1.33,1.48-1.32c.71-.62,1.88-.61,2.57,0l1.48,1.33,1.48-1.32c.7-.62,1.87-.61,2.57,0l1.48,1.33,1.62-1.45c.71-.63,1.88-.61,2.57-.01l1.63,1.46,1.65-1.47c.33-.3.79-.45,1.27-.46h0Z"/>
                                              </g>
                                            </g>
                                            <g class="st118">
                                              <g class="st69">
                                                <g class="st168">
                                                  <path class="st47" d="M97.21,55.78c-.67-.43-1.51-.62-2.36-.44-.85.18-1.54.68-1.98,1.35-.44.67-.62,1.5-.44,2.35.18.84.68,1.54,1.35,1.97.67.43,1.51.61,2.35.43.85-.18,1.54-.68,1.98-1.35.44-.67.62-1.5.44-2.35-.18-.85-.68-1.54-1.35-1.97h0ZM95.68,53.08l-.64-1.56-1.83.39.04,1.67c-.09.04-.17.09-.26.13l-1.34-1.03-1.39,1.25.87,1.42s-.07.1-.11.16c-.02.03-.04.05-.05.08l-1.68-.22-.58,1.77,1.47.79c-.01.1-.02.2-.02.29l-1.56.64.39,1.82,1.67-.04c.04.09.08.17.13.26l-1.03,1.34,1.25,1.38,1.43-.87c.05.03.11.07.16.11.03.02.05.03.08.05l-.22,1.68,1.78.58.8-1.47c.09.01.19.02.29.02l.64,1.56,1.83-.39-.04-1.66c.09-.04.18-.09.26-.13l1.34,1.03,1.39-1.24-.87-1.42c.04-.05.07-.11.11-.16.02-.03.04-.05.05-.08l1.68.22.58-1.77-1.47-.8c0-.09.01-.19.02-.29l1.57-.65-.39-1.82-1.67.04c-.04-.09-.08-.17-.13-.26l1.03-1.34-1.25-1.39-1.43.87c-.05-.04-.1-.08-.16-.11-.03-.02-.06-.04-.08-.05l.22-1.67-1.77-.58-.8,1.47c-.1-.01-.2-.02-.29-.02h0ZM105.91,51.18c-.39-.26-.88-.36-1.38-.26-.5.1-.9.4-1.16.79-.26.39-.36.88-.26,1.38.11.49.4.9.79,1.15.39.26.88.36,1.38.26.5-.11.9-.4,1.16-.79.26-.4.36-.88.26-1.38-.11-.49-.4-.9-.79-1.16h0ZM105.02,49.6l-.38-.92-1.07.23.02.98c-.05.02-.1.05-.15.08l-.79-.6-.82.73.51.84s-.04.06-.07.09c-.01.02-.02.03-.03.05l-.99-.13-.34,1.04.86.47c0,.06-.01.11-.01.17l-.92.37.23,1.07.98-.02s.05.1.08.15l-.61.78.73.81.84-.51s.06.04.09.07c.02.01.03.02.05.03l-.13.98,1.04.34.47-.86c.06,0,.11.01.17.01l.38.92,1.07-.23-.02-.98c.05-.02.1-.05.15-.08l.79.61.82-.73-.51-.84s.04-.06.07-.09c.01-.02.02-.03.03-.05l.99.13.34-1.04-.86-.47c0-.05,0-.11,0-.17l.92-.38-.23-1.07-.98.03c-.02-.05-.05-.1-.08-.15l.61-.79-.73-.81-.84.52s-.06-.04-.1-.07c-.02-.01-.03-.02-.05-.03l.13-.98-1.04-.34-.47.86c-.06,0-.11-.01-.17-.01h0ZM106.02,62.23c-.39-.26-.88-.36-1.38-.26-.5.1-.9.4-1.16.79-.26.39-.36.88-.26,1.38.11.49.4.9.79,1.16.39.26.88.36,1.38.26.5-.1.9-.4,1.16-.79.26-.39.36-.88.26-1.38-.11-.49-.4-.9-.79-1.16h0ZM105.13,60.64l-.38-.91-1.07.22.02.98c-.05.03-.1.05-.15.08l-.79-.61-.82.73.51.84s-.04.07-.06.1c-.01.01-.02.03-.03.04l-.98-.13-.34,1.04.86.47c0,.05,0,.11-.01.17l-.92.38.23,1.07.98-.03s.05.1.08.15l-.61.79.73.81.84-.51s.06.04.09.07c.02.01.03.02.05.03l-.13.98,1.04.34.47-.86c.06,0,.11,0,.17.01l.38.91,1.07-.22-.02-.98c.05-.03.1-.05.15-.08l.79.6.82-.73-.51-.83s.04-.07.06-.09c.01-.02.02-.03.03-.05l.98.13.34-1.04-.86-.47c0-.05,0-.11,0-.17l.92-.38-.23-1.07-.98.03s-.05-.1-.08-.15l.61-.79-.73-.81-.84.51s-.06-.04-.1-.07c-.02-.01-.03-.02-.05-.03l.13-.99-1.04-.34-.47.86c-.06,0-.11,0-.17-.01h0ZM95.76,67.05c-.22-.15-.49-.2-.77-.15-.28.06-.5.23-.65.45-.14.22-.2.49-.14.77.06.28.22.5.44.65.22.14.49.2.77.14.27-.05.5-.22.64-.44.14-.22.2-.49.14-.77-.06-.28-.22-.51-.44-.65h0ZM95.26,66.17l-.21-.51-.6.12v.55s-.04.02-.07.04l-.44-.34-.45.41.29.47s-.02.03-.04.05c0,0-.01.02-.02.03l-.55-.08-.19.58.48.26s0,.06,0,.09l-.51.21.13.6.55-.02s.03.06.04.09l-.34.44.41.45.47-.28s.03.02.05.03c0,0,.02.02.03.02l-.07.55.58.19.26-.48s.07,0,.1,0l.21.51.6-.12v-.54s.04-.03.07-.04l.44.34.45-.41-.29-.47s.02-.03.04-.05c0,0,.01-.02.02-.03l.55.08.19-.58-.48-.26s0-.06,0-.09l.51-.21-.13-.6-.55.02s-.03-.06-.04-.09l.34-.44-.41-.45-.47.28s-.04-.02-.05-.03c-.01,0-.02-.01-.03-.02l.07-.54-.58-.19-.26.48s-.06,0-.1,0h0ZM92.32,90.98c.55-3.74.54-7.68-.47-11.19-15.73-8.83-9.99-28.28,3.23-32.39,6.94-2.76,15.46-2.06,21.63,4.09,4.48,4.47,2.32,5.63,2.32,5.63l-.98.54c.54,2.13,1.5,6.06,1.38,6.6-.17.74-.99,1.48-.99,1.48l2.24,7.5-1.99.84c.44,2.4.69,4.4.46,6.78-.04.42-1.39,1.6-2.48,1.66l-6.72.43.44,8.04h-18.07"/>
                                                </g>
                                              </g>
                                            </g>
                                          </g>
                                        </g>
                                      </g>
                                    </g>
                                  </g>
                                </g>
                              </g>
                            </g>
                          </g>
                        </g>
                      </g>
                    </g>
                  </g>
                </g>
              </g>
            </g>
          </g>
        </g>
      </g>
    </g>
  </g>
  <rect class="st36" x="3.68" y="119.52" width="903.72" height="361.32" rx="60.22" ry="60.22"/>
  <g>
    <g class="st106">
      <text class="st86" transform="translate(33.99 154.1)"><tspan x="0" y="0">Context</tspan></text>
    </g>
    <g class="st110">
      <g class="st41">
        <text class="st86" transform="translate(88.11 154.1)"><tspan x="0" y="0">-</tspan></text>
      </g>
      <g class="st98">
        <g class="st152">
          <text class="st86" transform="translate(93.39 154.1)"><tspan x="0" y="0">aware</tspan></text>
        </g>
        <g class="st125">
          <g class="st1">
            <text class="st86" transform="translate(33.99 173.31)"><tspan x="0" y="0">Optimization</tspan></text>
          </g>
        </g>
      </g>
    </g>
  </g>
  <g class="st117">
    <text class="st86" transform="translate(33.91 223.62)"><tspan x="0" y="0">Muse</tspan></text>
  </g>
  <g>
    <polygon class="st37" points="220.52 145.74 456.56 145.74 456.56 173.22 220.52 173.22 220.52 145.74 220.52 145.74"/>
    <g class="st142">
      <g class="st56">
        <text class="st89" transform="translate(240.96 166.12)"><tspan x="0" y="0">The manager </tspan></text>
      </g>
      <g class="st139">
        <g class="st103">
          <text class="st87" transform="translate(339.96 166.12)"><tspan x="0" y="0">is a complete</tspan></text>
        </g>
      </g>
    </g>
  </g>
  <g>
    <polygon class="st37" points="647.04 145.1 883.08 145.1 883.08 172.58 647.04 172.58 647.04 145.1 647.04 145.1"/>
    <g class="st82">
      <g class="st154">
        <text class="st89" transform="translate(676.59 165.43)"><tspan x="0" y="0">The manager </tspan></text>
      </g>
      <g class="st68">
        <g class="st78">
          <text class="st87" transform="translate(775.59 165.43)"><tspan x="0" y="0">might be a</tspan></text>
        </g>
      </g>
    </g>
  </g>
  <g>
    <polyline class="st21" points="765.24 173.82 765.24 193.15 339.27 193.15 339.27 207.74"/>
    <polygon class="st49" points="342.65 206.39 339.27 214.5 335.9 206.39 342.65 206.39 342.65 206.39"/>
  </g>
  <g>
    <path class="st50" d="M636.58,227.66c-.56,0-1.16.01-1.77.04l-1.86,8.27h1.42c1.1,0,1.99-.11,2.67-.34.68-.23,1.23-.58,1.67-1.06.43-.48.77-1.04,1-1.7.24-.66.35-1.37.35-2.16,0-1.06-.27-1.83-.81-2.32-.54-.49-1.43-.74-2.68-.74h0ZM630.86,226.46h6.02c1.08,0,1.97.08,2.67.25.7.17,1.27.43,1.72.78.45.35.79.79,1.01,1.33s.33,1.16.33,1.87c0,1.37-.32,2.55-.97,3.55-.65,1-1.52,1.74-2.63,2.21-1.11.47-2.43.71-3.98.71-.93,0-1.7-.02-2.32-.05l-.87,4.01c-.08.37-.14.66-.17.86-.03.2-.06.42-.08.65-.02.23-.03.44-.03.62,0,.28.05.5.14.66.09.16.23.28.41.35s.5.13.94.16l-.15.67h-5.61l.15-.67c.35-.05.61-.14.78-.27.17-.12.32-.29.44-.51s.23-.48.33-.8c.1-.31.25-.92.45-1.82l2.32-10.51c.2-.91.3-1.63.3-2.16,0-.45-.1-.76-.31-.93-.21-.17-.55-.27-1.02-.3l.15-.67Z"/>
    <path class="st50" d="M645.2,241.67c-.37,0-.72.08-1.05.25-.33.17-.62.4-.9.69-.27.29-.52.64-.73,1.04s-.4.83-.55,1.28-.26.94-.34,1.43c-.08.5-.12,1-.12,1.49,0,.76.16,1.33.47,1.69.32.36.8.54,1.44.54.36,0,.7-.09,1.02-.26.32-.18.61-.41.88-.71s.5-.65.71-1.05c.21-.4.39-.83.53-1.29.15-.46.26-.93.33-1.42.08-.49.11-.96.11-1.43,0-.74-.15-1.3-.44-1.68s-.75-.57-1.37-.57h0ZM645.39,240.68c.6,0,1.12.1,1.57.29.45.19.82.45,1.12.78.3.33.52.72.67,1.16s.22.92.22,1.42c0,1.01-.15,1.92-.45,2.74-.3.82-.71,1.52-1.24,2.11-.53.59-1.15,1.04-1.86,1.36s-1.49.48-2.33.48c-.55,0-1.05-.08-1.48-.25-.44-.17-.81-.41-1.12-.72-.31-.31-.54-.69-.7-1.13s-.24-.94-.24-1.5c0-.94.15-1.82.44-2.64.3-.82.7-1.53,1.23-2.14.52-.61,1.14-1.09,1.85-1.44s1.48-.53,2.32-.53h0Z"/>
  </g>
  <g>
    <path class="st50" d="M638.17,273.74c-.56,0-1.16.01-1.77.04l-1.86,8.27h1.42c1.1,0,1.99-.11,2.67-.34.68-.23,1.23-.58,1.67-1.06.43-.48.77-1.04,1-1.7.24-.66.35-1.37.35-2.16,0-1.06-.27-1.83-.81-2.32-.54-.49-1.43-.74-2.68-.74h0ZM632.45,272.54h6.02c1.08,0,1.97.08,2.67.25.7.17,1.27.43,1.72.78.45.35.79.79,1.01,1.33.22.54.33,1.16.33,1.87,0,1.37-.32,2.55-.97,3.55-.65,1-1.52,1.74-2.63,2.21-1.11.47-2.43.71-3.98.71-.93,0-1.7-.02-2.32-.05l-.87,4.01c-.08.37-.14.66-.17.86-.03.2-.06.42-.08.65-.02.23-.03.44-.03.62,0,.28.05.5.14.66.09.16.23.28.41.35.18.07.5.13.94.16l-.15.67h-5.61l.15-.67c.35-.05.61-.14.78-.27s.32-.29.44-.51.23-.48.33-.8c.1-.31.25-.92.45-1.82l2.32-10.51c.2-.91.3-1.63.3-2.16,0-.45-.1-.76-.31-.93-.21-.17-.55-.27-1.02-.3l.15-.67Z"/>
    <path class="st50" d="M648.15,288.1c-.41,0-.78.12-1.12.36-.34.24-.71.59-1.1,1.04-.18.21-.35.42-.5.63-.15.21-.29.43-.41.67-.12.24-.23.51-.33.81s-.18.64-.25,1.02c-.09.46-.17.84-.22,1.16-.05.31-.08.61-.08.89,0,.54.12.92.37,1.14s.65.33,1.2.33c.39,0,.75-.08,1.08-.25.34-.17.64-.4.91-.69.27-.29.51-.63.73-1.02.21-.39.39-.8.53-1.25.14-.44.25-.89.33-1.36.08-.46.11-.92.11-1.35,0-.71-.1-1.24-.29-1.59-.2-.35-.52-.53-.96-.53h0ZM643.53,286.77c.48,0,.86.16,1.13.48s.4.75.4,1.27c0,.15-.01.3-.03.44-.02.14-.06.28-.12.42l.14.07c.65-.91,1.29-1.58,1.92-2.02s1.29-.66,1.98-.66c.79,0,1.4.29,1.82.86s.63,1.4.63,2.5c0,.96-.15,1.86-.44,2.7-.3.85-.7,1.59-1.2,2.23-.5.64-1.09,1.14-1.76,1.51-.67.37-1.37.55-2.12.55-.52,0-.97-.05-1.35-.15-.38-.1-.7-.23-.95-.37-.06.26-.12.53-.19.81-.07.28-.14.55-.2.81-.06.26-.11.5-.15.72-.04.22-.06.4-.06.53,0,.12.02.22.05.3s.1.15.2.2.22.09.38.12c.16.03.36.05.6.07l-.03.66h-3.51l2.43-10.38c.08-.37.14-.67.17-.92.03-.25.05-.46.05-.66,0-.48-.2-.73-.59-.73-.12,0-.24.02-.36.07s-.25.12-.38.22c-.14.1-.29.23-.45.38-.16.15-.34.33-.54.54l-.69-.65c.33-.33.64-.62.91-.86.28-.24.54-.44.8-.6.26-.16.5-.27.75-.35.24-.08.5-.11.77-.11h0Z"/>
  </g>
  <g>
    <g class="st17">
      <text class="st89" transform="translate(692.6 216.04)"><tspan x="0" y="0">Control</tspan></text>
    </g>
    <g class="st170">
      <g class="st159">
        <text class="st89" transform="translate(677.71 237.16)"><tspan x="0" y="0">against </tspan></text>
      </g>
      <g class="st70">
        <path class="st46" d="M739.62,229.66c-.3,0-.59.1-.88.3s-.61.53-.95.97-.62.88-.81,1.32-.35.93-.46,1.49l-.07.37c-.06.31-.1.55-.11.71s-.02.33-.02.48c0,.46.1.79.29,1s.53.31,1.02.31c.3,0,.57-.06.83-.18s.49-.29.72-.51.43-.49.61-.81.34-.68.49-1.1.25-.85.33-1.29.11-.86.11-1.24c0-.62-.09-1.07-.26-1.38s-.45-.45-.82-.45h0ZM735.92,228.62c.36,0,.65.12.87.36s.32.56.32.96c0,.33-.07.67-.2,1.04l.11.04c1.08-1.59,2.16-2.38,3.23-2.38.64,0,1.14.24,1.49.73s.53,1.17.53,2.06c0,.97-.19,1.92-.58,2.85s-.93,1.68-1.62,2.22-1.46.82-2.32.82c-.78,0-1.43-.17-1.94-.51l-.4,1.92c-.09.42-.13.76-.13,1.03s.07.44.2.55.39.18.77.22l-.07.43h-2.72l2.12-9.33c.12-.54.18-.98.18-1.33,0-.23-.04-.4-.11-.51s-.2-.16-.36-.16c-.18,0-.37.07-.58.22s-.48.42-.83.81l-.5-.49c.53-.55.97-.95,1.34-1.19s.77-.36,1.22-.36h0Z"/>
        <g class="st166">
          <path class="st46" d="M746.63,232.59h.39c0,.24-.02.45-.02.63,0,.19,0,.37,0,.54,0,.18,0,.35,0,.52v4.9c0,.13,0,.25.01.34,0,.1.02.18.04.24.02.07.05.12.08.17s.07.09.11.12c.05.05.12.09.21.12s.2.05.33.07c.13.02.29.03.48.05s.41.02.67.02v.56h-5.11v-.56c.25,0,.47-.02.64-.03.18-.01.33-.03.45-.05.12-.02.22-.04.3-.06.08-.02.14-.05.2-.09.06-.04.11-.08.15-.13.04-.05.08-.1.1-.17.03-.07.05-.15.06-.25.02-.1.02-.22.02-.37v-4.62c0-.17-.03-.29-.1-.35s-.16-.1-.28-.1c-.13,0-.33.07-.59.21-.26.14-.6.34-1.02.61-.06-.1-.11-.2-.15-.3-.05-.1-.1-.2-.15-.3.53-.29,1.06-.58,1.58-.87s1.05-.58,1.59-.87h0Z"/>
          <g class="st57">
            <path class="st46" d="M750.93,239.4h1.29v1.5h-1.29v-1.5h0ZM750.93,235.07h1.29v1.51h-1.29v-1.51h0Z"/>
            <g class="st119">
              <path class="st46" d="M756.8,232.09h.46l-1.13,5.01h.18c.16,0,.34-.03.53-.1.19-.07.38-.16.56-.27.19-.11.37-.23.54-.37.17-.14.32-.28.45-.42s.24-.27.31-.4c.08-.12.12-.23.12-.32,0-.1-.03-.19-.1-.25-.07-.06-.19-.11-.37-.13l.08-.41h2.32l.16.4c-.27.23-.53.45-.78.64-.25.2-.49.39-.73.57s-.48.36-.72.54c-.24.18-.48.36-.73.55.1.33.21.66.32,1s.21.67.32,1c.05.18.1.33.15.45.05.13.09.23.15.31.05.08.11.14.17.18.06.04.13.06.22.06.06,0,.12-.01.19-.03s.14-.06.22-.12c.08-.06.17-.13.27-.23s.22-.22.34-.36l.44.42c-.2.21-.39.38-.56.53-.17.15-.34.27-.5.37s-.31.17-.45.21c-.15.05-.29.07-.44.07-.27,0-.49-.07-.65-.2s-.31-.33-.42-.58c-.12-.25-.22-.56-.32-.91s-.21-.75-.34-1.19c-.03-.1-.06-.19-.09-.25-.03-.06-.06-.11-.11-.14s-.1-.05-.16-.06-.15-.01-.24-.01h-.41l-.71,3.24h-1.24l1.56-6.92c.05-.23.09-.41.11-.54s.03-.25.03-.35c0-.08-.01-.15-.04-.21s-.07-.11-.14-.15-.15-.06-.26-.08-.24-.03-.4-.03l.1-.44,1.77-.08h0Z"/>
            </g>
          </g>
        </g>
      </g>
    </g>
  </g>
  <g class="st164">
    <text class="st85" transform="translate(822 266.56)"><tspan x="0" y="0">newbie</tspan></text>
  </g>
  <g>
    <g class="st171">
      <text class="st86" transform="translate(33.43 349.56)"><tspan x="0" y="0">Sampling</tspan></text>
    </g>
    <g class="st65">
      <g class="st43">
        <text class="st86" transform="translate(33.43 368.75)"><tspan x="0" y="0">Methods</tspan></text>
      </g>
    </g>
  </g>
  <g>
    <polygon class="st37" points="220.91 214.59 457.07 214.59 457.07 242.07 220.91 242.07 220.91 214.59 220.91 214.59"/>
    <g class="st135">
      <g class="st141">
        <text class="st89" transform="translate(251.45 234.92)"><tspan x="0" y="0">The manager might be a</tspan></text>
      </g>
      <g class="st120">
        <polygon class="st37" points="220.31 275.55 456.35 275.55 456.35 303.03 220.31 303.03 220.31 275.55 220.31 275.55"/>
        <g class="st14">
          <g class="st0">
            <text class="st89" transform="translate(250.8 295.9)"><tspan x="0" y="0">The manager might be a</tspan></text>
          </g>
          <g class="st130">
            <polygon class="st38" points="66.47 276.03 192.23 276.03 192.23 303.51 66.47 303.51 66.47 276.03 66.47 276.03"/>
            <g class="st134">
              <g class="st12">
                <text class="st88" transform="translate(75.24 296.33)"><tspan x="0" y="0">[ toxic prefix ]</tspan></text>
              </g>
              <g class="st10">
                <rect class="st126" x="490.73" y="203.01" width="117.36" height="110.88" rx="18.48" ry="18.48"/>
                <rect class="st24" x="490.73" y="203.01" width="117.36" height="110.88" rx="18.48" ry="18.48"/>
                <g class="st145">
                  <g class="st55">
                    <text class="st84" transform="translate(511.29 254.14)"><tspan x="0" y="0">Language</tspan></text>
                  </g>
                  <g class="st165">
                    <g class="st137">
                      <text class="st84" transform="translate(524.73 275.74)"><tspan x="0" y="0">Model</tspan></text>
                    </g>
                    <g class="st91">
                      <line class="st27" x1="457.49" y1="228.45" x2="485.46" y2="228.45"/>
                      <polygon class="st48" points="484.34 225.08 491.09 228.45 484.34 231.83 484.34 225.08 484.34 225.08"/>
                      <g class="st158">
                        <line class="st27" x1="457.41" y1="289.17" x2="485.38" y2="289.17"/>
                        <polygon class="st48" points="483.26 285.8 490.01 289.17 483.26 292.55 483.26 285.8 483.26 285.8"/>
                        <g class="st163">
                          <line class="st27" x1="192.29" y1="289.77" x2="219.66" y2="289.77"/>
                          <g class="st83">
                            <line class="st27" x1="609.17" y1="236.73" x2="619.71" y2="236.73"/>
                            <polygon class="st48" points="618.59 233.36 625.34 236.73 618.59 240.11 618.59 233.36 618.59 233.36"/>
                            <g class="st109">
                              <line class="st27" x1="609.89" y1="289.21" x2="620.52" y2="289.11"/>
                              <polygon class="st48" points="619.43 292.49 626.14 289.05 619.36 285.74 619.43 292.49 619.43 292.49"/>
                              <g class="st105">
                                <polyline class="st27" points="653.81 236.73 669.47 236.73 669.47 259.12 679.5 259.12"/>
                                <polygon class="st48" points="678.37 255.75 685.12 259.12 678.37 262.5 678.37 255.75 678.37 255.75"/>
                                <g class="st122">
                                  <polyline class="st27" points="655.01 287.84 669.55 287.84 669.55 259.05 679.33 259.05"/>
                                  <polygon class="st48" points="678.2 262.43 684.95 259.05 678.2 255.68 678.2 262.43 678.2 262.43"/>
                                  <g class="st95">
                                    <g class="st80">
                                      <text class="st90" transform="translate(689.22 265.02)"><tspan x="0" y="0">⊗</tspan></text>
                                    </g>
                                    <g class="st161">
                                      <line class="st27" x1="708.89" y1="260.61" x2="736.86" y2="260.61"/>
                                      <polygon class="st48" points="735.74 257.24 742.49 260.61 735.74 263.99 735.74 257.24 735.74 257.24"/>
                                      <g class="st115">
                                        <line class="st27" x1="783.77" y1="262.05" x2="811.74" y2="262.05"/>
                                        <polygon class="st48" points="810.62 258.68 817.37 262.05 810.62 265.43 810.62 258.68 810.62 258.68"/>
                                        <g class="st112">
                                          <rect class="st8" x="488.87" y="133.47" width="119.16" height="48.12" rx="8.02" ry="8.02"/>
                                          <rect class="st29" x="488.87" y="133.47" width="119.16" height="48.12" rx="8.02" ry="8.02"/>
                                          <g class="st128">
                                            <g class="st97">
                                              <text class="st85" transform="translate(508.4 164.08)"><tspan x="0" y="0">Calib</tspan></text>
                                            </g>
                                            <g class="st108">
                                              <g class="st39">
                                                <text class="st85" transform="translate(550.4 164.08)"><tspan x="0" y="0">-</tspan></text>
                                              </g>
                                              <g class="st71">
                                                <g class="st64">
                                                  <text class="st85" transform="translate(556.4 164.08)"><tspan x="0" y="0">Gen</tspan></text>
                                                </g>
                                                <g class="st52">
                                                  <line class="st27" x1="457.13" y1="158.5" x2="487.72" y2="158.5"/>
                                                  <polygon class="st48" points="483.6 154.88 490.35 158.25 483.6 161.63 483.6 154.88 483.6 154.88"/>
                                                  <g class="st99">
                                                    <line class="st27" x1="608.69" y1="158.25" x2="641.32" y2="158.62"/>
                                                    <polygon class="st48" points="640.24 155.23 646.95 158.69 640.16 161.98 640.24 155.23 640.24 155.23"/>
                                                    <g class="st93">
                                                      <path class="st46" d="M110.96,255.33c-.4,0-.79.13-1.18.4s-.81.7-1.27,1.29-.82,1.18-1.08,1.76-.46,1.24-.61,1.99l-.09.49c-.08.41-.13.73-.15.95s-.03.43-.03.64c0,.61.13,1.05.39,1.33s.71.42,1.35.42c.4,0,.77-.08,1.1-.23s.65-.38.96-.68.57-.66.81-1.08.46-.91.65-1.47.34-1.13.43-1.72.15-1.14.15-1.66c0-.82-.12-1.43-.35-1.83s-.6-.6-1.1-.6h0ZM106.03,253.95c.48,0,.87.16,1.15.48s.43.75.43,1.28c0,.44-.09.9-.27,1.38l.14.05c1.45-2.12,2.88-3.18,4.31-3.18.85,0,1.51.32,1.99.97s.71,1.56.71,2.74c0,1.29-.26,2.56-.78,3.8s-1.24,2.23-2.16,2.96-1.95,1.1-3.09,1.1c-1.04,0-1.9-.23-2.59-.68l-.54,2.57c-.12.55-.18,1.01-.18,1.37s.09.59.26.73.52.24,1.03.29l-.09.57h-3.62l2.82-12.43c.16-.72.25-1.31.25-1.77,0-.31-.05-.54-.15-.68s-.26-.21-.48-.21c-.24,0-.5.1-.77.3s-.64.56-1.11,1.08l-.67-.66c.7-.73,1.3-1.26,1.79-1.59s1.03-.49,1.62-.49h0Z"/>
                                                      <g class="st146">
                                                        <path class="st46" d="M120.23,259.25h.52c-.01.31-.02.59-.03.84,0,.25,0,.49-.01.72,0,.23,0,.46,0,.69v6.5c0,.18,0,.33.02.46.01.13.03.24.06.33s.06.16.1.23.09.12.15.16c.07.07.16.12.27.16.11.04.26.07.44.09s.39.05.64.06.55.02.89.03v.74h-6.78v-.74c.34-.01.62-.02.86-.04.23-.01.43-.03.6-.06.17-.03.3-.05.4-.09.1-.03.19-.07.26-.12.08-.05.15-.11.21-.17.06-.06.1-.14.14-.23.03-.09.06-.2.08-.33.02-.13.03-.29.03-.49v-6.13c0-.22-.04-.38-.13-.47-.09-.09-.21-.14-.37-.14-.18,0-.44.09-.79.27-.35.18-.8.45-1.35.81-.07-.13-.14-.26-.21-.39-.06-.13-.13-.27-.2-.4.71-.39,1.41-.77,2.1-1.16.69-.39,1.4-.77,2.11-1.15h0Z"/>
                                                        <g class="st3">
                                                          <path class="st46" d="M125.99,268.29h1.71v1.98h-1.71v-1.98h0ZM125.99,262.55h1.71v2h-1.71v-2h0Z"/>
                                                          <g class="st104">
                                                            <path class="st46" d="M133.84,258.59h.62l-1.51,6.66h.24c.22,0,.45-.05.7-.14.25-.09.5-.21.75-.36.25-.15.49-.31.71-.49s.43-.37.6-.55c.17-.19.31-.36.41-.53s.15-.31.15-.42c0-.14-.05-.25-.14-.33-.09-.09-.26-.14-.5-.17l.1-.55h3.08l.21.53c-.36.31-.7.59-1.04.86-.33.26-.65.51-.97.76-.32.24-.63.48-.95.71-.32.23-.64.48-.97.73.14.43.28.87.42,1.32.14.45.29.89.43,1.33.07.23.13.43.19.6.06.17.12.31.19.41.07.11.14.18.22.24.08.05.18.08.29.08.08,0,.16-.01.25-.04.09-.03.18-.08.29-.15s.23-.18.36-.3.29-.29.46-.48l.58.56c-.27.27-.52.51-.75.71-.23.2-.45.36-.66.49s-.41.22-.6.28c-.19.06-.39.09-.59.09-.36,0-.65-.09-.87-.27-.22-.18-.41-.44-.56-.77-.15-.33-.3-.74-.42-1.21-.13-.47-.28-1-.45-1.58-.04-.14-.08-.25-.12-.33-.04-.08-.08-.15-.14-.19-.06-.04-.13-.07-.21-.08-.09-.01-.19-.02-.33-.02h-.55l-.94,4.29h-1.64l2.07-9.19c.07-.3.12-.54.15-.71s.04-.33.04-.47c0-.11-.02-.2-.06-.28s-.1-.14-.18-.19c-.09-.05-.2-.08-.34-.11-.14-.02-.32-.04-.53-.04l.13-.58,2.35-.1h0Z"/>
                                                            <polygon class="st23" points="57.83 315.03 886.43 315.03 886.43 122.31 57.83 122.31 57.83 315.03 57.83 315.03"/>
                                                          </g>
                                                        </g>
                                                      </g>
                                                    </g>
                                                  </g>
                                                </g>
                                              </g>
                                            </g>
                                          </g>
                                        </g>
                                      </g>
                                    </g>
                                  </g>
                                </g>
                              </g>
                            </g>
                          </g>
                        </g>
                      </g>
                    </g>
                  </g>
                </g>
              </g>
            </g>
          </g>
        </g>
      </g>
    </g>
  </g>
  <g>
    <path class="st50" d="M752.31,252.89c-.48,0-.99.01-1.52.04l-1.59,7.1h1.22c.95,0,1.71-.1,2.29-.29.58-.2,1.06-.5,1.43-.91.37-.41.66-.9.86-1.46.2-.56.3-1.18.3-1.85,0-.91-.23-1.57-.69-1.99-.46-.42-1.23-.63-2.3-.63h0ZM747.4,251.85h5.17c.93,0,1.69.07,2.29.22s1.09.37,1.48.67.68.68.87,1.14c.19.46.29,1,.29,1.61,0,1.17-.28,2.19-.83,3.05-.55.86-1.31,1.49-2.26,1.9s-2.09.61-3.42.61c-.8,0-1.46-.02-1.99-.05l-.75,3.45c-.07.32-.12.57-.15.74s-.05.36-.07.56c-.02.2-.03.38-.03.53,0,.24.04.43.12.57.08.14.2.24.35.3s.43.11.81.14l-.13.57h-4.82l.13-.57c.3-.05.52-.12.67-.23s.27-.25.38-.44.2-.42.28-.69.21-.79.39-1.56l1.99-9.02c.17-.78.26-1.4.26-1.85,0-.38-.09-.65-.27-.8s-.47-.23-.88-.26l.13-.57Z"/>
    <path class="st50" d="M773.46,264.04c.41,0,.74.14.98.41.25.28.37.65.37,1.11,0,.25-.02.53-.07.84-.05.31-.12.65-.23,1.04-.22.78-.39,1.47-.51,2.05-.13.59-.19,1.02-.19,1.29,0,.34.07.6.2.77.13.17.35.25.65.25.27,0,.55-.1.86-.3.31-.2.6-.46.88-.77.28-.32.53-.67.75-1.06.22-.39.38-.78.48-1.16l.94-4.29h1.69l-1.32,5.59c-.07.29-.12.55-.15.78-.03.23-.04.42-.04.58,0,.22.04.37.12.47.08.1.21.15.38.15.11,0,.21-.02.32-.06.1-.04.21-.1.33-.19.12-.09.24-.2.38-.33.14-.13.29-.3.46-.48l.59.56c-.29.29-.55.54-.79.75s-.47.38-.68.51c-.22.13-.43.23-.65.29-.21.06-.43.09-.66.09-.41,0-.73-.13-.96-.4-.23-.27-.35-.63-.35-1.09,0-.12,0-.24.03-.36.02-.12.05-.24.09-.36l-.1-.03c-.56.75-1.11,1.31-1.65,1.68-.53.37-1.09.56-1.66.56-.6,0-1.06-.16-1.36-.48s-.46-.78-.46-1.38c0-.15.03-.37.08-.64.05-.27.12-.58.2-.92.08-.34.17-.69.26-1.06.09-.37.18-.72.26-1.06s.15-.65.2-.92c.05-.28.08-.49.08-.65,0-.42-.17-.62-.51-.62-.11,0-.21.02-.32.06-.1.04-.21.11-.33.19-.12.09-.24.19-.38.33-.14.13-.29.29-.46.46l-.58-.56c.31-.31.58-.57.83-.78.24-.21.47-.38.69-.51.22-.13.43-.22.64-.28.21-.06.44-.09.68-.09h0ZM756.98,264.04c.42,0,.75.14.98.41.23.28.35.64.35,1.09,0,.13,0,.25-.03.37-.02.12-.05.24-.09.35l.1.04c.54-.76,1.08-1.33,1.63-1.7s1.1-.56,1.67-.56c.6,0,1.06.16,1.36.47.3.31.45.77.45,1.37v.15s0,.1-.02.15h.03c.53-.72,1.06-1.26,1.58-1.61s1.07-.53,1.64-.53c.6,0,1.06.16,1.36.49.3.33.45.78.45,1.37,0,.18-.03.41-.09.71-.06.3-.13.63-.21.99-.08.36-.17.73-.27,1.12-.1.38-.19.75-.27,1.09-.05.22-.09.4-.12.54-.03.14-.06.26-.07.35-.02.09-.03.18-.03.24,0,.07,0,.14,0,.22,0,.22.04.37.12.47.08.1.21.15.38.15.1,0,.21-.02.31-.06.1-.04.21-.1.33-.19.12-.09.25-.2.38-.33.14-.13.3-.3.47-.48l.59.56c-.27.29-.53.53-.77.74s-.46.37-.68.51-.44.23-.65.3-.44.1-.68.1c-.22,0-.41-.04-.59-.12-.18-.08-.33-.19-.45-.33-.12-.14-.22-.31-.29-.5-.07-.19-.1-.4-.1-.63,0-.47.1-1.07.3-1.81.11-.37.21-.73.3-1.07.09-.34.16-.65.23-.94.06-.29.11-.54.15-.77.04-.23.06-.41.06-.56,0-.35-.07-.61-.2-.78-.13-.17-.34-.25-.63-.25-.18,0-.36.05-.56.14-.2.09-.4.22-.6.38-.2.16-.4.36-.59.58s-.37.46-.54.72c-.17.26-.31.53-.44.82-.13.29-.23.57-.3.86l-.85,4.09h-1.67c.08-.36.17-.76.27-1.18.1-.42.2-.84.3-1.27.1-.43.2-.85.3-1.27s.18-.81.25-1.17c.07-.36.13-.69.18-.98.05-.29.07-.52.07-.69,0-.36-.07-.62-.21-.79-.14-.17-.36-.25-.67-.25-.27,0-.57.1-.88.31-.31.21-.61.47-.89.81-.28.33-.53.71-.76,1.13s-.38.84-.47,1.27l-.87,4.07h-1.68l1.28-5.58c.07-.31.13-.58.16-.8.03-.23.05-.42.05-.56,0-.42-.17-.62-.5-.62-.1,0-.21.02-.31.06-.11.04-.22.11-.33.19-.12.09-.24.19-.38.33-.14.13-.29.29-.46.46l-.59-.56c.28-.29.54-.53.77-.74.24-.21.46-.38.68-.51s.43-.23.65-.3c.21-.07.43-.1.66-.1h0Z"/>
  </g>
  <g>
    <line class="st27" x1="735.5" y1="336.5" x2="840.3" y2="276.15"/>
    <polygon class="st48" points="840.6 280.49 845.09 273.39 838.09 272.91 840.6 280.49 840.6 280.49"/>
  </g>
  <g>
    <path class="st50" d="M243.77,346.28c-.56,0-1.16.01-1.77.04l-1.86,8.27h1.42c1.1,0,1.99-.11,2.67-.34s1.23-.58,1.67-1.06c.43-.48.77-1.04,1-1.7.24-.66.35-1.37.35-2.16,0-1.06-.27-1.83-.81-2.32-.54-.49-1.43-.74-2.68-.74h0ZM238.05,345.08h6.02c1.08,0,1.97.08,2.67.25.7.17,1.27.43,1.72.78.45.35.79.79,1.01,1.33s.33,1.16.33,1.87c0,1.37-.32,2.55-.97,3.55-.65,1-1.52,1.74-2.63,2.21-1.11.47-2.43.71-3.98.71-.93,0-1.7-.02-2.32-.05l-.87,4.01c-.08.37-.14.66-.17.86-.03.2-.06.42-.08.65-.02.23-.03.44-.03.62,0,.28.05.5.14.66.09.16.23.28.41.35.18.07.5.13.94.16l-.15.67h-5.61l.15-.67c.35-.05.61-.14.78-.27s.32-.29.44-.51.23-.48.33-.8c.1-.31.25-.92.45-1.82l2.32-10.51c.2-.91.3-1.63.3-2.16,0-.45-.1-.76-.31-.93-.21-.17-.55-.27-1.02-.3l.15-.67Z"/>
    <path class="st50" d="M252.4,360.29c-.37,0-.72.08-1.05.25s-.62.4-.9.69c-.27.29-.52.64-.73,1.04-.22.4-.4.83-.55,1.28-.15.46-.26.94-.34,1.43-.08.5-.12,1-.12,1.49,0,.76.16,1.33.47,1.69.32.36.8.54,1.44.54.36,0,.7-.09,1.02-.26.32-.18.61-.41.88-.71s.5-.65.71-1.05.39-.83.53-1.29.26-.93.33-1.42c.08-.49.11-.96.11-1.43,0-.74-.15-1.3-.44-1.68-.29-.38-.75-.57-1.37-.57h0ZM252.59,359.31c.6,0,1.12.1,1.57.29.45.19.82.45,1.12.78.3.33.52.72.67,1.16s.22.92.22,1.42c0,1.01-.15,1.92-.45,2.74-.3.82-.71,1.52-1.24,2.11-.53.59-1.15,1.04-1.86,1.36s-1.49.48-2.33.48c-.55,0-1.05-.08-1.48-.25s-.81-.41-1.12-.72c-.31-.31-.54-.69-.7-1.13s-.24-.94-.24-1.5c0-.94.15-1.82.44-2.64.3-.82.7-1.53,1.23-2.14.52-.61,1.14-1.09,1.85-1.44s1.48-.53,2.32-.53h0Z"/>
    <path class="st50" d="M241.07,423c-.56,0-1.16.01-1.77.04l-1.86,8.27h1.42c1.1,0,1.99-.11,2.67-.34s1.23-.58,1.67-1.06c.43-.48.77-1.04,1-1.7.24-.66.35-1.37.35-2.16,0-1.06-.27-1.83-.81-2.32-.54-.49-1.43-.74-2.68-.74h0ZM235.35,421.8h6.02c1.08,0,1.97.08,2.67.25.7.17,1.27.43,1.72.78.45.35.79.79,1.01,1.33.22.54.33,1.16.33,1.87,0,1.37-.32,2.55-.97,3.55-.65,1-1.52,1.74-2.63,2.21s-2.43.71-3.98.71c-.93,0-1.7-.02-2.32-.05l-.87,4.01c-.08.37-.14.66-.17.86-.03.2-.06.42-.08.65-.02.23-.03.44-.03.62,0,.28.05.5.14.66.09.16.23.28.41.35.18.07.5.13.94.16l-.15.67h-5.61l.15-.67c.35-.05.61-.14.78-.27s.32-.29.44-.51.23-.48.33-.8c.1-.31.25-.92.45-1.82l2.32-10.51c.2-.91.3-1.63.3-2.16,0-.45-.1-.76-.31-.93s-.55-.27-1.02-.3l.15-.67Z"/>
    <path class="st50" d="M251.05,437.36c-.41,0-.78.12-1.12.36-.34.24-.71.59-1.1,1.04-.18.21-.35.42-.5.63-.15.21-.29.43-.41.67-.12.24-.23.51-.33.81s-.18.64-.25,1.02c-.09.46-.17.84-.22,1.16-.05.31-.08.61-.08.89,0,.54.12.92.37,1.14s.65.33,1.2.33c.39,0,.75-.08,1.08-.25.34-.17.64-.4.91-.69.27-.29.51-.63.73-1.02.21-.39.39-.8.53-1.25.14-.44.25-.89.33-1.36.08-.46.11-.92.11-1.35,0-.71-.1-1.24-.29-1.59-.2-.35-.52-.53-.96-.53h0ZM246.43,436.03c.48,0,.86.16,1.13.48s.4.75.4,1.27c0,.15-.01.3-.03.44-.02.14-.06.28-.12.42l.14.07c.65-.91,1.29-1.58,1.92-2.02s1.29-.66,1.98-.66c.79,0,1.4.29,1.82.86s.63,1.4.63,2.5c0,.96-.15,1.86-.44,2.7-.3.85-.7,1.59-1.2,2.23-.5.64-1.09,1.14-1.76,1.51-.67.37-1.37.55-2.12.55-.52,0-.97-.05-1.35-.15-.38-.1-.7-.23-.95-.37-.06.26-.12.53-.19.81-.07.28-.14.55-.2.81-.06.26-.11.5-.15.72-.04.22-.06.4-.06.53,0,.12.02.22.05.3s.1.15.2.2.22.09.38.12c.16.03.36.05.6.07l-.03.66h-3.51l2.43-10.38c.08-.37.14-.67.17-.92.03-.25.05-.46.05-.66,0-.48-.2-.73-.59-.73-.12,0-.24.02-.36.07s-.25.12-.38.22c-.14.1-.29.23-.45.38-.16.15-.34.33-.54.54l-.69-.65c.33-.33.64-.62.91-.86.28-.24.54-.44.8-.6.26-.16.5-.27.75-.35.24-.08.5-.11.77-.11h0Z"/>
    <line class="st27" x1="353.56" y1="353.08" x2="418.44" y2="353.08"/>
    <polygon class="st48" points="417.32 349.7 424.07 353.08 417.32 356.45 417.32 349.7 417.32 349.7"/>
    <g class="st75">
      <line class="st27" x1="352.12" y1="435.4" x2="417" y2="435.4"/>
      <polygon class="st48" points="415.88 432.02 422.63 435.4 415.88 438.77 415.88 432.02 415.88 432.02"/>
      <g class="st107">
        <g class="st92">
          <text class="st89" transform="translate(356.59 387.08)"><tspan x="0" y="0">Sampling </tspan></text>
        </g>
        <g class="st129">
          <g class="st79">
            <text class="st89" transform="translate(348.31 408.69)"><tspan x="0" y="0">and reshape</tspan></text>
          </g>
          <g class="st59">
            <polyline class="st27" points="521.56 435.41 609.45 435.41 609.45 393.4 653.2 393.4"/>
            <polygon class="st48" points="652.08 396.77 658.83 393.4 652.08 390.02 652.08 396.77 652.08 396.77"/>
            <g class="st169">
              <polyline class="st27" points="521.8 353.44 609.11 353.44 609.11 393.45 653.13 393.45"/>
              <polygon class="st48" points="652 390.07 658.75 393.45 652 396.82 652 390.07 652 390.07"/>
              <g class="st18">
                <path class="st50" d="M674.81,368.81c-.48,0-.99.01-1.52.04l-1.59,7.1h1.22c.95,0,1.71-.1,2.29-.29s1.06-.5,1.43-.91.66-.9.86-1.46.3-1.18.3-1.85c0-.91-.23-1.57-.69-1.99s-1.23-.63-2.3-.63h0ZM669.9,367.78h5.17c.93,0,1.69.07,2.29.22s1.09.37,1.48.67.68.68.87,1.14.29,1,.29,1.61c0,1.17-.28,2.19-.83,3.05s-1.31,1.49-2.26,1.9-2.09.61-3.42.61c-.8,0-1.46-.02-1.99-.05l-.75,3.45c-.07.32-.12.57-.15.74s-.05.36-.07.56-.03.38-.03.53c0,.24.04.43.12.57s.2.24.35.3.43.11.81.14l-.13.57h-4.82l.13-.57c.3-.05.52-.12.67-.23s.27-.25.38-.44.2-.42.28-.69.21-.79.39-1.56l1.99-9.02c.17-.78.26-1.4.26-1.85,0-.38-.09-.65-.27-.8s-.47-.23-.88-.26l.13-.57Z"/>
                <g class="st133">
                  <path class="st50" d="M695.95,379.96c.41,0,.74.14.98.41s.37.65.37,1.11c0,.25-.02.53-.07.84-.05.31-.12.65-.23,1.04-.22.78-.39,1.47-.51,2.05-.13.59-.19,1.02-.19,1.29,0,.34.07.6.2.77.13.17.35.25.65.25.27,0,.55-.1.86-.3s.6-.46.88-.77.53-.67.75-1.06.38-.78.48-1.16l.94-4.29h1.69l-1.32,5.59c-.07.29-.12.55-.15.78-.03.23-.04.42-.04.58,0,.22.04.37.12.47.08.1.21.15.38.15.11,0,.21-.02.32-.06.1-.04.21-.1.33-.19.12-.09.24-.2.38-.33s.29-.3.46-.48l.59.56c-.29.29-.55.54-.79.75s-.47.38-.68.51c-.22.13-.43.23-.65.29-.21.06-.43.09-.66.09-.41,0-.73-.13-.96-.4-.23-.27-.35-.63-.35-1.09,0-.12,0-.24.03-.36.02-.12.05-.24.09-.35l-.1-.03c-.56.75-1.11,1.31-1.65,1.68-.53.37-1.09.56-1.66.56-.6,0-1.06-.16-1.36-.48s-.46-.78-.46-1.38c0-.15.03-.37.08-.64.05-.27.12-.58.2-.92.08-.34.17-.69.26-1.06.09-.37.18-.72.26-1.06s.15-.65.2-.92c.05-.28.08-.49.08-.65,0-.42-.17-.62-.51-.62-.11,0-.21.02-.32.06-.1.04-.21.11-.33.19-.12.09-.24.19-.38.33-.14.13-.29.29-.46.46l-.58-.56c.31-.31.58-.57.83-.78.24-.21.47-.38.69-.51.22-.13.43-.22.64-.28.21-.06.44-.09.68-.09h0ZM679.47,379.96c.42,0,.75.14.98.41s.35.64.35,1.09c0,.13,0,.25-.03.37s-.05.24-.09.35l.1.04c.54-.76,1.08-1.33,1.63-1.7.54-.38,1.1-.56,1.67-.56.6,0,1.06.16,1.36.47.3.31.45.77.45,1.37v.15s0,.1-.02.15h.03c.53-.72,1.06-1.26,1.58-1.61.52-.35,1.07-.53,1.64-.53.6,0,1.06.16,1.36.49s.45.78.45,1.37c0,.18-.03.41-.09.71-.06.3-.13.63-.21.99-.08.36-.17.73-.27,1.12s-.19.75-.27,1.09c-.05.22-.09.4-.12.54-.03.14-.06.26-.07.35-.02.09-.03.18-.03.24s0,.14,0,.22c0,.22.04.37.12.47.08.1.21.15.38.15.1,0,.21-.02.31-.06s.21-.1.33-.19c.12-.09.25-.2.38-.33.14-.13.3-.3.47-.48l.59.56c-.27.29-.53.53-.77.74-.24.21-.46.38-.68.51s-.44.23-.65.3c-.22.07-.44.1-.68.1-.22,0-.41-.04-.59-.12s-.33-.19-.45-.33c-.12-.14-.22-.31-.29-.5-.07-.19-.1-.4-.1-.63,0-.47.1-1.07.3-1.81.11-.37.21-.73.3-1.07.09-.34.16-.65.23-.94.06-.29.11-.54.15-.77.04-.23.06-.41.06-.56,0-.35-.07-.61-.2-.78-.13-.17-.34-.25-.63-.25-.18,0-.36.05-.56.14-.2.09-.4.22-.6.38-.2.16-.4.35-.59.58s-.37.46-.54.72c-.17.26-.31.53-.44.82-.13.29-.23.57-.3.86l-.85,4.09h-1.67c.08-.36.17-.76.27-1.18.1-.42.2-.84.3-1.27.1-.43.2-.85.3-1.27.09-.42.18-.81.25-1.17.07-.36.13-.69.18-.98.05-.29.07-.52.07-.69,0-.36-.07-.62-.21-.79-.14-.17-.36-.25-.67-.25-.27,0-.57.1-.88.31-.31.21-.61.47-.89.81-.28.33-.53.71-.76,1.13-.22.42-.38.84-.47,1.27l-.87,4.07h-1.68l1.28-5.58c.07-.31.13-.58.16-.8.03-.23.05-.42.05-.56,0-.42-.17-.62-.5-.62-.1,0-.21.02-.31.06-.11.04-.22.11-.33.19-.12.09-.24.19-.38.33-.14.13-.29.29-.46.46l-.59-.56c.28-.29.54-.53.77-.74.24-.21.46-.38.68-.51s.43-.23.65-.3c.21-.07.43-.1.66-.1h0Z"/>
                  <g class="st101">
                    <g class="st148">
                      <text class="st85" transform="translate(708.27 352.86)"><tspan x="0" y="0">newbie</tspan></text>
                    </g>
                    <g class="st45">
                      <g class="st63">
                        <text class="st89" transform="translate(531.84 387.27)"><tspan x="0" y="0">Combine </tspan></text>
                      </g>
                      <g class="st144">
                        <g class="st140">
                          <text class="st89" transform="translate(528.12 408.86)"><tspan x="0" y="0">and revise</tspan></text>
                        </g>
                        <g class="st155">
                          <g class="st44">
                            <g class="st132">
                              <polygon class="st8" points="263.76 383.39 274.1 383.39 274.1 363.04 263.76 363.04 263.76 383.39 263.76 383.39"/>
                              <polygon class="st8" points="278.24 383.39 288.59 383.39 288.59 363.04 278.24 363.04 278.24 383.39 278.24 383.39"/>
                              <polygon class="st8" points="292.72 383.39 303.07 383.39 303.07 329.13 292.72 329.13 292.72 383.39 292.72 383.39"/>
                              <polygon class="st8" points="307.21 383.39 317.55 383.39 317.55 356.26 307.21 356.26 307.21 383.39 307.21 383.39"/>
                              <polygon class="st8" points="321.69 383.39 332.04 383.39 332.04 335.91 321.69 335.91 321.69 383.39 321.69 383.39"/>
                            </g>
                          </g>
                          <g class="st60">
                            <g class="st77">
                              <g class="st151">
                                <polygon class="st76" points="264.36 459.47 274.7 459.47 274.7 445.93 264.36 445.93 264.36 459.47 264.36 459.47"/>
                                <polygon class="st76" points="278.84 459.47 289.19 459.47 289.19 435.77 278.84 435.77 278.84 459.47 278.84 459.47"/>
                                <polygon class="st76" points="293.32 459.47 303.67 459.47 303.67 445.93 293.32 445.93 293.32 459.47 293.32 459.47"/>
                                <polygon class="st76" points="307.81 459.47 318.15 459.47 318.15 439.16 307.81 439.16 307.81 459.47 307.81 459.47"/>
                                <polygon class="st76" points="322.29 459.47 332.64 459.47 332.64 405.3 322.29 405.3 322.29 459.47 322.29 459.47"/>
                              </g>
                            </g>
                            <g class="st67">
                              <g class="st167">
                                <g class="st124">
                                  <polygon class="st136" points="704.27 420.35 714.55 420.35 714.55 416.99 704.27 416.99 704.27 420.35 704.27 420.35"/>
                                  <polygon class="st136" points="718.66 420.35 728.93 420.35 728.93 416.99 718.66 416.99 718.66 420.35 718.66 420.35"/>
                                  <polygon class="st136" points="733.04 420.35 743.31 420.35 743.31 359.73 733.04 359.73 733.04 420.35 733.04 420.35"/>
                                  <polygon class="st136" points="747.42 420.35 757.7 420.35 757.7 386.68 747.42 386.68 747.42 420.35 747.42 420.35"/>
                                  <polygon class="st136" points="761.8 420.35 772.08 420.35 772.08 416.99 761.8 416.99 761.8 420.35 761.8 420.35"/>
                                </g>
                              </g>
                              <g class="st157">
                                <g class="st13">
                                  <g class="st74">
                                    <polygon class="st8" points="437.15 383.39 447.43 383.39 447.43 380.03 437.15 380.03 437.15 383.39 437.15 383.39"/>
                                    <polygon class="st8" points="451.54 383.39 461.81 383.39 461.81 380.03 451.54 380.03 451.54 383.39 451.54 383.39"/>
                                    <polygon class="st8" points="465.92 383.39 476.19 383.39 476.19 322.77 465.92 322.77 465.92 383.39 465.92 383.39"/>
                                    <polygon class="st8" points="480.3 383.39 490.58 383.39 490.58 349.72 480.3 349.72 480.3 383.39 480.3 383.39"/>
                                    <polygon class="st8" points="494.68 383.39 504.96 383.39 504.96 329.51 494.68 329.51 494.68 383.39 494.68 383.39"/>
                                  </g>
                                </g>
                                <g class="st54">
                                  <g class="st62">
                                    <g class="st2">
                                      <polygon class="st76" points="436.44 459.47 446.76 459.47 446.76 456.09 436.44 456.09 436.44 459.47 436.44 459.47"/>
                                      <polygon class="st76" points="450.89 459.47 461.22 459.47 461.22 432.39 450.89 432.39 450.89 459.47 450.89 459.47"/>
                                      <polygon class="st76" points="465.35 459.47 475.68 459.47 475.68 456.09 465.35 456.09 465.35 459.47 465.35 459.47"/>
                                      <polygon class="st76" points="479.81 459.47 490.14 459.47 490.14 456.09 479.81 456.09 479.81 459.47 479.81 459.47"/>
                                      <polygon class="st76" points="494.27 459.47 504.6 459.47 504.6 398.53 494.27 398.53 494.27 459.47 494.27 459.47"/>
                                    </g>
                                  </g>
                                </g>
                              </g>
                            </g>
                          </g>
                        </g>
                      </g>
                    </g>
                  </g>
                </g>
              </g>
            </g>
          </g>
        </g>
      </g>
    </g>
  </g>
</svg>