<svg xmlns="http://www.w3.org/2000/svg" xmlns:xlink="http://www.w3.org/1999/xlink" xmlns:inkscape="http://www.inkscape.org/namespaces/inkscape" version="1.1" width="911" height="485" viewBox="0 0 911 485">
<rect width="100%" height="100%" fill="white" />
<defs>
<clipPath id="clip_0">
<path transform="matrix(1,0,0,-1,0,485)" d="M0 485H911V0H0Z"/>
</clipPath>
<clipPath id="clip_1">
<path transform="matrix(1,0,0,-1,0,485)" d="M2.897 361.981H908.177V483.66099H2.897Z"/>
</clipPath>
<clipPath id="clip_2">
<path transform="matrix(1,0,0,-1,0,485)" d="M2.897 361.981H908.177V483.66099H2.897Z"/>
</clipPath>
<clipPath id="clip_3">
<path transform="matrix(1,0,0,-1,0,485)" d="M2.897 361.981H908.177V483.66099H2.897Z"/>
</clipPath>
<clipPath id="clip_4">
<path transform="matrix(1,0,0,-1,0,485)" d="M2.897 361.981H908.177V483.66099H2.897Z"/>
</clipPath>
<clipPath id="clip_5">
<path transform="matrix(1,0,0,-1,0,485)" d="M2.897 361.981H908.177V483.66099H2.897Z"/>
</clipPath>
<clipPath id="clip_6">
<path transform="matrix(1,0,0,-1,0,485)" d="M767.537 393.181H811.457V437.101H767.537Z"/>
</clipPath>
<clipPath id="clip_7">
<path transform="matrix(1,0,0,-1,0,485)" d="M432.257 392.701H476.297V436.62098H432.257Z"/>
</clipPath>
<clipPath id="clip_8">
<path transform="matrix(1,0,0,-1,0,485)" d="M588.257 386.821H642.737V441.30104H588.257Z"/>
</clipPath>
<clipPath id="clip_9">
<path transform="matrix(1,0,0,-1,0,485)" d="M271.817 395.581H312.137V438.421H271.817Z"/>
</clipPath>
<clipPath id="clip_10">
<path transform="matrix(1,0,0,-1,0,485)" d="M443.297 407.341H465.617V428.941H443.297Z"/>
</clipPath>
<clipPath id="clip_11">
<path transform="matrix(1,0,0,-1,0,485)" d="M75.737 391.021H127.097V442.261H75.737Z"/>
</clipPath>
<clipPath id="clip_12">
<path transform="matrix(1,0,0,-1,0,485)" d="M0 485H911V0H0Z"/>
</clipPath>
<clipPath id="clip_13">
<path transform="matrix(1,0,0,-1,0,485)" d="M0 485H911V0H0Z"/>
</clipPath>
<clipPath id="clip_14">
<path transform="matrix(1,0,0,-1,0,485)" d="M0 485H911V0H0Z"/>
</clipPath>
<clipPath id="clip_15">
<path transform="matrix(1,0,0,-1,0,485)" d="M0 485H911V0H0Z"/>
</clipPath>
<clipPath id="clip_16">
<path transform="matrix(1,0,0,-1,0,485)" d="M663.549 232.807H776.71V291.84703H663.549Z"/>
</clipPath>
<clipPath id="clip_17">
<path transform="matrix(1,0,0,-1,0,485)" d="M0 485H911V0H0Z"/>
</clipPath>
<clipPath id="clip_18">
<path transform="matrix(1,0,0,-1,0,485)" d="M57.829 169.967H886.42898V362.688H57.829Z"/>
</clipPath>
<clipPath id="clip_19">
<path transform="matrix(1,0,0,-1,0,485)" d="M57.829 169.967H886.42898V362.688H57.829Z"/>
</clipPath>
<clipPath id="clip_20">
<path transform="matrix(1,0,0,-1,0,485)" d="M57.829 169.967H886.42898V362.688H57.829Z"/>
</clipPath>
<clipPath id="clip_21">
<path transform="matrix(1,0,0,-1,0,485)" d="M57.829 169.967H886.42898V362.688H57.829Z"/>
</clipPath>
<clipPath id="clip_22">
<path transform="matrix(1,0,0,-1,0,485)" d="M57.829 169.967H886.42898V362.688H57.829Z"/>
</clipPath>
<clipPath id="clip_23">
<path transform="matrix(1,0,0,-1,0,485)" d="M57.829 169.967H886.42898V362.688H57.829Z"/>
</clipPath>
<clipPath id="clip_24">
<path transform="matrix(1,0,0,-1,0,485)" d="M0 485H911V0H0Z"/>
</clipPath>
<clipPath id="clip_25">
<path transform="matrix(1,0,0,-1,0,485)" d="M219.697 25.424H773.377V170.144H219.697Z"/>
</clipPath>
<clipPath id="clip_26">
<path transform="matrix(1,0,0,-1,0,485)" d="M219.697 25.424H773.377V170.144H219.697Z"/>
</clipPath>
<clipPath id="clip_27">
<path transform="matrix(1,0,0,-1,0,485)" d="M262.897 101.504H332.256V170.144H262.897Z"/>
</clipPath>
<clipPath id="clip_28">
<path transform="matrix(1,0,0,-1,0,485)" d="M263.497 25.424H332.857V93.944H263.497Z"/>
</clipPath>
<clipPath id="clip_29">
<path transform="matrix(1,0,0,-1,0,485)" d="M703.417 64.544H772.298V132.70401H703.417Z"/>
</clipPath>
<clipPath id="clip_30">
<path transform="matrix(1,0,0,-1,0,485)" d="M436.297 101.504H505.17799V169.664H436.297Z"/>
</clipPath>
<clipPath id="clip_31">
<path transform="matrix(1,0,0,-1,0,485)" d="M435.577 25.424H504.818V93.944H435.577Z"/>
</clipPath>
</defs>
<g>
<g inkscape:groupmode="layer" inkscape:label="&#x56FE;&#x5C42; 1">
<g clip-path="url(#clip_0)">
<path transform="matrix(1,0,0,-1,3.677,18.118988)" stroke-width="1.5" stroke-linecap="butt" stroke-dasharray="32767,32767" stroke-miterlimit="8" stroke-linejoin="miter" fill="none" stroke="#767171" d="M0 0C0 8.837 7.163 16 16 16H887.72C896.557 16 903.72 8.837 903.72 0V-64C903.72-72.837 896.557-80 887.72-80H16C7.163-80 0-72.837 0-64V0Z"/>
</g>
<text xml:space="preserve" transform="matrix(1 0 -0 1 0 485)" font-size="18" font-family="TimesNewRomanPSMT"><tspan y="-443.0703" x="37.5864 49.5924 58.5924 67.5924 72.6324 78.6264 87.6264 92.6664 97.1124 109.11839 118.11839 127.11839 136.1184 141.1584 146.1984 151.23839 160.23839 169.23839">Control Condition </tspan></text>
<g clip-path="url(#clip_1)">
<path transform="matrix(1,0,0,-1,181.6272,29.787598)" d="M0 0C1.002 0 1.986-.144 2.953-.431L2.391-2.997H1.239C1.222-2.476 1.169-2.083 1.081-1.819 .993-1.556 .855-1.358 .668-1.226 .48-1.094 .226-1.028-.097-1.028-.589-1.028-1.075-1.222-1.556-1.608-2.036-1.995-2.48-2.58-2.887-3.362-3.294-4.144-3.623-5.068-3.872-6.135-4.121-7.201-4.245-8.162-4.245-9.018-4.245-9.51-4.2-9.917-4.109-10.239-4.018-10.562-3.86-10.811-3.634-10.986-3.409-11.162-3.097-11.25-2.698-11.25-2.089-11.25-1.583-11.098-1.182-10.793-.781-10.488-.419-9.964-.097-9.22H1.055L.492-11.813C-.076-11.977-.642-12.095-1.204-12.168-1.767-12.242-2.37-12.278-3.015-12.278-4.263-12.278-5.221-11.937-5.889-11.254-6.557-10.572-6.891-9.589-6.891-8.306-6.891-7.819-6.838-7.26-6.732-6.627-6.562-5.625-6.281-4.699-5.889-3.85-5.496-3-5.002-2.287-4.408-1.709-3.813-1.132-3.145-.703-2.404-.422-1.663-.141-.861 0 0 0" fill-rule="evenodd"/>
<path transform="matrix(1,0,0,-1,193.697,46.54901)" stroke-width="1" stroke-linecap="butt" stroke-miterlimit="8" stroke-linejoin="miter" fill="none" stroke="#000000" d="M0 0H44.94V7.29L59.52-7.29 44.94-21.87V-14.58H0V0Z"/>
</g>
<text xml:space="preserve" transform="matrix(1 0 -0 1 0 485)" font-size="18" font-family="TimesNewRomanPSMT"><tspan y="-443.3828" x="264.5474 274.5194 280.5134 289.5134 303.4454 312.4454">Prompt</tspan></text>
<g clip-path="url(#clip_2)">
<path transform="matrix(1,0,0,-1,330.377,45.559114)" stroke-width="1" stroke-linecap="butt" stroke-miterlimit="8" stroke-linejoin="miter" fill="none" stroke="#000000" d="M0 0H45V7.26L59.52-7.26 45-21.78V-14.52H0V0Z"/>
</g>
<text xml:space="preserve" transform="matrix(1 0 -0 1 0 485)" font-size="18" font-family="TimesNewRomanPSMT"><tspan y="-443.3828" x="400.9146 416.8806 425.8806 434.8806 439.92063 445.9146 450.95463 458.9826 467.9826 472.4286 478.42259 487.42259 496.42259 505.42259">Modified Input</tspan></text>
<g clip-path="url(#clip_3)">
<path transform="matrix(1,0,0,-1,522.4971,45.469087)" stroke-width="1" stroke-linecap="butt" stroke-miterlimit="8" stroke-linejoin="miter" fill="none" stroke="#000000" d="M0 0H44.94V7.29L59.52-7.29 44.94-21.87V-14.58H0V0Z"/>
</g>
<text xml:space="preserve" transform="matrix(1 0 -0 1 0 485)" font-size="18" font-family="TimesNewRomanPSMT"><tspan y="-444.1484" x="722.9927 734.99868 743.99868 752.99868 758.0387 764.0327 773.0327 778.0727 783.1127 791.1407 800.1407 804.4607 817.4207 826.4207 831.4607 840.4607 849.4607 593.3927 609.3587 618.3587 627.3587 635.3867">Controlled OutputModel</tspan></text>
<g clip-path="url(#clip_4)">
<path transform="matrix(1,0,0,-1,655.3371,43.158998)" stroke-width="1" stroke-linecap="butt" stroke-miterlimit="8" stroke-linejoin="miter" fill="none" stroke="#000000" d="M0 0H45.12V7.26L59.64-7.26 45.12-21.78V-14.52H0V0Z"/>
<path transform="matrix(1,0,0,-1,257.357,1.8389893)" stroke-width="1.5" stroke-linecap="butt" stroke-dasharray="32767,32767" stroke-miterlimit="8" stroke-linejoin="miter" fill="none" stroke="#767171" d="M0 0 .143-96.661"/>
<path transform="matrix(1,0,0,-1,718.5171,1.7990112)" stroke-width="1.5" stroke-linecap="butt" stroke-dasharray="32767,32767" stroke-miterlimit="8" stroke-linejoin="miter" fill="none" stroke="#767171" d="M0 0-.017-95.701"/>
</g>
<text xml:space="preserve" transform="matrix(1 0 -0 1 0 485)" font-size="18" font-family="TimesNewRomanPSMT"><tspan y="-457.125" x="321.4146 331.6026 336.0486 348.05464 357.05464 366.05464 371.0946 379.12263 388.12263">+ Context</tspan></text>
<g clip-path="url(#clip_5)">
<path transform="matrix(1,0,0,-1,257.4052,98.11899)" stroke-width="1.5" stroke-linecap="butt" stroke-dasharray="32767,32767" stroke-miterlimit="8" stroke-linejoin="miter" fill="none" stroke="#767171" d="M0 0-193.905-21.381"/>
<path transform="matrix(1,0,0,-1,719.3571,98.718997)" stroke-width="1.5" stroke-linecap="butt" stroke-dasharray="32767,32767" stroke-miterlimit="8" stroke-linejoin="miter" fill="none" stroke="#767171" d="M0 0 128.143-20.781"/>
</g>
<g clip-path="url(#clip_6)">
<path transform="matrix(1,0,0,-1,799.9585,48.732515)" d="M0 0C.44 .003 .885-.148 1.207-.457L3.552-2.76C3.965-3.159 4.195-3.699 4.195-4.272V-31.381-38.121C4.195-38.694 3.965-39.234 3.552-39.633L1.213-41.929C.885-42.244 .465-42.411 .018-42.411-.435-42.411-.875-42.231-1.191-41.916L-2.708-40.431-4.212-41.903C-4.869-42.54-5.959-42.527-6.597-41.916L-8.114-40.431-9.48-41.775C-10.137-42.405-11.227-42.399-11.864-41.781L-13.244-40.431-14.616-41.775C-15.267-42.405-16.364-42.399-17.001-41.781L-18.38-40.431-19.746-41.775C-20.403-42.405-21.493-42.399-22.131-41.781L-24.325-39.633C-24.738-39.234-24.961-38.694-24.961-38.121V-31.388-4.272C-24.961-3.699-24.738-3.159-24.325-2.76L-22.137-.618C-21.486 .012-20.39 .006-19.753-.612L-18.38-1.962-17.007-.618C-16.35 .012-15.26 .006-14.623-.612L-13.244-1.962-11.871-.618C-11.221 .012-10.13 .006-9.486-.612L-8.114-1.962-6.609-.49C-5.953 .147-4.863 .135-4.218-.477L-2.708-1.962-1.177-.464C-.875-.158-.44-.003 0 0M.018-3.448C-.068-3.448-.153-3.48-.212-3.538L-1.513-4.812C-2.169-5.449-3.266-5.435-3.904-4.812L-5.185-3.557C-5.244-3.5-5.322-3.467-5.408-3.467-5.493-3.467-5.578-3.5-5.638-3.557L-6.911-4.812C-7.569-5.442-8.659-5.435-9.296-4.818L-10.452-3.692C-10.577-3.57-10.781-3.57-10.905-3.692L-12.048-4.812C-12.705-5.442-13.795-5.435-14.433-4.818L-15.588-3.692C-15.714-3.57-15.91-3.57-16.035-3.692L-17.178-4.812C-17.835-5.442-18.925-5.435-19.569-4.818L-20.719-3.692C-20.777-3.635-20.856-3.602-20.942-3.602-21.027-3.602-21.106-3.635-21.172-3.692L-22.058-4.561V-31.388-37.832L-21.172-38.701C-21.047-38.822-20.843-38.822-20.719-38.701L-19.575-37.581C-18.919-36.944-17.828-36.958-17.191-37.569L-16.035-38.701C-15.91-38.822-15.707-38.822-15.582-38.701L-14.439-37.581C-13.782-36.944-12.692-36.958-12.055-37.569L-10.905-38.701C-10.781-38.822-10.577-38.822-10.452-38.701L-9.309-37.581C-8.652-36.944-7.562-36.958-6.925-37.569L-5.638-38.836C-5.578-38.893-5.493-38.926-5.408-38.926-5.322-38.926-5.244-38.893-5.185-38.836L-3.904-37.581C-3.588-37.266-3.161-37.093-2.708-37.093-2.262-37.093-1.841-37.266-1.519-37.569L-.212-38.855C-.153-38.913-.068-38.945 .018-38.945 .103-38.945 .182-38.913 .241-38.855L1.286-37.832V-31.381-4.561L.241-3.538C.182-3.48 .103-3.448 .018-3.448M-18.104-9.238H-10.384C-9.577-9.238-8.932-9.875-8.932-10.661-8.932-11.446-9.577-12.083-10.384-12.083H-18.104C-18.906-12.083-19.556-11.446-19.556-10.661-19.556-9.875-18.906-9.238-18.104-9.238M-18.104-16.353H-3.119C-2.311-16.353-1.667-16.989-1.667-17.773-1.667-18.557-2.311-19.193-3.119-19.193H-18.104C-18.906-19.193-19.556-18.557-19.556-17.773-19.556-16.989-18.906-16.353-18.104-16.353M-18.105-23.468H-7.478C-6.677-23.468-6.026-24.104-6.026-24.888-6.026-25.672-6.677-26.308-7.478-26.308H-18.105C-18.906-26.308-19.556-25.672-19.556-24.888-19.556-24.104-18.906-23.468-18.105-23.468M-18.104-30.578H-3.119C-2.311-30.578-1.667-31.216-1.667-32.001-1.667-32.786-2.311-33.423-3.119-33.423H-18.104C-18.906-33.423-19.556-32.786-19.556-32.001-19.556-31.216-18.906-30.578-18.104-30.578" fill="#4e79a7" fill-rule="evenodd"/>
</g>
<g clip-path="url(#clip_7)">
<path transform="matrix(1,0,0,-1,464.7671,49.212495)" d="M0 0C.441 .003 .887-.148 1.21-.457L3.562-2.76C3.976-3.159 4.207-3.699 4.207-4.272V-31.381-38.121C4.207-38.694 3.976-39.234 3.562-39.633L1.217-41.929C.887-42.244 .466-42.411 .018-42.411-.437-42.411-.878-42.231-1.194-41.916L-2.716-40.431-4.224-41.903C-4.883-42.54-5.976-42.527-6.615-41.916L-8.136-40.431-9.506-41.775C-10.164-42.405-11.258-42.399-11.897-41.781L-13.28-40.431-14.656-41.775C-15.309-42.405-16.408-42.399-17.047-41.781L-18.43-40.431-19.8-41.775C-20.459-42.405-21.552-42.399-22.191-41.781L-24.391-39.633C-24.806-39.234-25.03-38.694-25.03-38.121V-31.388-4.272C-25.03-3.699-24.806-3.159-24.391-2.76L-22.198-.618C-21.545 .012-20.446 .006-19.807-.612L-18.43-1.962-17.053-.618C-16.395 .012-15.302 .006-14.663-.612L-13.28-1.962-11.903-.618C-11.251 .012-10.158 .006-9.512-.612L-8.136-1.962-6.627-.49C-5.969 .147-4.876 .135-4.23-.477L-2.716-1.962-1.181-.464C-.878-.158-.441-.003 0 0M.018-3.448C-.068-3.448-.154-3.48-.213-3.538L-1.517-4.812C-2.175-5.449-3.275-5.435-3.914-4.812L-5.199-3.557C-5.258-3.5-5.337-3.467-5.423-3.467-5.508-3.467-5.593-3.5-5.653-3.557L-6.93-4.812C-7.59-5.442-8.683-5.435-9.322-4.818L-10.481-3.692C-10.605-3.57-10.81-3.57-10.935-3.692L-12.081-4.812C-12.74-5.442-13.833-5.435-14.472-4.818L-15.631-3.692C-15.756-3.57-15.954-3.57-16.079-3.692L-17.225-4.812C-17.883-5.442-18.977-5.435-19.622-4.818L-20.775-3.692C-20.834-3.635-20.913-3.602-20.999-3.602-21.085-3.602-21.164-3.635-21.23-3.692L-22.119-4.561V-31.388-37.832L-21.23-38.701C-21.104-38.822-20.9-38.822-20.775-38.701L-19.629-37.581C-18.97-36.944-17.877-36.958-17.238-37.569L-16.079-38.701C-15.954-38.822-15.75-38.822-15.624-38.701L-14.479-37.581C-13.82-36.944-12.727-36.958-12.088-37.569L-10.935-38.701C-10.81-38.822-10.605-38.822-10.481-38.701L-9.334-37.581C-8.676-36.944-7.583-36.958-6.944-37.569L-5.653-38.836C-5.593-38.893-5.508-38.926-5.423-38.926-5.337-38.926-5.258-38.893-5.199-38.836L-3.914-37.581C-3.598-37.266-3.17-37.093-2.716-37.093-2.268-37.093-1.846-37.266-1.524-37.569L-.213-38.855C-.154-38.913-.068-38.945 .018-38.945 .104-38.945 .183-38.913 .242-38.855L1.289-37.832V-31.381-4.561L.242-3.538C.183-3.48 .104-3.448 .018-3.448M-18.154-9.238H-10.413C-9.603-9.238-8.957-9.875-8.957-10.661-8.957-11.446-9.603-12.083-10.413-12.083H-18.154C-18.958-12.083-19.61-11.446-19.61-10.661-19.61-9.875-18.958-9.238-18.154-9.238M-18.154-16.353H-3.128C-2.318-16.353-1.672-16.989-1.672-17.773-1.672-18.557-2.318-19.193-3.128-19.193H-18.154C-18.958-19.193-19.61-18.557-19.61-17.773-19.61-16.989-18.958-16.353-18.154-16.353M-18.155-23.468H-7.499C-6.695-23.468-6.043-24.104-6.043-24.888-6.043-25.672-6.695-26.308-7.499-26.308H-18.155C-18.958-26.308-19.61-25.672-19.61-24.888-19.61-24.104-18.958-23.468-18.155-23.468M-18.154-30.578H-3.128C-2.318-30.578-1.672-31.216-1.672-32.001-1.672-32.786-2.318-33.423-3.128-33.423H-18.154C-18.958-33.423-19.61-32.786-19.61-32.001-19.61-31.216-18.958-30.578-18.154-30.578" fill="#7f7f7f" fill-rule="evenodd"/>
</g>
<g clip-path="url(#clip_8)">
<path transform="matrix(1,0,0,-1,623.8223,90.5267)" d="M0 0C-.929 0-1.682 .753-1.682 1.682-1.682 2.612-.929 3.365 0 3.365 .929 3.365 1.682 2.612 1.682 1.682 1.682 .753 .929 0 0 0M-8.131 0C-9.061 0-9.814 .753-9.814 1.682-9.814 2.612-9.061 3.365-8.131 3.365-7.202 3.365-6.449 2.612-6.449 1.682-6.449 .753-7.202 0-8.131 0M-16.263 0C-17.192 0-17.945 .753-17.945 1.682-17.945 2.612-17.192 3.365-16.263 3.365-15.334 3.365-14.581 2.612-14.581 1.682-14.581 .753-15.334 0-16.263 0M1.122 5.889H-17.384C-19.707 5.889-21.59 4.005-21.59 1.682-21.59-.641-19.707-2.524-17.384-2.524H1.122C3.444-2.524 5.327-.641 5.327 1.682 5.327 4.005 3.444 5.889 1.122 5.889" fill="#7f7f7f"/>
<path transform="matrix(1,0,0,-1,619.5659,59.962587)" d="M0 0C0-.465-.377-.841-.841-.841-1.306-.841-1.682-.465-1.682 0-1.682 .465-1.306 .841-.841 .841-.377 .841 0 .465 0 0" fill="#7f7f7f"/>
<path transform="matrix(1,0,0,-1,618.5396,61.64499)" d="M0 0C-.929 0-1.682 .753-1.682 1.682-1.682 2.612-.929 3.365 0 3.365 .929 3.365 1.682 2.612 1.682 1.682 1.682 .753 .929 0 0 0M-5.608 0C-6.537 0-7.29 .753-7.29 1.682-7.29 2.612-6.537 3.365-5.608 3.365-4.679 3.365-3.926 2.612-3.926 1.682-3.926 .753-4.679 0-5.608 0M2.024 7.291H-1.682V9.842C-.609 10.462-.242 11.834-.861 12.907-1.481 13.979-2.853 14.347-3.926 13.728-4.998 13.108-5.366 11.736-4.747 10.663-4.55 10.322-4.267 10.039-3.926 9.842V7.291H-7.632C-8.991 7.287-10.091 6.187-10.094 4.829V-1.464C-10.091-2.822-8.991-3.923-7.632-3.926H2.024C3.383-3.923 4.483-2.822 4.486-1.464V4.829C4.483 6.187 3.383 7.287 2.024 7.291" fill="#7f7f7f"/>
<path transform="matrix(1,0,0,-1,613.9579,59.962587)" d="M0 0C0-.465-.377-.841-.841-.841-1.306-.841-1.682-.465-1.682 0-1.682 .465-1.306 .841-.841 .841-.377 .841 0 .465 0 0" fill="#7f7f7f"/>
<path transform="matrix(1,0,0,-1,622.4651,75.1044)" d="M0 0H-1.559C-1.613-.01-1.665-.031-1.71-.062L-3.426-1.817-4.733 1.279-7.172-3.769-8.883 2.804-10.201 0H-12.898V1.122H-10.913L-8.58 6.085-6.853-.522-4.66 3.965-3.045 .14-2.484 .701C-2.238 .95-1.909 1.1-1.559 1.122H0ZM7.851-2.142V2.529C7.851 3.92 6.724 5.047 5.333 5.047H2.243V7.851H-15.702V4.486H-19.914C-20.065 4.486-20.188 4.609-20.188 4.761V9.41C-18.261 9.98-17.159 12.004-17.729 13.932-17.881 14.449-18.147 14.925-18.506 15.327L-20.188 13.835C-19.953 13.579-19.819 13.246-19.813 12.899-19.817 12.124-20.448 11.5-21.222 11.504-21.997 11.508-22.621 12.14-22.617 12.914-22.615 13.248-22.493 13.571-22.275 13.824L-23.957 15.299C-25.279 13.78-25.119 11.478-23.601 10.156-23.257 9.857-22.861 9.625-22.432 9.472V4.761C-22.432 3.371-21.304 2.243-19.914 2.243H-15.702V-7.851H2.243V2.804H5.333C5.485 2.804 5.608 2.681 5.608 2.529V-2.142C3.692-2.762 2.642-4.817 3.262-6.733 3.417-7.212 3.669-7.654 4.004-8.031L5.686-6.539C5.454-6.285 5.326-5.952 5.327-5.608 5.328-4.834 5.956-4.207 6.731-4.207 7.505-4.208 8.132-4.836 8.131-5.61 8.131-5.95 8.008-6.278 7.784-6.533L9.466-8.008C10.793-6.498 10.645-4.199 9.135-2.872 8.761-2.543 8.324-2.295 7.851-2.142" fill="#7f7f7f"/>
</g>
<g clip-path="url(#clip_9)">
<path transform="matrix(1,0,0,-1,312.3113,34.302888)" d="M0 0C.855 .005 1.72-.29 2.346-.892L6.904-5.383C7.708-6.161 8.155-7.214 8.155-8.331V-61.203-74.348C8.155-75.465 7.708-76.518 6.904-77.297L2.358-81.775C1.72-82.39 .903-82.716 .035-82.716-.846-82.716-1.702-82.364-2.315-81.75L-5.264-78.853-8.188-81.724C-9.465-82.966-11.584-82.942-12.823-81.75L-15.771-78.853-18.427-81.474C-19.704-82.703-21.824-82.691-23.062-81.487L-25.744-78.853-28.411-81.474C-29.676-82.703-31.808-82.691-33.047-81.487L-35.728-78.853-38.384-81.474C-39.66-82.703-41.779-82.691-43.018-81.487L-47.283-77.297C-48.087-76.518-48.521-75.465-48.521-74.348V-61.216-8.331C-48.521-7.214-48.087-6.161-47.283-5.383L-43.031-1.206C-41.766 .023-39.634 .012-38.397-1.193L-35.728-3.827-33.059-1.206C-31.782 .023-29.663 .012-28.424-1.193L-25.744-3.827-23.075-1.206C-21.811 .023-19.691 .012-18.44-1.193L-15.771-3.827-12.847-.955C-11.571 .287-9.452 .262-8.2-.929L-5.264-3.827-2.289-.905C-1.702-.309-.855-.005 0 0M.035-6.725C-.131-6.725-.298-6.788-.412-6.9L-2.941-9.384C-4.217-10.626-6.349-10.601-7.588-9.384L-10.078-6.938C-10.193-6.825-10.346-6.762-10.512-6.762-10.677-6.762-10.843-6.825-10.959-6.938L-13.435-9.384C-14.713-10.614-16.831-10.601-18.071-9.397L-20.317-7.201C-20.559-6.964-20.956-6.964-21.198-7.201L-23.42-9.384C-24.697-10.614-26.815-10.601-28.055-9.397L-30.301-7.201C-30.544-6.964-30.927-6.964-31.169-7.201L-33.391-9.384C-34.668-10.614-36.788-10.601-38.039-9.397L-40.273-7.201C-40.388-7.089-40.541-7.026-40.707-7.026-40.874-7.026-41.027-7.089-41.154-7.201L-42.878-8.895V-61.216-73.785L-41.154-75.478C-40.911-75.716-40.516-75.716-40.273-75.478L-38.051-73.295C-36.775-72.053-34.655-72.079-33.417-73.271L-31.169-75.478C-30.927-75.716-30.532-75.716-30.288-75.478L-28.067-73.295C-26.791-72.053-24.671-72.079-23.433-73.271L-21.198-75.478C-20.956-75.716-20.559-75.716-20.317-75.478L-18.095-73.295C-16.819-72.053-14.7-72.079-13.461-73.271L-10.959-75.742C-10.843-75.854-10.677-75.917-10.512-75.917-10.346-75.917-10.193-75.854-10.078-75.742L-7.588-73.295C-6.975-72.681-6.145-72.343-5.264-72.343-4.396-72.343-3.578-72.681-2.954-73.271L-.412-75.779C-.298-75.892-.131-75.955 .035-75.955 .201-75.955 .354-75.892 .469-75.779L2.499-73.785V-61.203-8.895L.469-6.9C.354-6.788 .201-6.725 .035-6.725M-35.192-18.017H-20.186C-18.615-18.017-17.363-19.26-17.363-20.791-17.363-22.323-18.615-23.566-20.186-23.566H-35.192C-36.75-23.566-38.014-22.323-38.014-20.791-38.014-19.26-36.75-18.017-35.192-18.017M-35.192-31.893H-6.063C-4.493-31.893-3.241-33.134-3.241-34.663-3.241-36.192-4.493-37.433-6.063-37.433H-35.192C-36.75-37.433-38.014-36.192-38.014-34.663-38.014-33.134-36.75-31.893-35.192-31.893M-35.193-45.77H-14.536C-12.979-45.77-11.714-47.011-11.714-48.54-11.714-50.069-12.979-51.31-14.536-51.31H-35.193C-36.75-51.31-38.014-50.069-38.014-48.54-38.014-47.011-36.75-45.77-35.193-45.77M-35.192-59.637H-6.063C-4.493-59.637-3.241-60.88-3.241-62.412-3.241-63.943-4.493-65.185-6.063-65.185H-35.192C-36.75-65.185-38.014-63.943-38.014-62.412-38.014-60.88-36.75-59.637-35.192-59.637" fill="#e15759" fill-rule="evenodd"/>
</g>
<g clip-path="url(#clip_10)">
<path transform="matrix(1,0,0,-1,465.7135,49.869386)" d="M0 0C.473 .003 .952-.146 1.298-.45L3.822-2.714C4.267-3.106 4.514-3.637 4.514-4.201V-30.859-37.487C4.514-38.05 4.267-38.581 3.822-38.973L1.306-41.231C.952-41.541 .5-41.705 .019-41.705-.468-41.705-.942-41.528-1.281-41.219L-2.914-39.758-4.533-41.206C-5.239-41.832-6.412-41.819-7.098-41.219L-8.731-39.758-10.201-41.079C-10.907-41.699-12.081-41.693-12.766-41.086L-14.251-39.758-15.728-41.079C-16.428-41.699-17.608-41.693-18.294-41.086L-19.778-39.758-21.248-41.079C-21.955-41.699-23.128-41.693-23.814-41.086L-26.175-38.973C-26.62-38.581-26.86-38.05-26.86-37.487V-30.865-4.201C-26.86-3.637-26.62-3.106-26.175-2.714L-23.821-.608C-23.121 .012-21.94 .006-21.255-.601L-19.778-1.93-18.3-.608C-17.594 .012-16.421 .006-15.735-.601L-14.251-1.93-12.774-.608C-12.074 .012-10.9 .006-10.208-.601L-8.731-1.93-7.112-.482C-6.405 .145-5.232 .132-4.539-.469L-2.914-1.93-1.267-.456C-.942-.156-.473-.003 0 0M.019-3.391C-.073-3.391-.165-3.422-.228-3.479L-1.628-4.732C-2.335-5.358-3.515-5.345-4.201-4.732L-5.579-3.498C-5.642-3.441-5.727-3.409-5.819-3.409-5.91-3.409-6.002-3.441-6.067-3.498L-7.437-4.732C-8.144-5.351-9.317-5.345-10.003-4.738L-11.247-3.631C-11.381-3.511-11.601-3.511-11.735-3.631L-12.965-4.732C-13.671-5.351-14.844-5.345-15.53-4.738L-16.774-3.631C-16.909-3.511-17.12-3.511-17.254-3.631L-18.484-4.732C-19.191-5.351-20.365-5.345-21.057-4.738L-22.294-3.631C-22.358-3.574-22.442-3.542-22.534-3.542-22.626-3.542-22.711-3.574-22.782-3.631L-23.736-4.485V-30.865-37.202L-22.782-38.056C-22.647-38.176-22.428-38.176-22.294-38.056L-21.064-36.955C-20.358-36.329-19.184-36.342-18.499-36.943L-17.254-38.056C-17.12-38.176-16.901-38.176-16.767-38.056L-15.537-36.955C-14.831-36.329-13.657-36.342-12.972-36.943L-11.735-38.056C-11.601-38.176-11.381-38.176-11.247-38.056L-10.017-36.955C-9.31-36.329-8.137-36.342-7.451-36.943L-6.067-38.189C-6.002-38.246-5.91-38.278-5.819-38.278-5.727-38.278-5.642-38.246-5.579-38.189L-4.201-36.955C-3.861-36.646-3.402-36.475-2.914-36.475-2.434-36.475-1.981-36.646-1.635-36.943L-.228-38.208C-.165-38.265-.073-38.297 .019-38.297 .111-38.297 .196-38.265 .26-38.208L1.383-37.202V-30.859-4.485L.26-3.479C.196-3.422 .111-3.391 .019-3.391M-19.481-9.084H-11.174C-10.305-9.084-9.612-9.711-9.612-10.483-9.612-11.255-10.305-11.882-11.174-11.882H-19.481C-20.344-11.882-21.043-11.255-21.043-10.483-21.043-9.711-20.344-9.084-19.481-9.084M-19.481-16.081H-3.356C-2.487-16.081-1.794-16.706-1.794-17.477-1.794-18.248-2.487-18.874-3.356-18.874H-19.481C-20.344-18.874-21.043-18.248-21.043-17.477-21.043-16.706-20.344-16.081-19.481-16.081M-19.482-23.077H-8.047C-7.185-23.077-6.484-23.703-6.484-24.474-6.484-25.245-7.185-25.87-8.047-25.87H-19.482C-20.344-25.87-21.043-25.245-21.043-24.474-21.043-23.703-20.344-23.077-19.482-23.077M-19.481-30.069H-3.356C-2.487-30.069-1.794-30.696-1.794-31.468-1.794-32.24-2.487-32.866-3.356-32.866H-19.481C-20.344-32.866-21.043-32.24-21.043-31.468-21.043-30.696-20.344-30.069-19.481-30.069" fill="#e15759" fill-rule="evenodd"/>
</g>
<g clip-path="url(#clip_11)">
<path transform="matrix(1,0,0,-1,92.3152,90.97681)" d="M0 0C.555 3.74 .536 7.681-.471 11.194-16.197 20.026-10.466 39.47 2.764 43.585 9.704 46.348 18.222 45.647 24.391 39.497 28.87 35.024 26.715 33.868 26.715 33.868L25.733 33.325C26.274 31.192 27.237 27.267 27.118 26.729 26.952 25.991 26.125 25.248 26.125 25.248L28.36 17.745 26.372 16.909C26.816 14.505 27.066 12.507 26.829 10.129 26.788 9.712 25.442 8.534 24.351 8.469L17.626 8.039 18.069 0H0M2.946 24.808 2.734 25.318 2.138 25.194 2.152 24.645C2.122 24.634 2.095 24.623 2.067 24.607L1.627 24.943 1.173 24.537 1.458 24.07C1.448 24.054 1.434 24.037 1.423 24.015 1.417 24.01 1.412 23.999 1.407 23.989L.857 24.064 .666 23.483 1.148 23.223C1.145 23.19 1.143 23.163 1.143 23.131L.631 22.919 .757 22.322 1.303 22.338C1.316 22.305 1.33 22.278 1.344 22.251L1.007 21.812 1.415 21.361 1.882 21.643C1.899 21.632 1.915 21.622 1.934 21.61 1.942 21.606 1.953 21.594 1.962 21.594L1.888 21.046 2.47 20.856 2.729 21.334C2.761 21.334 2.794 21.328 2.826 21.328L3.036 20.818 3.635 20.943 3.621 21.486C3.648 21.502 3.678 21.518 3.706 21.529L4.143 21.192 4.597 21.6 4.312 22.067C4.326 22.083 4.336 22.099 4.347 22.121 4.356 22.126 4.361 22.137 4.366 22.148L4.916 22.072 5.103 22.653 4.625 22.913C4.628 22.946 4.63 22.973 4.63 23.006L5.142 23.218 5.017 23.814 4.47 23.798C4.456 23.831 4.443 23.858 4.426 23.885L4.764 24.325 4.356 24.776 3.89 24.493C3.871 24.504 3.855 24.515 3.839 24.526 3.827 24.531 3.82 24.537 3.811 24.548L3.885 25.09 3.303 25.28 3.041 24.802C3.009 24.808 2.979 24.808 2.946 24.808M3.444 23.923C3.224 24.07 2.952 24.124 2.674 24.07 2.397 24.01 2.171 23.842 2.027 23.624 1.885 23.408 1.825 23.136 1.885 22.859 1.942 22.582 2.108 22.354 2.329 22.213 2.546 22.072 2.821 22.012 3.099 22.072 3.373 22.126 3.602 22.295 3.743 22.512 3.888 22.729 3.945 23.006 3.888 23.277 3.827 23.554 3.664 23.782 3.444 23.923M12.813 30.334 12.435 31.246 11.363 31.023 11.388 30.046C11.336 30.019 11.287 29.997 11.235 29.965L10.449 30.573 9.633 29.846 10.147 29.01C10.126 28.977 10.104 28.945 10.085 28.912 10.074 28.901 10.063 28.885 10.052 28.868L9.068 28.999 8.727 27.956 9.59 27.489C9.584 27.435 9.581 27.375 9.579 27.321L8.659 26.941 8.888 25.872 9.867 25.899C9.892 25.85 9.916 25.796 9.943 25.747L9.337 24.96 10.068 24.151 10.906 24.662C10.936 24.64 10.966 24.618 10.999 24.596 11.015 24.585 11.031 24.574 11.048 24.564L10.917 23.581 11.956 23.245 12.424 24.102C12.481 24.097 12.539 24.097 12.596 24.091L12.974 23.18 14.046 23.402 14.021 24.379C14.073 24.406 14.125 24.428 14.174 24.455L14.96 23.853 15.776 24.585 15.265 25.416C15.284 25.449 15.305 25.481 15.327 25.508 15.338 25.524 15.349 25.541 15.357 25.557L16.342 25.427 16.682 26.469 15.822 26.936C15.828 26.99 15.83 27.045 15.83 27.104L16.75 27.484 16.521 28.554 15.545 28.527C15.52 28.575 15.493 28.629 15.466 28.678L16.072 29.466 15.34 30.274 14.505 29.764C14.473 29.786 14.443 29.807 14.41 29.829 14.394 29.84 14.378 29.851 14.361 29.856L14.495 30.845 13.453 31.181 12.985 30.323C12.927 30.329 12.871 30.329 12.813 30.334M13.706 28.749C13.311 29.004 12.821 29.107 12.326 29.004 11.829 28.901 11.423 28.602 11.167 28.211 10.912 27.821 10.806 27.327 10.909 26.833 11.015 26.339 11.312 25.932 11.703 25.677 12.098 25.421 12.588 25.318 13.085 25.421 13.581 25.524 13.986 25.823 14.242 26.214 14.498 26.605 14.603 27.099 14.5 27.593 14.394 28.087 14.1 28.488 13.706 28.749M12.707 41.381 12.329 42.298 11.257 42.07 11.282 41.093C11.23 41.071 11.179 41.044 11.13 41.017L10.344 41.62 9.527 40.892 10.041 40.056C10.02 40.024 9.997 39.996 9.976 39.964 9.965 39.948 9.957 39.931 9.946 39.915L8.961 40.045 8.621 39.009 9.484 38.542C9.478 38.482 9.472 38.428 9.472 38.368L8.553 37.994 8.782 36.924 9.761 36.946C9.786 36.897 9.81 36.848 9.837 36.794L9.231 36.012 9.962 35.198 10.8 35.708C10.83 35.687 10.86 35.665 10.893 35.643 10.909 35.632 10.925 35.627 10.942 35.616L10.811 34.633 11.851 34.292 12.318 35.155C12.375 35.149 12.433 35.144 12.489 35.144L12.868 34.227 13.94 34.454 13.915 35.432C13.966 35.453 14.018 35.48 14.067 35.507L14.854 34.9 15.67 35.632 15.156 36.468C15.177 36.496 15.199 36.528 15.221 36.561 15.232 36.577 15.24 36.593 15.251 36.609L16.236 36.479 16.576 37.516 15.716 37.982C15.719 38.037 15.724 38.097 15.724 38.151L16.644 38.531 16.415 39.601 15.436 39.573C15.414 39.627 15.387 39.676 15.359 39.725L15.966 40.512 15.235 41.326 14.399 40.811C14.367 40.832 14.337 40.854 14.304 40.876 14.288 40.887 14.271 40.898 14.255 40.909L14.388 41.891 13.347 42.228 12.878 41.37C12.821 41.375 12.764 41.381 12.707 41.381M13.599 39.796C13.205 40.051 12.715 40.159 12.218 40.051 11.722 39.948 11.317 39.649 11.062 39.258 10.806 38.868 10.699 38.379 10.803 37.88 10.909 37.386 11.205 36.984 11.597 36.729 11.992 36.474 12.481 36.365 12.979 36.468 13.475 36.577 13.88 36.87 14.135 37.261 14.391 37.657 14.498 38.145 14.394 38.64 14.288 39.134 13.991 39.541 13.599 39.796M3.368 37.901 2.723 39.464 .895 39.079 .939 37.413C.851 37.369 .764 37.326 .677 37.283L-.664 38.314-2.054 37.065-1.181 35.643C-1.216 35.595-1.251 35.54-1.287 35.486-1.306 35.458-1.322 35.432-1.341 35.404L-3.02 35.627-3.599 33.852-2.13 33.059C-2.141 32.961-2.146 32.863-2.149 32.766L-3.713 32.125-3.327 30.302-1.657 30.345C-1.616 30.258-1.572 30.171-1.526 30.084L-2.56 28.743-1.311 27.359 .114 28.228C.166 28.195 .221 28.157 .275 28.119 .302 28.103 .329 28.087 .357 28.07L.133 26.393 1.91 25.818 2.707 27.283C2.802 27.273 2.9 27.267 2.998 27.262L3.642 25.698 5.471 26.089 5.427 27.75C5.517 27.793 5.604 27.837 5.691 27.881L7.032 26.854 8.42 28.097 7.547 29.52C7.584 29.574 7.62 29.628 7.655 29.683 7.672 29.71 7.691 29.737 7.707 29.764L9.389 29.542 9.965 31.311 8.499 32.109C8.507 32.201 8.512 32.299 8.515 32.397L10.082 33.043 9.695 34.867 8.025 34.823C7.984 34.91 7.941 34.997 7.895 35.084L8.926 36.419 7.68 37.809 6.252 36.935C6.2 36.973 6.148 37.011 6.094 37.044 6.067 37.06 6.037 37.081 6.009 37.098L6.233 38.77 4.459 39.351 3.662 37.885C3.564 37.896 3.466 37.901 3.368 37.901M4.891 35.198C4.219 35.632 3.381 35.817 2.536 35.638 1.689 35.458 .998 34.953 .56 34.286 .125 33.613-.057 32.782 .122 31.936 .302 31.094 .805 30.399 1.477 29.965 2.149 29.53 2.987 29.351 3.83 29.53 4.677 29.71 5.37 30.209 5.805 30.882 6.243 31.55 6.423 32.386 6.243 33.228 6.067 34.074 5.561 34.763 4.891 35.198" fill="#7f7f7f" fill-rule="evenodd"/>
</g>
<g clip-path="url(#clip_12)">
<path transform="matrix(1,0,0,-1,3.677,179.74039)" stroke-width="1.5" stroke-linecap="butt" stroke-dasharray="32767,32767" stroke-miterlimit="8" stroke-linejoin="miter" fill="none" stroke="#767171" d="M0 0C0 33.26 26.962 60.221 60.221 60.221H843.499C876.758 60.221 903.72 33.26 903.72 0V-240.877C903.72-274.136 876.758-301.099 843.499-301.099H60.221C26.962-301.099 0-274.136 0-240.877V0Z"/>
</g>
<text xml:space="preserve" transform="matrix(1 0 -0 1 0 485)" font-size="15.96" font-family="TimesNewRomanPS" font-weight="bold"><tspan y="-330.9033" x="33.9917 45.51482 53.5427 62.416463 67.69922 74.78546 82.81334 88.11206 93.39482 101.4227 113.16926 121.197139 128.04398">Context-aware</tspan><tspan y="-311.68745" x="33.99169 46.36069 55.23445 60.517213 64.954097 78.04129 82.58989 89.67613 97.70401 103.09849 107.53537 115.56325">Optimization</tspan><tspan y="-261.38154" x="33.91189 49.02601 57.89977 64.12417">Muse</tspan></text>
<g clip-path="url(#clip_13)">
<path transform="matrix(1,0,0,-1,0,485)" stroke-width="1" stroke-linecap="butt" stroke-miterlimit="8" stroke-linejoin="miter" fill="none" stroke="#000000" d="M220.517 339.261H456.557V311.78099H220.517Z"/>
</g>
<text xml:space="preserve" transform="matrix(1 0 -0 1 0 485)" font-size="18" font-family="TimesNewRomanPSMT"><tspan y="-318.8779" x="240.9634 251.99739 260.99739 269.0254 273.4714 287.4034 295.4314 304.4314 312.4594 321.4594 329.48744 335.4814">The manager </tspan></text>
<text xml:space="preserve" transform="matrix(1 0 -0 1 0 485)" font-size="18" font-family="TimesNewRomanPS" font-weight="bold" font-style="italic"><tspan y="-318.8779" x="339.9814 345.02143 351.98744 356.43345 365.43345 369.98744 378.01545 387.01545 401.05546 410.05546 415.09547 423.12348 428.16349">is a complete</tspan></text>
<g clip-path="url(#clip_14)">
<path transform="matrix(1,0,0,-1,0,485)" stroke-width="1" stroke-linecap="butt" stroke-miterlimit="8" stroke-linejoin="miter" fill="none" stroke="#000000" d="M647.036 339.903H883.076V312.423H647.036Z"/>
</g>
<text xml:space="preserve" transform="matrix(1 0 -0 1 0 485)" font-size="18" font-family="TimesNewRomanPSMT"><tspan y="-319.5674" x="676.5908 687.6248 696.6248 704.65286 709.0988 723.0308 731.05886 740.05886 748.08688 757.08688 765.11489 771.1089">The manager </tspan></text>
<text xml:space="preserve" transform="matrix(1 0 -0 1 0 485)" font-size="18" font-family="TimesNewRomanPS" font-weight="bold" font-style="italic"><tspan y="-319.5674" x="775.6089 789.64889 794.68887 803.68887 813.6608 818.7008 823.1468 832.1468 840.1748 844.6208">might be a</tspan></text>
<g clip-path="url(#clip_15)">
<path transform="matrix(1,0,0,-1,765.2385,173.81812)" stroke-width="2.25" stroke-linecap="butt" stroke-miterlimit="8" stroke-linejoin="miter" fill="none" stroke="#ff5b5b" d="M0 0V-19.335H-425.968V-33.923"/>
<path transform="matrix(1,0,0,-1,342.6458,206.38971)" d="M0 0-3.375-8.11-6.75 0Z" fill="#ff5b5b" fill-rule="evenodd"/>
<path transform="matrix(1,0,0,-1,630.8566,226.4595)" d="M0 0H6.021C7.104 0 7.993-.084 8.69-.253 9.386-.421 9.959-.68 10.41-1.031 10.86-1.381 11.197-1.825 11.42-2.362 11.643-2.899 11.755-3.522 11.755-4.232 11.755-5.597 11.432-6.781 10.785-7.782 10.139-8.783 9.263-9.52 8.157-9.994 7.051-10.467 5.725-10.703 4.178-10.703 3.249-10.703 2.476-10.685 1.857-10.649L.983-14.663C.901-15.036 .844-15.322 .812-15.523 .78-15.723 .753-15.939 .73-16.171 .708-16.403 .696-16.61 .696-16.792 .696-17.075 .742-17.295 .833-17.455 .924-17.614 1.06-17.73 1.242-17.803 1.424-17.875 1.738-17.93 2.184-17.966L2.034-18.635H-3.577L-3.427-17.966C-3.081-17.912-2.821-17.823-2.649-17.7-2.476-17.577-2.33-17.407-2.212-17.188-2.093-16.97-1.984-16.704-1.884-16.39-1.784-16.076-1.634-15.468-1.433-14.567L.887-4.055C1.088-3.145 1.188-2.426 1.188-1.898 1.188-1.452 1.083-1.142 .874-.969 .664-.796 .323-.696-.15-.669ZM5.72-1.201C5.156-1.201 4.564-1.215 3.946-1.242L2.089-9.516H3.509C4.61-9.516 5.5-9.402 6.178-9.174 6.856-8.947 7.411-8.594 7.843-8.116 8.276-7.639 8.61-7.072 8.847-6.417 9.083-5.761 9.202-5.042 9.202-4.26 9.202-3.204 8.933-2.43 8.396-1.939 7.859-1.447 6.967-1.201 5.72-1.201" fill-rule="evenodd"/>
<path transform="matrix(1,0,0,-1,645.3936,240.6849)" d="M0 0C.598 0 1.121-.096 1.569-.289 2.017-.481 2.391-.742 2.689-1.071 2.988-1.4 3.212-1.786 3.362-2.231 3.511-2.676 3.586-3.151 3.586-3.656 3.586-4.665 3.437-5.58 3.138-6.4 2.839-7.22 2.426-7.924 1.898-8.512 1.37-9.099 .749-9.553 .035-9.871-.679-10.19-1.454-10.349-2.291-10.349-2.842-10.349-3.337-10.266-3.775-10.1-4.213-9.934-4.585-9.695-4.891-9.383-5.196-9.071-5.43-8.694-5.593-8.253-5.756-7.811-5.837-7.311-5.837-6.754-5.837-5.811-5.689-4.929-5.394-4.109-5.098-3.289-4.69-2.575-4.169-1.967-3.647-1.36-3.031-.88-2.321-.528-1.61-.176-.837 0 0 0M-.189-.986C-.561-.986-.91-1.069-1.235-1.235-1.561-1.401-1.859-1.63-2.132-1.922-2.404-2.215-2.648-2.56-2.864-2.958-3.08-3.357-3.262-3.785-3.412-4.243-3.561-4.702-3.676-5.18-3.755-5.678-3.835-6.176-3.875-6.674-3.875-7.172-3.875-7.936-3.717-8.498-3.402-8.86-3.086-9.222-2.606-9.403-1.962-9.403-1.604-9.403-1.265-9.315-.946-9.139-.628-8.963-.335-8.726-.07-8.427 .196-8.128 .433-7.778 .643-7.376 .852-6.974 1.029-6.544 1.175-6.086 1.322-5.628 1.433-5.155 1.509-4.667 1.585-4.179 1.624-3.702 1.624-3.237 1.624-2.5 1.478-1.941 1.185-1.559 .893-1.177 .435-.986-.189-.986" fill-rule="evenodd"/>
<path transform="matrix(1,0,0,-1,632.4482,272.5427)" d="M0 0H6.021C7.104 0 7.993-.084 8.69-.253 9.386-.421 9.959-.68 10.41-1.031 10.86-1.381 11.197-1.825 11.42-2.362 11.643-2.899 11.755-3.522 11.755-4.232 11.755-5.597 11.432-6.781 10.785-7.782 10.139-8.783 9.263-9.52 8.157-9.993 7.051-10.467 5.725-10.703 4.178-10.703 3.249-10.703 2.476-10.685 1.857-10.649L.983-14.663C.901-15.036 .844-15.322 .812-15.523 .78-15.723 .753-15.939 .73-16.171 .708-16.403 .696-16.61 .696-16.792 .696-17.075 .742-17.295 .833-17.454 .924-17.614 1.06-17.73 1.242-17.803 1.424-17.875 1.738-17.93 2.184-17.966L2.034-18.635H-3.577L-3.427-17.966C-3.081-17.912-2.821-17.823-2.649-17.7-2.476-17.577-2.33-17.407-2.212-17.188-2.093-16.97-1.984-16.704-1.884-16.39-1.784-16.076-1.634-15.468-1.433-14.567L.887-4.055C1.088-3.145 1.188-2.426 1.188-1.898 1.188-1.452 1.083-1.142 .874-.969 .664-.796 .323-.696-.15-.669ZM5.72-1.201C5.156-1.201 4.564-1.215 3.946-1.242L2.089-9.516H3.509C4.61-9.516 5.5-9.402 6.178-9.174 6.856-8.947 7.411-8.594 7.843-8.116 8.276-7.638 8.61-7.072 8.847-6.417 9.083-5.761 9.202-5.042 9.202-4.26 9.202-3.204 8.933-2.43 8.396-1.939 7.859-1.447 6.967-1.201 5.72-1.201" fill-rule="evenodd"/>
<path transform="matrix(1,0,0,-1,643.5287,286.768)" d="M0 0C.485 0 .862-.161 1.131-.483 1.399-.805 1.534-1.229 1.534-1.753 1.534-1.906 1.522-2.052 1.499-2.191 1.476-2.331 1.434-2.47 1.375-2.61L1.514-2.679C2.165-1.77 2.804-1.096 3.432-.657 4.059-.219 4.718 0 5.409 0 6.199 0 6.805-.286 7.227-.857 7.648-1.428 7.859-2.261 7.859-3.357 7.859-4.313 7.711-5.215 7.416-6.061 7.12-6.908 6.72-7.65 6.216-8.287 5.711-8.925 5.125-9.428 4.458-9.797 3.79-10.165 3.085-10.349 2.341-10.349 1.823-10.349 1.373-10.298 .991-10.195 .609-10.092 .292-9.968 .04-9.821-.02-10.08-.085-10.349-.154-10.628-.224-10.907-.291-11.176-.354-11.435-.417-11.694-.468-11.933-.508-12.152-.548-12.371-.568-12.547-.568-12.68-.568-12.8-.549-12.899-.513-12.979-.477-13.059-.41-13.125-.314-13.178-.217-13.231-.09-13.273 .07-13.303 .229-13.333 .428-13.358 .667-13.378L.638-14.035H-2.869L-.438-3.656C-.359-3.29-.302-2.985-.269-2.739-.236-2.494-.219-2.274-.219-2.082-.219-1.597-.415-1.355-.807-1.355-.926-1.355-1.046-1.38-1.165-1.429-1.285-1.479-1.413-1.554-1.549-1.654-1.685-1.753-1.834-1.879-1.997-2.032-2.16-2.185-2.341-2.364-2.54-2.57L-3.227-1.922C-2.895-1.59-2.591-1.303-2.316-1.061-2.04-.818-1.775-.619-1.519-.463-1.263-.307-1.014-.191-.772-.115-.53-.038-.272 0 0 0M4.622-1.335C4.217-1.335 3.843-1.456 3.501-1.698 3.159-1.941 2.792-2.288 2.401-2.739 2.221-2.952 2.055-3.161 1.903-3.367 1.75-3.573 1.612-3.797 1.489-4.039 1.366-4.282 1.257-4.55 1.16-4.846 1.064-5.141 .979-5.482 .906-5.867 .813-6.325 .74-6.71 .687-7.022 .634-7.335 .608-7.63 .608-7.909 .608-8.447 .732-8.827 .981-9.049 1.23-9.272 1.63-9.383 2.181-9.383 2.567-9.383 2.927-9.299 3.262-9.129 3.598-8.96 3.901-8.729 4.174-8.437 4.446-8.145 4.688-7.804 4.901-7.416 5.113-7.027 5.291-6.612 5.434-6.171 5.576-5.729 5.686-5.276 5.762-4.811 5.839-4.346 5.877-3.895 5.877-3.456 5.877-2.746 5.779-2.215 5.583-1.863 5.387-1.511 5.067-1.335 4.622-1.335" fill-rule="evenodd"/>
</g>
<text xml:space="preserve" transform="matrix(1 0 -0 1 0 485)" font-size="18" font-family="TimesNewRomanPSMT"><tspan y="-268.9551" x="692.5952 704.6012 713.6012 722.6012 727.64126 733.63528 742.63528">Control</tspan><tspan y="-247.84111" x="677.7092 685.73727 694.73727 702.76528 707.80526 716.80526 723.77127 728.8112">against </tspan></text>
<g clip-path="url(#clip_16)">
<path transform="matrix(1,0,0,-1,735.9233,228.62091)" d="M0 0C.363 0 .652-.12 .866-.36 1.08-.601 1.187-.92 1.187-1.318 1.187-1.646 1.119-1.992 .984-2.355L1.09-2.391C2.174-.803 3.252-.009 4.324-.009 4.963-.009 5.459-.252 5.814-.738 6.168-1.225 6.346-1.91 6.346-2.795 6.346-3.762 6.151-4.712 5.761-5.647 5.372-6.582 4.831-7.323 4.14-7.871 3.448-8.418 2.675-8.692 1.819-8.692 1.04-8.692 .393-8.522-.123-8.183L-.527-10.107C-.615-10.523-.659-10.866-.659-11.136-.659-11.394-.593-11.577-.461-11.685-.33-11.793-.073-11.865 .308-11.9L.237-12.331H-2.479L-.36-3.006C-.237-2.467-.176-2.024-.176-1.679-.176-1.444-.214-1.274-.29-1.169-.366-1.063-.486-1.011-.65-1.011-.832-1.011-1.024-1.085-1.226-1.235-1.428-1.384-1.705-1.655-2.057-2.048L-2.558-1.556C-2.03-1.005-1.583-.608-1.217-.365-.851-.122-.445 0 0 0M3.7-1.037C3.401-1.037 3.107-1.138 2.817-1.34 2.527-1.542 2.209-1.866 1.863-2.312 1.518-2.757 1.248-3.196 1.055-3.63 .861-4.063 .709-4.562 .598-5.124L.527-5.493C.469-5.804 .432-6.041 .417-6.205 .403-6.369 .396-6.53 .396-6.688 .396-7.146 .494-7.478 .69-7.686 .886-7.894 1.225-7.998 1.705-7.998 2.004-7.998 2.279-7.939 2.531-7.822 2.783-7.705 3.022-7.535 3.248-7.312 3.473-7.09 3.677-6.82 3.858-6.504 4.04-6.187 4.203-5.82 4.346-5.401 4.49-4.982 4.598-4.551 4.671-4.109 4.745-3.667 4.781-3.252 4.781-2.865 4.781-2.25 4.695-1.792 4.522-1.49 4.349-1.188 4.075-1.037 3.7-1.037" fill="#ff0000" fill-rule="evenodd"/>
<path transform="matrix(1,0,0,-1,746.6254,232.5911)" d="M0 0H.393C.385-.236 .378-.448 .374-.635 .37-.822 .366-1.003 .364-1.18 .362-1.356 .361-1.53 .361-1.702V-6.6C.361-6.733 .365-6.848 .374-6.945 .382-7.042 .396-7.123 .416-7.19 .435-7.256 .461-7.313 .493-7.361 .525-7.408 .563-7.449 .606-7.483 .657-7.535 .726-7.574 .812-7.602 .898-7.63 1.008-7.654 1.141-7.673 1.274-7.693 1.434-7.708 1.621-7.718 1.808-7.729 2.032-7.737 2.294-7.741V-8.302H-2.817V-7.741C-2.563-7.732-2.348-7.723-2.172-7.712-1.996-7.701-1.846-7.686-1.721-7.667-1.596-7.647-1.496-7.626-1.421-7.602-1.346-7.579-1.281-7.55-1.225-7.515-1.164-7.477-1.113-7.435-1.07-7.39-1.027-7.344-.993-7.288-.967-7.219-.941-7.15-.921-7.066-.906-6.967-.891-6.869-.883-6.746-.883-6.6V-1.979C-.883-1.811-.915-1.693-.98-1.624-1.044-1.555-1.137-1.521-1.257-1.521-1.39-1.521-1.588-1.59-1.85-1.727-2.112-1.865-2.451-2.069-2.868-2.34-2.924-2.241-2.976-2.142-3.023-2.043-3.07-1.944-3.12-1.843-3.171-1.74-2.638-1.448-2.111-1.157-1.589-.867-1.067-.577-.537-.288 0 0" fill="#ff0000" fill-rule="evenodd"/>
<path transform="matrix(1,0,0,-1,0,485)" d="M750.93 249.927H752.219V248.419H750.93ZM750.93 245.603H752.219V244.108H750.93Z" fill="#ff0000" fill-rule="evenodd"/>
<path transform="matrix(1,0,0,-1,756.7952,232.0948)" d="M0 0H.464L-.67-5.014H-.49C-.327-5.014-.15-4.98 .039-4.911 .228-4.843 .416-4.753 .603-4.644 .79-4.534 .969-4.411 1.141-4.273 1.313-4.136 1.464-3.997 1.595-3.858 1.726-3.718 1.83-3.586 1.908-3.461 1.985-3.337 2.024-3.231 2.024-3.145 2.024-3.042 1.989-2.958 1.921-2.894 1.852-2.829 1.727-2.787 1.547-2.765L1.624-2.353H3.945L4.106-2.752C3.835-2.984 3.575-3.199 3.326-3.397 3.077-3.594 2.833-3.784 2.594-3.967 2.356-4.15 2.117-4.329 1.879-4.505 1.64-4.681 1.396-4.864 1.147-5.053 1.25-5.38 1.356-5.712 1.463-6.049 1.57-6.386 1.678-6.72 1.785-7.051 1.837-7.227 1.885-7.379 1.93-7.506 1.975-7.632 2.024-7.735 2.075-7.815 2.127-7.894 2.183-7.954 2.243-7.992 2.303-8.031 2.376-8.05 2.462-8.05 2.522-8.05 2.585-8.039 2.649-8.018 2.713-7.996 2.785-7.958 2.865-7.902 2.944-7.846 3.035-7.77 3.136-7.673 3.237-7.576 3.352-7.455 3.48-7.309L3.919-7.728C3.717-7.934 3.529-8.112 3.355-8.263 3.181-8.413 3.015-8.537 2.858-8.633 2.702-8.73 2.55-8.801 2.404-8.846 2.258-8.891 2.11-8.914 1.959-8.914 1.689-8.914 1.471-8.846 1.305-8.711 1.14-8.576 .999-8.382 .883-8.131 .767-7.879 .661-7.575 .564-7.219 .467-6.862 .354-6.465 .226-6.026 .195-5.923 .167-5.841 .139-5.778 .111-5.716 .075-5.669 .032-5.636-.011-5.604-.064-5.584-.129-5.575-.193-5.567-.275-5.562-.374-5.562H-.786L-1.495-8.798H-2.733L-1.173-1.876C-1.122-1.648-1.085-1.468-1.063-1.337-1.042-1.206-1.031-1.089-1.031-.986-1.031-.904-1.045-.834-1.073-.773-1.101-.713-1.147-.665-1.212-.628-1.276-.592-1.362-.565-1.47-.548-1.577-.531-1.71-.52-1.869-.516L-1.772-.077Z" fill="#ff0000" fill-rule="evenodd"/>
</g>
<text xml:space="preserve" transform="matrix(1 0 -0 1 0 485)" font-size="18" font-family="TimesNewRomanPS" font-weight="bold"><tspan y="-218.4395" x="822.0049 831.97689 840.0049 853.19888 863.17086 868.2108">newbie</tspan></text>
<text xml:space="preserve" transform="matrix(1 0 -0 1 0 485)" font-size="15.96" font-family="TimesNewRomanPS" font-weight="bold"><tspan y="-135.4414" x="33.4351 42.30886 50.33674 63.42394 72.2977 76.73458 81.17146 90.04523">Sampling</tspan><tspan y="-116.24153" x="33.435098 48.549219 55.63546 60.918218 69.79198 77.819858 86.69362">Methods</tspan></text>
<g clip-path="url(#clip_17)">
<path transform="matrix(1,0,0,-1,0,485)" stroke-width="1" stroke-linecap="butt" stroke-miterlimit="8" stroke-linejoin="miter" fill="none" stroke="#000000" d="M220.91 270.407H457.07V242.92702H220.91Z"/>
</g>
<text xml:space="preserve" transform="matrix(1 0 -0 1 0 485)" font-size="18" font-family="TimesNewRomanPSMT"><tspan y="-250.0771" x="251.4512 262.4852 271.4852 279.51319 283.9592 297.8912 305.9192 314.9192 322.9472 331.9472 339.97523 345.9692 350.41523 364.34724 369.38725 378.38725 387.38725 392.42726 396.98124 405.98124 414.00923 418.45524">The manager might be a</tspan></text>
<g clip-path="url(#clip_18)">
<path transform="matrix(1,0,0,-1,0,485)" stroke-width="1" stroke-linecap="butt" stroke-miterlimit="8" stroke-linejoin="miter" fill="none" stroke="#000000" d="M220.31 209.447H456.34999V181.96701H220.31Z"/>
</g>
<text xml:space="preserve" transform="matrix(1 0 -0 1 0 485)" font-size="18" font-family="TimesNewRomanPSMT"><tspan y="-189.1006" x="250.8027 261.8367 270.8367 278.8647 283.3107 297.2427 305.2707 314.2707 322.2987 331.2987 339.32673 345.3207 349.76673 363.69874 368.73875 377.73875 386.73875 391.77876 396.33274 405.33274 413.36073 417.80674">The manager might be a</tspan></text>
<g clip-path="url(#clip_19)">
<path transform="matrix(1,0,0,-1,0,485)" stroke-width="1" stroke-linecap="butt" stroke-miterlimit="8" stroke-linejoin="miter" fill="none" stroke="#ff5b5b" d="M66.47 208.967H192.23001V181.487H66.47Z"/>
</g>
<text fill="#ff5b5b" xml:space="preserve" transform="matrix(1 0 -0 1 0 485)" font-size="18" font-family="TimesNewRomanPS" font-weight="bold"><tspan y="-188.6709" x="75.2402 81.2342 85.6802 91.6742 100.6742 109.6742 114.7142 122.7422 127.1882 137.1602 144.8462 152.8742 158.86821 163.9082 172.9082 177.3542">[ toxic prefix ]</tspan></text>
<g clip-path="url(#clip_20)">
<path transform="matrix(1,0,0,-1,490.7296,221.4932)" d="M0 0C0 10.206 8.274 18.48 18.48 18.48H98.88C109.086 18.48 117.36 10.206 117.36 0V-73.919C117.36-84.126 109.086-92.4 98.88-92.4H18.48C8.274-92.4 0-84.126 0-73.919Z" fill="#afabab" fill-rule="evenodd"/>
<path transform="matrix(1,0,0,-1,490.7296,221.4932)" stroke-width="2.25" stroke-linecap="butt" stroke-miterlimit="8" stroke-linejoin="miter" fill="none" stroke="#7c7c7c" d="M0 0C0 10.206 8.274 18.48 18.48 18.48H98.88C109.086 18.48 117.36 10.206 117.36 0V-73.919C117.36-84.126 109.086-92.4 98.88-92.4H18.48C8.274-92.4 0-84.126 0-73.919V0Z"/>
</g>
<text fill="#ffffff" xml:space="preserve" transform="matrix(1 0 -0 1 0 485)" font-size="18" font-family="TimesNewRomanPS" font-weight="bold"><tspan y="-230.8584" x="511.2949 523.3009 532.3009 542.2729 551.2729 561.2449 570.2449 579.2449">Language</tspan><tspan y="-209.25839" x="524.7229 541.7509 550.7509 560.7229 568.7509">Model</tspan></text>
<g clip-path="url(#clip_21)">
<path transform="matrix(1,0,0,-1,457.4896,228.45291)" stroke-width="2.25" stroke-linecap="butt" stroke-miterlimit="8" stroke-linejoin="miter" fill="none" stroke="#bfbfbf" d="M0 0H27.975"/>
<path transform="matrix(1,0,0,-1,484.3399,225.0776)" d="M0 0 6.75-3.375 0-6.75Z" fill="#bfbfbf" fill-rule="evenodd"/>
<path transform="matrix(1,0,0,-1,457.4096,289.1728)" stroke-width="2.25" stroke-linecap="butt" stroke-miterlimit="8" stroke-linejoin="miter" fill="none" stroke="#bfbfbf" d="M0 0H27.975"/>
<path transform="matrix(1,0,0,-1,483.2599,285.7976)" d="M0 0 6.75-3.375 0-6.75Z" fill="#bfbfbf" fill-rule="evenodd"/>
<path transform="matrix(1,0,0,-1,192.2896,289.7728)" stroke-width="2.25" stroke-linecap="butt" stroke-miterlimit="8" stroke-linejoin="miter" fill="none" stroke="#bfbfbf" d="M0 0H27.374"/>
<path transform="matrix(1,0,0,-1,609.1696,236.7329)" stroke-width="2.25" stroke-linecap="butt" stroke-miterlimit="8" stroke-linejoin="miter" fill="none" stroke="#bfbfbf" d="M0 0H10.543"/>
<path transform="matrix(1,0,0,-1,618.5878,233.3577)" d="M0 0 6.75-3.375 0-6.75Z" fill="#bfbfbf" fill-rule="evenodd"/>
<path transform="matrix(1,0,0,-1,609.8896,289.2081)" stroke-width="2.25" stroke-linecap="butt" stroke-miterlimit="8" stroke-linejoin="miter" fill="none" stroke="#bfbfbf" d="M0 0 10.63 .102"/>
<path transform="matrix(1,0,0,-1,619.4266,292.4924)" d="M0 0 6.717 3.44-.065 6.75Z" fill="#bfbfbf" fill-rule="evenodd"/>
<path transform="matrix(1,0,0,-1,653.8096,236.7329)" stroke-width="2.25" stroke-linecap="butt" stroke-miterlimit="8" stroke-linejoin="miter" fill="none" stroke="#bfbfbf" d="M0 0H15.656V-22.391H25.687"/>
<path transform="matrix(1,0,0,-1,678.3723,255.7486)" d="M0 0 6.75-3.375 0-6.75Z" fill="#bfbfbf" fill-rule="evenodd"/>
<path transform="matrix(1,0,0,-1,655.0096,287.8374)" stroke-width="2.25" stroke-linecap="butt" stroke-miterlimit="8" stroke-linejoin="miter" fill="none" stroke="#bfbfbf" d="M0 0H14.536V28.785H24.32"/>
<path transform="matrix(1,0,0,-1,678.2047,262.4281)" d="M0 0 6.75 3.375 0 6.75Z" fill="#bfbfbf" fill-rule="evenodd"/>
</g>
<text xml:space="preserve" transform="matrix(1 0 -0 1 0 485)" font-size="18" font-family="CambriaMath"><tspan y="-219.9834" x="689.2168">&#x2297;</tspan></text>
<g clip-path="url(#clip_22)">
<path transform="matrix(1,0,0,-1,708.8896,260.6129)" stroke-width="2.25" stroke-linecap="butt" stroke-miterlimit="8" stroke-linejoin="miter" fill="none" stroke="#bfbfbf" d="M0 0H27.975"/>
<path transform="matrix(1,0,0,-1,735.74,257.2377)" d="M0 0 6.75-3.375 0-6.75Z" fill="#bfbfbf" fill-rule="evenodd"/>
<path transform="matrix(1,0,0,-1,783.7697,262.0528)" stroke-width="2.25" stroke-linecap="butt" stroke-miterlimit="8" stroke-linejoin="miter" fill="none" stroke="#bfbfbf" d="M0 0H27.975"/>
<path transform="matrix(1,0,0,-1,810.62,258.6776)" d="M0 0 6.75-3.375 0-6.75Z" fill="#bfbfbf" fill-rule="evenodd"/>
<path transform="matrix(1,0,0,-1,488.8696,141.49301)" d="M0 0C0 4.429 3.591 8.02 8.02 8.02H111.14C115.569 8.02 119.16 4.429 119.16 0V-32.08C119.16-36.509 115.569-40.1 111.14-40.1H8.02C3.591-40.1 0-36.509 0-32.08Z" fill="#4e79a7" fill-rule="evenodd"/>
<path transform="matrix(1,0,0,-1,488.8696,141.49301)" stroke-width="1" stroke-linecap="butt" stroke-miterlimit="8" stroke-linejoin="miter" fill="none" stroke="#172c51" d="M0 0C0 4.429 3.591 8.02 8.02 8.02H111.14C115.569 8.02 119.16 4.429 119.16 0V-32.08C119.16-36.509 115.569-40.1 111.14-40.1H8.02C3.591-40.1 0-36.509 0-32.08V0Z"/>
</g>
<text xml:space="preserve" transform="matrix(1 0 -0 1 0 485)" font-size="18" font-family="TimesNewRomanPS" font-weight="bold"><tspan y="-320.9209" x="508.4043 521.3643 530.3643 535.4043 540.4443 550.39828 556.4103 570.45028 578.4783">Calib-Gen</tspan></text>
<g clip-path="url(#clip_23)">
<path transform="matrix(1,0,0,-1,457.1296,158.5)" stroke-width="2.25" stroke-linecap="butt" stroke-miterlimit="8" stroke-linejoin="miter" fill="none" stroke="#bfbfbf" d="M0 0H30.593"/>
<path transform="matrix(1,0,0,-1,483.5981,154.8776)" d="M0 0 6.75-3.375 0-6.75Z" fill="#bfbfbf" fill-rule="evenodd"/>
<path transform="matrix(1,0,0,-1,608.6896,158.2528)" stroke-width="2.25" stroke-linecap="butt" stroke-miterlimit="8" stroke-linejoin="miter" fill="none" stroke="#bfbfbf" d="M0 0 32.634-.37"/>
<path transform="matrix(1,0,0,-1,640.2372,155.23459)" d="M0 0 6.711-3.452-.077-6.75Z" fill="#bfbfbf" fill-rule="evenodd"/>
<path transform="matrix(1,0,0,-1,106.028,253.9487)" d="M0 0C.484 0 .869-.16 1.154-.48 1.439-.801 1.582-1.227 1.582-1.758 1.582-2.195 1.492-2.656 1.312-3.141L1.453-3.188C2.898-1.07 4.336-.012 5.766-.012 6.617-.012 7.279-.336 7.752-.984 8.225-1.633 8.461-2.547 8.461-3.727 8.461-5.016 8.201-6.283 7.682-7.529 7.162-8.775 6.441-9.764 5.52-10.494 4.598-11.225 3.566-11.59 2.426-11.59 1.387-11.59 .523-11.363-.164-10.91L-.703-13.477C-.82-14.031-.879-14.488-.879-14.848-.879-15.191-.791-15.436-.615-15.58-.439-15.725-.098-15.82 .41-15.867L.316-16.441H-3.305L-.48-4.008C-.316-3.289-.234-2.699-.234-2.238-.234-1.926-.285-1.699-.387-1.559-.488-1.418-.648-1.348-.867-1.348-1.109-1.348-1.365-1.447-1.635-1.646-1.904-1.846-2.273-2.207-2.742-2.73L-3.41-2.074C-2.707-1.34-2.111-.811-1.623-.486-1.135-.162-.594 0 0 0M4.934-1.383C4.535-1.383 4.143-1.518 3.756-1.787 3.369-2.057 2.945-2.488 2.484-3.082 2.023-3.676 1.664-4.262 1.406-4.84 1.148-5.418 .945-6.082 .797-6.832L.703-7.324C.625-7.738 .576-8.055 .557-8.273 .537-8.492 .527-8.707 .527-8.918 .527-9.527 .658-9.971 .92-10.248 1.182-10.525 1.633-10.664 2.273-10.664 2.672-10.664 3.039-10.586 3.375-10.43 3.711-10.273 4.029-10.047 4.33-9.75 4.631-9.453 4.902-9.094 5.145-8.672 5.387-8.25 5.604-7.76 5.795-7.201 5.986-6.643 6.131-6.068 6.229-5.479 6.326-4.889 6.375-4.336 6.375-3.82 6.375-3 6.26-2.389 6.029-1.986 5.799-1.584 5.434-1.383 4.934-1.383" fill="#ff0000" fill-rule="evenodd"/>
<path transform="matrix(1,0,0,-1,120.231,259.2525)" d="M0 0H.522C.51-.314 .502-.595 .496-.843 .49-1.091 .486-1.332 .483-1.566 .48-1.799 .479-2.03 .479-2.258V-8.76C.479-8.937 .485-9.089 .496-9.218 .508-9.346 .526-9.454 .552-9.543 .577-9.631 .612-9.707 .654-9.769 .697-9.832 .747-9.886 .804-9.932 .873-10 .964-10.053 1.078-10.09 1.192-10.127 1.337-10.159 1.514-10.184 1.691-10.21 1.903-10.23 2.152-10.244 2.4-10.259 2.698-10.268 3.045-10.274V-11.018H-3.738V-10.274C-3.402-10.263-3.117-10.25-2.883-10.236-2.649-10.221-2.449-10.201-2.284-10.176-2.119-10.15-1.986-10.122-1.886-10.09-1.786-10.059-1.7-10.02-1.625-9.975-1.546-9.923-1.477-9.868-1.42-9.808-1.363-9.748-1.317-9.672-1.283-9.581-1.249-9.49-1.222-9.379-1.202-9.248-1.182-9.116-1.172-8.954-1.172-8.76V-2.626C-1.172-2.404-1.215-2.247-1.3-2.156-1.386-2.065-1.508-2.019-1.668-2.019-1.845-2.019-2.107-2.11-2.455-2.293-2.803-2.475-3.254-2.746-3.807-3.105-3.881-2.974-3.949-2.843-4.012-2.712-4.075-2.581-4.14-2.447-4.209-2.31-3.502-1.922-2.802-1.536-2.109-1.151-1.416-.766-.713-.382 0 0" fill="#ff0000" fill-rule="evenodd"/>
<path transform="matrix(1,0,0,-1,0,485)" d="M125.991 222.454H127.701999V220.452H125.991ZM125.991 216.714H127.701999V214.729H125.991Z" fill="#ff0000" fill-rule="evenodd"/>
<path transform="matrix(1,0,0,-1,133.8362,258.5939)" d="M0 0H.616L-.89-6.656H-.65C-.433-6.656-.2-6.61 .051-6.519 .302-6.427 .552-6.309 .8-6.164 1.048-6.018 1.286-5.854 1.514-5.672 1.742-5.489 1.943-5.305 2.117-5.12 2.291-4.935 2.43-4.759 2.532-4.594 2.635-4.428 2.686-4.289 2.686-4.175 2.686-4.038 2.641-3.927 2.549-3.841 2.458-3.755 2.293-3.698 2.053-3.67L2.156-3.122H5.235L5.449-3.653C5.09-3.961 4.745-4.246 4.414-4.508 4.083-4.771 3.76-5.023 3.443-5.265 3.127-5.508 2.81-5.746 2.494-5.98 2.177-6.214 1.854-6.456 1.523-6.707 1.66-7.14 1.799-7.581 1.942-8.029 2.085-8.476 2.227-8.92 2.37-9.359 2.438-9.593 2.502-9.794 2.562-9.962 2.622-10.13 2.686-10.267 2.755-10.373 2.823-10.478 2.897-10.557 2.977-10.608 3.057-10.659 3.154-10.685 3.268-10.685 3.348-10.685 3.43-10.671 3.516-10.642 3.602-10.614 3.697-10.562 3.803-10.488 3.908-10.414 4.028-10.313 4.162-10.184 4.296-10.056 4.448-9.895 4.62-9.701L5.201-10.257C4.933-10.531 4.684-10.767 4.453-10.967 4.222-11.167 4.002-11.331 3.794-11.459 3.586-11.587 3.385-11.681 3.191-11.741 2.997-11.801 2.8-11.831 2.601-11.831 2.241-11.831 1.952-11.741 1.732-11.562 1.513-11.382 1.326-11.125 1.172-10.792 1.018-10.458 .877-10.055 .749-9.581 .62-9.108 .471-8.58 .299-7.999 .259-7.862 .221-7.752 .184-7.669 .147-7.587 .1-7.524 .043-7.481-.014-7.438-.086-7.411-.171-7.4-.257-7.388-.365-7.383-.496-7.383H-1.044L-1.985-11.677H-3.627L-1.557-2.489C-1.489-2.187-1.44-1.949-1.412-1.775-1.383-1.601-1.369-1.446-1.369-1.309-1.369-1.2-1.387-1.106-1.424-1.026-1.461-.947-1.523-.883-1.608-.834-1.694-.786-1.808-.75-1.95-.727-2.093-.704-2.27-.69-2.481-.684L-2.353-.103Z" fill="#ff0000" fill-rule="evenodd"/>
</g>
<g clip-path="url(#clip_24)">
<path transform="matrix(1,0,0,-1,747.4041,251.8538)" d="M0 0H5.168C6.098 0 6.861-.072 7.459-.217 8.057-.361 8.549-.584 8.936-.885 9.322-1.186 9.611-1.566 9.803-2.027 9.994-2.488 10.09-3.023 10.09-3.633 10.09-4.805 9.813-5.82 9.258-6.68 8.703-7.539 7.951-8.172 7.002-8.578 6.053-8.984 4.914-9.188 3.586-9.188 2.789-9.188 2.125-9.172 1.594-9.141L.844-12.586C.773-12.906 .725-13.152 .697-13.324 .67-13.496 .646-13.682 .627-13.881 .607-14.08 .598-14.258 .598-14.414 .598-14.656 .637-14.846 .715-14.982 .793-15.119 .91-15.219 1.066-15.281 1.223-15.344 1.492-15.391 1.875-15.422L1.746-15.996H-3.07L-2.941-15.422C-2.645-15.375-2.422-15.299-2.273-15.193-2.125-15.088-2-14.941-1.898-14.754-1.797-14.566-1.703-14.338-1.617-14.068-1.531-13.799-1.402-13.277-1.23-12.504L.762-3.48C.934-2.699 1.02-2.082 1.02-1.629 1.02-1.246 .93-.98 .75-.832 .57-.684 .277-.598-.129-.574ZM4.91-1.031C4.426-1.031 3.918-1.043 3.387-1.066L1.793-8.168H3.012C3.957-8.168 4.721-8.07 5.303-7.875 5.885-7.68 6.361-7.377 6.732-6.967 7.104-6.557 7.391-6.07 7.594-5.508 7.797-4.945 7.898-4.328 7.898-3.656 7.898-2.75 7.668-2.086 7.207-1.664 6.746-1.242 5.98-1.031 4.91-1.031" fill-rule="evenodd"/>
<path transform="matrix(1,0,0,-1,756.9797,264.03559)" d="M0 0C.422 0 .749-.138 .98-.415 1.211-.691 1.326-1.055 1.326-1.506 1.326-1.631 1.317-1.754 1.3-1.873 1.283-1.993 1.252-2.11 1.206-2.224L1.309-2.267C1.851-1.508 2.392-.941 2.934-.565 3.476-.188 4.032 0 4.602 0 5.207 0 5.659-.155 5.958-.466 6.258-.777 6.407-1.235 6.407-1.839V-1.989C6.407-2.037 6.402-2.087 6.39-2.139H6.425C6.955-1.414 7.483-.877 8.007-.526 8.532-.175 9.079 0 9.65 0 10.254 0 10.706-.163 11.006-.488 11.305-.813 11.455-1.269 11.455-1.856 11.455-2.033 11.426-2.271 11.369-2.571 11.312-2.87 11.242-3.199 11.16-3.559 11.077-3.918 10.987-4.29 10.89-4.675 10.793-5.06 10.702-5.424 10.616-5.766 10.565-5.988 10.524-6.169 10.492-6.309 10.461-6.449 10.437-6.566 10.42-6.66 10.403-6.754 10.391-6.835 10.385-6.904 10.38-6.972 10.377-7.046 10.377-7.126 10.377-7.343 10.417-7.5 10.497-7.597 10.576-7.694 10.705-7.742 10.882-7.742 10.984-7.742 11.087-7.722 11.19-7.682 11.292-7.642 11.402-7.579 11.519-7.494 11.636-7.408 11.764-7.299 11.904-7.165 12.044-7.031 12.199-6.869 12.37-6.681L12.96-7.246C12.687-7.531 12.431-7.776 12.195-7.982 11.958-8.187 11.73-8.357 11.51-8.491 11.291-8.625 11.073-8.724 10.856-8.79 10.639-8.856 10.411-8.888 10.172-8.888 9.955-8.888 9.758-8.848 9.581-8.769 9.404-8.689 9.255-8.579 9.132-8.439 9.01-8.299 8.914-8.134 8.846-7.943 8.777-7.752 8.743-7.542 8.743-7.314 8.743-6.847 8.843-6.245 9.042-5.509 9.151-5.139 9.249-4.784 9.337-4.444 9.426-4.105 9.501-3.791 9.564-3.503 9.627-3.215 9.677-2.958 9.714-2.733 9.751-2.508 9.769-2.321 9.769-2.173 9.769-1.819 9.702-1.56 9.568-1.394 9.434-1.229 9.225-1.146 8.94-1.146 8.763-1.146 8.575-1.192 8.375-1.283 8.175-1.374 7.974-1.501 7.772-1.664 7.57-1.826 7.371-2.019 7.177-2.241 6.984-2.464 6.804-2.705 6.638-2.964 6.473-3.224 6.326-3.496 6.198-3.781 6.07-4.066 5.971-4.354 5.903-4.645L5.056-8.734H3.388C3.468-8.369 3.557-7.977 3.657-7.558 3.757-7.139 3.858-6.715 3.961-6.288 4.063-5.86 4.162-5.438 4.256-5.022 4.35-4.605 4.434-4.216 4.508-3.854 4.582-3.492 4.642-3.167 4.688-2.879 4.734-2.591 4.756-2.361 4.756-2.19 4.756-1.831 4.687-1.567 4.547-1.399 4.407-1.23 4.183-1.146 3.875-1.146 3.602-1.146 3.308-1.249 2.994-1.454 2.68-1.66 2.383-1.929 2.1-2.263 1.818-2.596 1.566-2.973 1.343-3.392 1.121-3.811 .964-4.235 .873-4.662L0-8.734H-1.677L-.393-3.157C-.319-2.849-.265-2.581-.231-2.353-.197-2.124-.18-1.936-.18-1.788-.18-1.372-.348-1.163-.684-1.163-.787-1.163-.891-1.185-.997-1.228-1.102-1.27-1.213-1.335-1.33-1.42-1.447-1.506-1.574-1.614-1.711-1.745-1.848-1.876-2.002-2.03-2.173-2.207L-2.763-1.651C-2.484-1.366-2.226-1.119-1.989-.911-1.752-.703-1.524-.532-1.305-.398-1.085-.264-.87-.164-.659-.098-.448-.033-.228 0 0 0M16.483 0C16.893 0 17.221-.138 17.467-.415 17.712-.691 17.834-1.061 17.834-1.523 17.834-1.774 17.812-2.053 17.766-2.361 17.72-2.669 17.643-3.014 17.535-3.396 17.318-4.178 17.147-4.862 17.022-5.449 16.896-6.037 16.834-6.467 16.834-6.741 16.834-7.083 16.901-7.339 17.035-7.507 17.169-7.675 17.384-7.759 17.68-7.759 17.948-7.759 18.235-7.659 18.54-7.46 18.845-7.26 19.138-7.002 19.417-6.685 19.697-6.369 19.946-6.015 20.166-5.625 20.385-5.234 20.546-4.848 20.649-4.466L21.59-.18H23.275L21.958-5.766C21.889-6.057 21.841-6.316 21.812-6.544 21.784-6.772 21.77-6.966 21.77-7.126 21.77-7.343 21.81-7.5 21.889-7.597 21.969-7.694 22.098-7.742 22.274-7.742 22.383-7.742 22.488-7.722 22.591-7.682 22.693-7.642 22.803-7.579 22.92-7.494 23.037-7.408 23.164-7.299 23.301-7.165 23.438-7.031 23.592-6.869 23.763-6.681L24.353-7.246C24.068-7.537 23.806-7.786 23.566-7.994 23.327-8.203 23.098-8.374 22.882-8.508 22.665-8.642 22.45-8.739 22.236-8.798 22.022-8.858 21.801-8.888 21.573-8.888 21.162-8.888 20.841-8.756 20.61-8.491 20.379-8.225 20.264-7.862 20.264-7.4 20.264-7.28 20.273-7.159 20.29-7.036 20.307-6.914 20.338-6.795 20.384-6.681L20.281-6.647C19.716-7.394 19.168-7.954 18.634-8.328 18.101-8.702 17.546-8.888 16.97-8.888 16.366-8.888 15.911-8.729 15.606-8.409 15.301-8.09 15.148-7.631 15.148-7.032 15.148-6.878 15.175-6.664 15.23-6.39 15.284-6.117 15.351-5.811 15.431-5.475 15.51-5.139 15.596-4.786 15.687-4.419 15.778-4.051 15.864-3.697 15.944-3.358 16.024-3.018 16.091-2.71 16.145-2.434 16.199-2.157 16.226-1.942 16.226-1.788 16.226-1.372 16.055-1.163 15.713-1.163 15.604-1.163 15.499-1.185 15.396-1.228 15.294-1.27 15.184-1.335 15.067-1.42 14.95-1.506 14.823-1.614 14.686-1.745 14.549-1.876 14.395-2.03 14.224-2.207L13.643-1.651C13.951-1.343 14.226-1.084 14.468-.873 14.711-.662 14.94-.492 15.157-.364 15.374-.235 15.587-.143 15.798-.086 16.009-.029 16.238 0 16.483 0" fill-rule="evenodd"/>
<path transform="matrix(1,0,0,-1,735.5,336.5)" stroke-width="2.25" stroke-linecap="butt" stroke-miterlimit="8" stroke-linejoin="miter" fill="none" stroke="#bfbfbf" d="M0 0 104.804 60.355"/>
<path transform="matrix(1,0,0,-1,840.5998,280.4867)" d="M0 0 4.489 7.097-2.505 7.58Z" fill="#bfbfbf" fill-rule="evenodd"/>
<path transform="matrix(1,0,0,-1,238.0527,345.08039)" d="M0 0H6.021C7.104 0 7.993-.084 8.69-.253 9.386-.421 9.959-.68 10.41-1.031 10.86-1.381 11.197-1.825 11.42-2.362 11.643-2.899 11.755-3.522 11.755-4.232 11.755-5.598 11.432-6.781 10.785-7.782 10.139-8.783 9.263-9.52 8.157-9.994 7.051-10.467 5.725-10.703 4.178-10.703 3.249-10.703 2.476-10.685 1.857-10.649L.983-14.663C.901-15.036 .844-15.323 .812-15.523 .78-15.723 .753-15.939 .73-16.171 .708-16.403 .696-16.61 .696-16.792 .696-17.075 .742-17.295 .833-17.455 .924-17.614 1.06-17.73 1.242-17.803 1.424-17.875 1.738-17.93 2.184-17.967L2.034-18.635H-3.577L-3.427-17.967C-3.081-17.912-2.821-17.823-2.649-17.7-2.476-17.577-2.33-17.407-2.212-17.188-2.093-16.97-1.984-16.704-1.884-16.39-1.784-16.076-1.634-15.468-1.433-14.567L.887-4.055C1.088-3.145 1.188-2.426 1.188-1.898 1.188-1.452 1.083-1.142 .874-.969 .664-.796 .323-.696-.15-.669ZM5.72-1.201C5.156-1.201 4.564-1.215 3.946-1.242L2.089-9.516H3.509C4.61-9.516 5.5-9.402 6.178-9.174 6.856-8.947 7.411-8.594 7.843-8.116 8.276-7.639 8.61-7.072 8.847-6.417 9.083-5.761 9.202-5.042 9.202-4.26 9.202-3.204 8.933-2.43 8.396-1.939 7.859-1.447 6.967-1.201 5.72-1.201" fill-rule="evenodd"/>
<path transform="matrix(1,0,0,-1,252.5897,359.3058)" d="M0 0C.598 0 1.121-.096 1.569-.289 2.017-.481 2.391-.742 2.689-1.071 2.988-1.4 3.212-1.786 3.362-2.231 3.511-2.676 3.586-3.151 3.586-3.656 3.586-4.665 3.437-5.58 3.138-6.4 2.839-7.22 2.425-7.924 1.898-8.512 1.37-9.099 .749-9.553 .035-9.871-.679-10.19-1.454-10.349-2.291-10.349-2.842-10.349-3.337-10.266-3.775-10.1-4.213-9.934-4.585-9.695-4.891-9.383-5.196-9.071-5.43-8.694-5.593-8.253-5.756-7.811-5.837-7.311-5.837-6.754-5.837-5.811-5.689-4.929-5.394-4.109-5.098-3.289-4.69-2.575-4.169-1.967-3.647-1.36-3.031-.88-2.321-.528-1.61-.176-.837 0 0 0M-.189-.986C-.561-.986-.91-1.069-1.235-1.235-1.561-1.401-1.859-1.63-2.132-1.922-2.404-2.215-2.648-2.56-2.864-2.958-3.08-3.357-3.262-3.785-3.412-4.243-3.561-4.702-3.676-5.18-3.755-5.678-3.835-6.176-3.875-6.674-3.875-7.172-3.875-7.936-3.717-8.498-3.402-8.86-3.086-9.222-2.606-9.403-1.962-9.403-1.604-9.403-1.265-9.315-.946-9.139-.628-8.963-.335-8.726-.07-8.427 .196-8.128 .433-7.778 .642-7.376 .852-6.974 1.029-6.544 1.175-6.086 1.321-5.628 1.433-5.155 1.509-4.667 1.585-4.179 1.624-3.702 1.624-3.237 1.624-2.5 1.478-1.941 1.185-1.559 .893-1.177 .435-.986-.189-.986" fill-rule="evenodd"/>
<path transform="matrix(1,0,0,-1,235.3517,421.8026)" d="M0 0H6.021C7.104 0 7.993-.084 8.69-.253 9.386-.421 9.959-.68 10.41-1.031 10.86-1.381 11.197-1.825 11.42-2.362 11.643-2.899 11.755-3.522 11.755-4.232 11.755-5.598 11.432-6.781 10.785-7.782 10.139-8.783 9.263-9.52 8.157-9.994 7.051-10.467 5.725-10.703 4.178-10.703 3.249-10.703 2.476-10.685 1.857-10.649L.983-14.663C.901-15.036 .844-15.323 .812-15.523 .78-15.723 .753-15.939 .73-16.171 .708-16.403 .696-16.61 .696-16.792 .696-17.075 .742-17.295 .833-17.455 .924-17.614 1.06-17.73 1.242-17.803 1.424-17.875 1.738-17.93 2.184-17.967L2.034-18.635H-3.577L-3.427-17.967C-3.081-17.912-2.821-17.823-2.649-17.7-2.476-17.577-2.33-17.407-2.212-17.188-2.093-16.97-1.984-16.704-1.884-16.39-1.784-16.076-1.634-15.468-1.434-14.567L.887-4.055C1.088-3.145 1.188-2.426 1.188-1.898 1.188-1.452 1.083-1.142 .874-.969 .664-.796 .323-.696-.15-.669ZM5.72-1.201C5.156-1.201 4.564-1.215 3.946-1.242L2.089-9.516H3.509C4.61-9.516 5.5-9.402 6.178-9.174 6.856-8.947 7.411-8.594 7.843-8.116 8.276-7.639 8.61-7.072 8.847-6.417 9.083-5.761 9.202-5.042 9.202-4.26 9.202-3.204 8.933-2.43 8.396-1.939 7.859-1.447 6.967-1.201 5.72-1.201" fill-rule="evenodd"/>
<path transform="matrix(1,0,0,-1,246.4322,436.0279)" d="M0 0C.485 0 .862-.161 1.131-.483 1.4-.805 1.534-1.229 1.534-1.753 1.534-1.906 1.522-2.052 1.499-2.191 1.476-2.331 1.434-2.47 1.375-2.61L1.514-2.68C2.165-1.77 2.804-1.096 3.432-.657 4.059-.219 4.718 0 5.409 0 6.199 0 6.805-.286 7.227-.857 7.648-1.428 7.859-2.261 7.859-3.357 7.859-4.313 7.711-5.215 7.416-6.061 7.12-6.908 6.72-7.65 6.216-8.288 5.711-8.925 5.125-9.428 4.458-9.797 3.79-10.165 3.085-10.349 2.341-10.349 1.823-10.349 1.373-10.298 .991-10.195 .609-10.092 .292-9.968 .04-9.822-.02-10.081-.085-10.349-.154-10.628-.224-10.907-.291-11.176-.354-11.435-.417-11.694-.468-11.933-.508-12.152-.548-12.372-.568-12.547-.568-12.68-.568-12.8-.55-12.899-.513-12.979-.476-13.059-.41-13.125-.314-13.178-.217-13.231-.09-13.273 .07-13.303 .229-13.333 .428-13.358 .667-13.378L.637-14.035H-2.869L-.438-3.656C-.359-3.291-.302-2.985-.269-2.739-.236-2.494-.219-2.274-.219-2.082-.219-1.597-.415-1.355-.807-1.355-.926-1.355-1.046-1.38-1.165-1.429-1.285-1.479-1.413-1.554-1.549-1.654-1.685-1.753-1.834-1.879-1.997-2.032-2.16-2.185-2.341-2.364-2.54-2.57L-3.227-1.922C-2.895-1.59-2.592-1.303-2.316-1.061-2.04-.818-1.775-.619-1.519-.463-1.263-.307-1.014-.191-.772-.115-.53-.038-.272 0 0 0M4.622-1.335C4.217-1.335 3.843-1.456 3.501-1.698 3.159-1.941 2.792-2.288 2.401-2.739 2.221-2.952 2.055-3.161 1.903-3.367 1.75-3.573 1.612-3.797 1.489-4.039 1.366-4.282 1.257-4.551 1.16-4.846 1.064-5.142 .979-5.482 .906-5.867 .813-6.325 .74-6.71 .687-7.022 .634-7.335 .608-7.63 .608-7.909 .608-8.447 .732-8.827 .981-9.05 1.23-9.272 1.63-9.383 2.181-9.383 2.567-9.383 2.927-9.299 3.262-9.129 3.598-8.96 3.901-8.729 4.174-8.437 4.446-8.145 4.688-7.804 4.901-7.416 5.113-7.027 5.291-6.612 5.434-6.171 5.576-5.729 5.686-5.276 5.762-4.811 5.839-4.346 5.877-3.895 5.877-3.457 5.877-2.746 5.779-2.215 5.583-1.863 5.387-1.511 5.067-1.335 4.622-1.335" fill-rule="evenodd"/>
<path transform="matrix(1,0,0,-1,353.557,353.076)" stroke-width="2.25" stroke-linecap="butt" stroke-miterlimit="8" stroke-linejoin="miter" fill="none" stroke="#bfbfbf" d="M0 0H64.883"/>
<path transform="matrix(1,0,0,-1,417.3156,349.7008)" d="M0 0 6.75-3.375 0-6.75Z" fill="#bfbfbf" fill-rule="evenodd"/>
</g>
<g clip-path="url(#clip_25)">
<path transform="matrix(1,0,0,-1,352.117,435.3961)" stroke-width="2.25" stroke-linecap="butt" stroke-miterlimit="8" stroke-linejoin="miter" fill="none" stroke="#bfbfbf" d="M0 0H64.883"/>
<path transform="matrix(1,0,0,-1,415.8756,432.0209)" d="M0 0 6.75-3.375 0-6.75Z" fill="#bfbfbf" fill-rule="evenodd"/>
</g>
<text xml:space="preserve" transform="matrix(1 0 -0 1 0 485)" font-size="18" font-family="TimesNewRomanPSMT"><tspan y="-97.9209" x="356.5894 366.5614 374.58943 388.52143 397.52143 402.56144 407.60145 416.60145 425.60145">Sampling </tspan><tspan y="-76.3029" x="348.30946 356.33747 365.33747 374.33747 378.78346 384.77745 392.80546 399.77146 408.77146 416.79945 425.79945">and reshape</tspan></text>
<g clip-path="url(#clip_26)">
<path transform="matrix(1,0,0,-1,521.557,435.4116)" stroke-width="2.25" stroke-linecap="butt" stroke-miterlimit="8" stroke-linejoin="miter" fill="none" stroke="#bfbfbf" d="M0 0H87.892V42.016H131.648"/>
<path transform="matrix(1,0,0,-1,652.0797,396.7713)" d="M0 0 6.75 3.375 0 6.75Z" fill="#bfbfbf" fill-rule="evenodd"/>
<path transform="matrix(1,0,0,-1,521.7971,353.436)" stroke-width="2.25" stroke-linecap="butt" stroke-miterlimit="8" stroke-linejoin="miter" fill="none" stroke="#bfbfbf" d="M0 0H87.315V-40.012H131.331"/>
<path transform="matrix(1,0,0,-1,652.0029,390.0723)" d="M0 0 6.75-3.375 0-6.75Z" fill="#bfbfbf" fill-rule="evenodd"/>
<path transform="matrix(1,0,0,-1,669.8957,367.7779)" d="M0 0H5.168C6.098 0 6.861-.072 7.459-.217 8.057-.361 8.549-.584 8.936-.885 9.322-1.186 9.611-1.566 9.803-2.027 9.994-2.488 10.09-3.023 10.09-3.633 10.09-4.805 9.813-5.82 9.258-6.68 8.703-7.539 7.951-8.172 7.002-8.578 6.053-8.984 4.914-9.188 3.586-9.188 2.789-9.188 2.125-9.172 1.594-9.141L.844-12.586C.773-12.906 .725-13.152 .697-13.324 .67-13.496 .646-13.682 .627-13.881 .607-14.08 .598-14.258 .598-14.414 .598-14.656 .637-14.846 .715-14.982 .793-15.119 .91-15.219 1.066-15.281 1.223-15.344 1.492-15.391 1.875-15.422L1.746-15.996H-3.07L-2.941-15.422C-2.645-15.375-2.422-15.299-2.273-15.193-2.125-15.088-2-14.941-1.898-14.754-1.797-14.566-1.703-14.338-1.617-14.068-1.531-13.799-1.402-13.277-1.23-12.504L.762-3.48C.934-2.699 1.02-2.082 1.02-1.629 1.02-1.246 .93-.98 .75-.832 .57-.684 .277-.598-.129-.574ZM4.91-1.031C4.426-1.031 3.918-1.043 3.387-1.066L1.793-8.168H3.012C3.957-8.168 4.721-8.07 5.303-7.875 5.885-7.68 6.361-7.377 6.732-6.967 7.104-6.557 7.391-6.07 7.594-5.508 7.797-4.945 7.898-4.328 7.898-3.656 7.898-2.75 7.668-2.086 7.207-1.664 6.746-1.242 5.98-1.031 4.91-1.031" fill-rule="evenodd"/>
<path transform="matrix(1,0,0,-1,679.4713,379.95973)" d="M0 0C.422 0 .749-.138 .979-.415 1.211-.692 1.326-1.055 1.326-1.506 1.326-1.631 1.317-1.754 1.3-1.874 1.283-1.993 1.252-2.11 1.206-2.224L1.309-2.267C1.851-1.509 2.392-.941 2.934-.565 3.476-.188 4.032 0 4.602 0 5.207 0 5.659-.155 5.958-.466 6.258-.777 6.407-1.235 6.407-1.839V-1.989C6.407-2.037 6.402-2.087 6.39-2.139H6.425C6.955-1.414 7.482-.877 8.007-.526 8.532-.175 9.079 0 9.65 0 10.254 0 10.706-.163 11.006-.488 11.305-.813 11.455-1.269 11.455-1.856 11.455-2.033 11.426-2.271 11.369-2.571 11.312-2.87 11.242-3.199 11.16-3.559 11.077-3.918 10.987-4.29 10.89-4.675 10.793-5.06 10.702-5.424 10.616-5.766 10.565-5.988 10.524-6.169 10.492-6.309 10.461-6.449 10.437-6.566 10.42-6.66 10.403-6.754 10.391-6.835 10.385-6.904 10.38-6.972 10.377-7.046 10.377-7.126 10.377-7.343 10.417-7.5 10.497-7.597 10.576-7.694 10.705-7.742 10.882-7.742 10.984-7.742 11.087-7.722 11.19-7.682 11.292-7.642 11.402-7.579 11.519-7.494 11.636-7.408 11.764-7.299 11.904-7.165 12.044-7.031 12.199-6.87 12.37-6.681L12.96-7.246C12.687-7.531 12.431-7.776 12.195-7.982 11.958-8.187 11.73-8.357 11.51-8.491 11.291-8.625 11.073-8.724 10.856-8.79 10.639-8.856 10.411-8.888 10.172-8.888 9.955-8.888 9.758-8.848 9.581-8.769 9.404-8.689 9.255-8.579 9.132-8.439 9.01-8.3 8.914-8.134 8.846-7.943 8.777-7.752 8.743-7.542 8.743-7.314 8.743-6.847 8.843-6.245 9.042-5.509 9.151-5.139 9.249-4.784 9.337-4.444 9.426-4.105 9.501-3.791 9.564-3.503 9.627-3.215 9.677-2.958 9.714-2.733 9.751-2.508 9.769-2.321 9.769-2.173 9.769-1.819 9.702-1.56 9.568-1.394 9.434-1.229 9.225-1.146 8.94-1.146 8.763-1.146 8.575-1.192 8.375-1.283 8.175-1.375 7.974-1.501 7.772-1.664 7.569-1.826 7.371-2.019 7.177-2.241 6.983-2.464 6.804-2.705 6.638-2.964 6.473-3.224 6.326-3.496 6.198-3.781 6.07-4.066 5.971-4.354 5.903-4.645L5.056-8.734H3.388C3.468-8.369 3.557-7.977 3.657-7.558 3.757-7.139 3.858-6.715 3.961-6.288 4.063-5.86 4.162-5.438 4.256-5.022 4.35-4.605 4.434-4.216 4.508-3.854 4.582-3.492 4.642-3.167 4.688-2.879 4.734-2.591 4.756-2.361 4.756-2.19 4.756-1.831 4.687-1.567 4.547-1.399 4.407-1.23 4.183-1.146 3.875-1.146 3.602-1.146 3.308-1.249 2.994-1.454 2.68-1.66 2.383-1.929 2.1-2.263 1.818-2.596 1.565-2.973 1.343-3.392 1.121-3.811 .964-4.235 .873-4.662L0-8.734H-1.677L-.393-3.157C-.319-2.849-.265-2.581-.231-2.353-.197-2.125-.18-1.936-.18-1.788-.18-1.372-.348-1.163-.684-1.163-.787-1.163-.891-1.185-.997-1.228-1.102-1.27-1.213-1.335-1.33-1.42-1.447-1.506-1.574-1.614-1.711-1.745-1.848-1.876-2.002-2.03-2.173-2.207L-2.763-1.651C-2.484-1.366-2.226-1.119-1.989-.911-1.752-.703-1.524-.532-1.305-.398-1.085-.264-.87-.164-.659-.098-.448-.033-.228 0 0 0M16.483 0C16.893 0 17.221-.138 17.467-.415 17.712-.692 17.834-1.061 17.834-1.523 17.834-1.774 17.812-2.053 17.766-2.361 17.72-2.669 17.643-3.014 17.535-3.396 17.318-4.178 17.147-4.862 17.022-5.449 16.896-6.037 16.833-6.467 16.833-6.741 16.833-7.083 16.901-7.339 17.035-7.507 17.169-7.675 17.384-7.759 17.68-7.759 17.948-7.759 18.235-7.659 18.54-7.46 18.845-7.26 19.138-7.002 19.417-6.686 19.696-6.369 19.946-6.015 20.166-5.625 20.385-5.234 20.546-4.848 20.649-4.466L21.59-.18H23.275L21.958-5.766C21.889-6.057 21.841-6.316 21.812-6.544 21.784-6.772 21.77-6.966 21.77-7.126 21.77-7.343 21.81-7.5 21.889-7.597 21.969-7.694 22.097-7.742 22.274-7.742 22.383-7.742 22.488-7.722 22.591-7.682 22.693-7.642 22.803-7.579 22.92-7.494 23.037-7.408 23.164-7.299 23.301-7.165 23.438-7.031 23.592-6.87 23.763-6.681L24.353-7.246C24.068-7.537 23.806-7.786 23.566-7.994 23.327-8.203 23.098-8.374 22.882-8.508 22.665-8.642 22.45-8.739 22.236-8.799 22.022-8.858 21.801-8.888 21.573-8.888 21.162-8.888 20.841-8.756 20.61-8.491 20.379-8.225 20.264-7.862 20.264-7.4 20.264-7.28 20.273-7.159 20.29-7.036 20.307-6.914 20.338-6.795 20.384-6.681L20.281-6.647C19.716-7.394 19.168-7.954 18.634-8.328 18.101-8.702 17.546-8.888 16.97-8.888 16.366-8.888 15.911-8.729 15.606-8.409 15.301-8.09 15.148-7.631 15.148-7.032 15.148-6.878 15.175-6.664 15.229-6.39 15.284-6.117 15.351-5.812 15.431-5.475 15.51-5.139 15.596-4.786 15.687-4.419 15.778-4.051 15.864-3.697 15.944-3.358 16.024-3.018 16.091-2.71 16.145-2.434 16.199-2.157 16.226-1.942 16.226-1.788 16.226-1.372 16.055-1.163 15.713-1.163 15.604-1.163 15.499-1.185 15.396-1.228 15.294-1.27 15.184-1.335 15.067-1.42 14.95-1.506 14.823-1.614 14.686-1.745 14.549-1.876 14.395-2.03 14.224-2.207L13.643-1.651C13.951-1.343 14.226-1.084 14.468-.873 14.711-.662 14.94-.492 15.157-.364 15.374-.235 15.587-.143 15.798-.086 16.009-.029 16.238 0 16.483 0" fill-rule="evenodd"/>
</g>
<text xml:space="preserve" transform="matrix(1 0 -0 1 0 485)" font-size="18" font-family="TimesNewRomanPS" font-weight="bold"><tspan y="-132.1396" x="708.269 718.24099 726.269 739.46298 749.43496 754.4749">newbie</tspan></text>
<text xml:space="preserve" transform="matrix(1 0 -0 1 0 485)" font-size="18" font-family="TimesNewRomanPSMT"><tspan y="-97.74161" x="531.8329 543.83889 552.83889 566.7709 575.7709 580.81088 589.81088 597.83889">Combine </tspan><tspan y="-76.14161" x="528.1249 536.1529 545.1529 554.1529 558.5989 564.5929 572.62088 581.62088 586.6608 593.62686">and revise</tspan></text>
<g clip-path="url(#clip_27)">
<path transform="matrix(1,0,0,-1,0,485)" d="M263.758 101.607H274.103V121.956H263.758Z" fill="#4e79a7"/>
<path transform="matrix(1,0,0,-1,0,485)" d="M278.241 101.607H288.586V121.956H278.241Z" fill="#4e79a7"/>
<path transform="matrix(1,0,0,-1,0,485)" d="M292.725 101.607H303.07V155.87201H292.725Z" fill="#4e79a7"/>
<path transform="matrix(1,0,0,-1,0,485)" d="M307.208 101.607H317.553V128.739H307.208Z" fill="#4e79a7"/>
<path transform="matrix(1,0,0,-1,0,485)" d="M321.692 101.607H332.037V149.089H321.692Z" fill="#4e79a7"/>
</g>
<g clip-path="url(#clip_28)">
<path transform="matrix(1,0,0,-1,0,485)" d="M264.358 25.526H274.703V39.068H264.358Z" fill="#e15759"/>
<path transform="matrix(1,0,0,-1,0,485)" d="M278.841 25.526H289.186V49.225H278.841Z" fill="#e15759"/>
<path transform="matrix(1,0,0,-1,0,485)" d="M293.325 25.526H303.67V39.068H293.325Z" fill="#e15759"/>
<path transform="matrix(1,0,0,-1,0,485)" d="M307.808 25.526H318.153V45.839998H307.808Z" fill="#e15759"/>
<path transform="matrix(1,0,0,-1,0,485)" d="M322.292 25.526H332.637V79.696H322.292Z" fill="#e15759"/>
</g>
<g clip-path="url(#clip_29)">
<path transform="matrix(1,0,0,-1,0,485)" d="M704.272 64.646H714.54598V68.01401H704.272Z" fill="#59a14f"/>
<path transform="matrix(1,0,0,-1,0,485)" d="M718.655 64.646H728.929V68.01401H718.655Z" fill="#59a14f"/>
<path transform="matrix(1,0,0,-1,0,485)" d="M733.038 64.646H743.312V125.267H733.038Z" fill="#59a14f"/>
<path transform="matrix(1,0,0,-1,0,485)" d="M747.422 64.646H757.696V98.324008H747.422Z" fill="#59a14f"/>
<path transform="matrix(1,0,0,-1,0,485)" d="M761.805 64.646H772.079V68.01401H761.805Z" fill="#59a14f"/>
</g>
<g clip-path="url(#clip_30)">
<path transform="matrix(1,0,0,-1,0,485)" d="M437.152 101.606H447.426V104.974H437.152Z" fill="#4e79a7"/>
<path transform="matrix(1,0,0,-1,0,485)" d="M451.535 101.606H461.809V104.974H451.535Z" fill="#4e79a7"/>
<path transform="matrix(1,0,0,-1,0,485)" d="M465.918 101.606H476.192V162.227H465.918Z" fill="#4e79a7"/>
<path transform="matrix(1,0,0,-1,0,485)" d="M480.301 101.606H490.57499V135.284H480.301Z" fill="#4e79a7"/>
<path transform="matrix(1,0,0,-1,0,485)" d="M494.685 101.606H504.95899V155.491H494.685Z" fill="#4e79a7"/>
</g>
<g clip-path="url(#clip_31)">
<path transform="matrix(1,0,0,-1,0,485)" d="M436.436 25.526H446.763V28.911999H436.436Z" fill="#e15759"/>
<path transform="matrix(1,0,0,-1,0,485)" d="M450.895 25.526H461.222V52.611H450.895Z" fill="#e15759"/>
<path transform="matrix(1,0,0,-1,0,485)" d="M465.353 25.526H475.68V28.911999H465.353Z" fill="#e15759"/>
<path transform="matrix(1,0,0,-1,0,485)" d="M479.811 25.526H490.138V28.911999H479.811Z" fill="#e15759"/>
<path transform="matrix(1,0,0,-1,0,485)" d="M494.27 25.526H504.597V86.467H494.27Z" fill="#e15759"/>
</g>
</g>
</g>
</svg>
